STARTFONT 2.1
COMMENT Generated offline from Noto Sans CJK SC for MSYS
FONT -msys-msyscjk-bold-r-normal--14-140-75-75-p-138-iso10646-1
SIZE 14 75 75
FONTBOUNDINGBOX 16 18 -1 -4
STARTPROPERTIES 17
FOUNDRY "MSYS"
FAMILY_NAME "msyscjk"
WEIGHT_NAME "Bold"
SLANT "R"
SETWIDTH_NAME "Normal"
ADD_STYLE_NAME ""
PIXEL_SIZE 14
POINT_SIZE 140
RESOLUTION_X 75
RESOLUTION_Y 75
SPACING "P"
AVERAGE_WIDTH 138
CHARSET_REGISTRY "ISO10646"
CHARSET_ENCODING "1"
FONT_ASCENT 14
FONT_DESCENT 4
DEFAULT_CHAR 9633
ENDPROPERTIES
CHARS 7542
STARTCHAR uni0020
ENCODING 32
SWIDTH 214 0
DWIDTH 3 0
BBX 1 1 0 0
BITMAP
00
ENDCHAR
STARTCHAR uni0021
ENCODING 33
SWIDTH 357 0
DWIDTH 5 0
BBX 3 11 1 0
BITMAP
60
60
60
40
40
40
40
00
40
E0
60
ENDCHAR
STARTCHAR uni0022
ENCODING 34
SWIDTH 571 0
DWIDTH 8 0
BBX 6 5 1 6
BITMAP
CC
CC
CC
CC
48
ENDCHAR
STARTCHAR uni0023
ENCODING 35
SWIDTH 571 0
DWIDTH 8 0
BBX 7 10 1 0
BITMAP
24
6C
6C
FE
48
48
FC
48
48
D8
ENDCHAR
STARTCHAR uni0024
ENCODING 36
SWIDTH 571 0
DWIDTH 8 0
BBX 6 13 1 -1
BITMAP
30
30
7C
CC
C0
E0
78
1C
0C
8C
FC
78
30
ENDCHAR
STARTCHAR uni0025
ENCODING 37
SWIDTH 929 0
DWIDTH 13 0
BBX 13 11 0 0
BITMAP
3040
4880
4880
C900
4970
4AD8
32C8
0488
0488
08D8
0870
ENDCHAR
STARTCHAR uni0026
ENCODING 38
SWIDTH 714 0
DWIDTH 10 0
BBX 10 11 0 0
BITMAP
1C00
3600
2600
3600
3C00
38C0
7C80
CF80
C700
7FC0
3CC0
ENDCHAR
STARTCHAR uni0027
ENCODING 39
SWIDTH 357 0
DWIDTH 5 0
BBX 2 5 1 6
BITMAP
C0
C0
C0
C0
40
ENDCHAR
STARTCHAR uni0028
ENCODING 40
SWIDTH 357 0
DWIDTH 5 0
BBX 4 14 1 -3
BITMAP
20
60
40
40
C0
C0
C0
C0
C0
C0
40
60
60
20
ENDCHAR
STARTCHAR uni0029
ENCODING 41
SWIDTH 357 0
DWIDTH 5 0
BBX 3 14 1 -3
BITMAP
C0
C0
40
60
60
60
60
60
60
60
60
40
C0
80
ENDCHAR
STARTCHAR uni002A
ENCODING 42
SWIDTH 500 0
DWIDTH 7 0
BBX 5 5 1 6
BITMAP
20
F8
70
70
50
ENDCHAR
STARTCHAR uni002B
ENCODING 43
SWIDTH 571 0
DWIDTH 8 0
BBX 7 7 1 2
BITMAP
30
30
30
FE
30
30
30
ENDCHAR
STARTCHAR uni002C
ENCODING 44
SWIDTH 357 0
DWIDTH 5 0
BBX 3 5 1 -3
BITMAP
E0
E0
60
40
80
ENDCHAR
STARTCHAR uni002D
ENCODING 45
SWIDTH 357 0
DWIDTH 5 0
BBX 4 1 1 4
BITMAP
F0
ENDCHAR
STARTCHAR uni002E
ENCODING 46
SWIDTH 357 0
DWIDTH 5 0
BBX 3 3 1 0
BITMAP
40
E0
C0
ENDCHAR
STARTCHAR uni002F
ENCODING 47
SWIDTH 357 0
DWIDTH 5 0
BBX 5 14 0 -3
BITMAP
08
18
10
10
10
30
20
20
20
60
40
40
40
C0
ENDCHAR
STARTCHAR uni0030
ENCODING 48
SWIDTH 571 0
DWIDTH 8 0
BBX 7 11 1 0
BITMAP
78
FC
CC
C4
C6
C6
C6
C4
CC
7C
78
ENDCHAR
STARTCHAR uni0031
ENCODING 49
SWIDTH 571 0
DWIDTH 8 0
BBX 6 11 1 0
BITMAP
30
F0
30
30
30
30
30
30
30
FC
FC
ENDCHAR
STARTCHAR uni0032
ENCODING 50
SWIDTH 571 0
DWIDTH 8 0
BBX 8 11 0 0
BITMAP
3C
7E
46
06
06
0C
0C
18
30
7F
7F
ENDCHAR
STARTCHAR uni0033
ENCODING 51
SWIDTH 571 0
DWIDTH 8 0
BBX 7 11 0 0
BITMAP
3C
7E
06
06
1C
1C
06
06
46
FE
3C
ENDCHAR
STARTCHAR uni0034
ENCODING 52
SWIDTH 571 0
DWIDTH 8 0
BBX 8 11 0 0
BITMAP
0E
1E
16
36
26
66
FF
FF
06
06
06
ENDCHAR
STARTCHAR uni0035
ENCODING 53
SWIDTH 571 0
DWIDTH 8 0
BBX 7 11 0 0
BITMAP
7E
7E
60
60
7C
6E
06
06
46
FE
3C
ENDCHAR
STARTCHAR uni0036
ENCODING 54
SWIDTH 571 0
DWIDTH 8 0
BBX 7 11 1 0
BITMAP
3C
7C
C0
C0
F8
EC
C6
C6
C6
7C
38
ENDCHAR
STARTCHAR uni0037
ENCODING 55
SWIDTH 571 0
DWIDTH 8 0
BBX 7 11 1 0
BITMAP
FE
FC
0C
18
18
30
30
30
30
30
30
ENDCHAR
STARTCHAR uni0038
ENCODING 56
SWIDTH 571 0
DWIDTH 8 0
BBX 7 11 1 0
BITMAP
78
EC
CC
CC
6C
78
CC
86
C6
EC
78
ENDCHAR
STARTCHAR uni0039
ENCODING 57
SWIDTH 571 0
DWIDTH 8 0
BBX 7 11 1 0
BITMAP
78
FC
CC
84
C6
FE
74
0C
0C
F8
70
ENDCHAR
STARTCHAR uni003A
ENCODING 58
SWIDTH 357 0
DWIDTH 5 0
BBX 3 8 1 0
BITMAP
C0
E0
40
00
00
40
E0
C0
ENDCHAR
STARTCHAR uni003B
ENCODING 59
SWIDTH 357 0
DWIDTH 5 0
BBX 3 11 1 -3
BITMAP
40
E0
C0
00
00
00
E0
E0
60
40
80
ENDCHAR
STARTCHAR uni003C
ENCODING 60
SWIDTH 571 0
DWIDTH 8 0
BBX 7 7 1 2
BITMAP
06
1E
F0
C0
F0
1E
06
ENDCHAR
STARTCHAR uni003D
ENCODING 61
SWIDTH 571 0
DWIDTH 8 0
BBX 7 5 1 3
BITMAP
FE
00
00
00
FE
ENDCHAR
STARTCHAR uni003E
ENCODING 62
SWIDTH 571 0
DWIDTH 8 0
BBX 7 7 1 2
BITMAP
80
E0
3C
06
3C
E0
80
ENDCHAR
STARTCHAR uni003F
ENCODING 63
SWIDTH 500 0
DWIDTH 7 0
BBX 5 11 1 0
BITMAP
70
F8
18
18
18
30
60
00
20
70
60
ENDCHAR
STARTCHAR uni0040
ENCODING 64
SWIDTH 1000 0
DWIDTH 14 0
BBX 12 14 1 -3
BITMAP
0F80
38E0
6030
4010
CF90
8990
9910
9910
9B30
8DE0
C000
6000
3180
1F00
ENDCHAR
STARTCHAR uni0041
ENCODING 65
SWIDTH 643 0
DWIDTH 9 0
BBX 9 11 0 0
BITMAP
1C00
1C00
3400
3600
3600
2600
7F00
7F00
6300
C380
C180
ENDCHAR
STARTCHAR uni0042
ENCODING 66
SWIDTH 714 0
DWIDTH 10 0
BBX 8 11 1 0
BITMAP
FC
FE
C6
C6
FE
FE
C3
C3
C3
FF
FC
ENDCHAR
STARTCHAR uni0043
ENCODING 67
SWIDTH 643 0
DWIDTH 9 0
BBX 8 11 1 0
BITMAP
3E
7E
E2
C0
C0
C0
C0
C0
E2
7F
3E
ENDCHAR
STARTCHAR uni0044
ENCODING 68
SWIDTH 714 0
DWIDTH 10 0
BBX 8 11 1 0
BITMAP
FC
FE
C7
C3
C3
C3
C3
C3
C7
FE
FC
ENDCHAR
STARTCHAR uni0045
ENCODING 69
SWIDTH 643 0
DWIDTH 9 0
BBX 7 11 1 0
BITMAP
FE
FE
C0
C0
FC
FC
C0
C0
C0
FE
FE
ENDCHAR
STARTCHAR uni0046
ENCODING 70
SWIDTH 571 0
DWIDTH 8 0
BBX 7 11 1 0
BITMAP
FE
FE
C0
C0
C0
FC
FC
C0
C0
C0
C0
ENDCHAR
STARTCHAR uni0047
ENCODING 71
SWIDTH 714 0
DWIDTH 10 0
BBX 8 11 1 0
BITMAP
1E
7F
E0
C0
C0
CF
CF
C3
E3
7F
3E
ENDCHAR
STARTCHAR uni0048
ENCODING 72
SWIDTH 786 0
DWIDTH 11 0
BBX 8 11 1 0
BITMAP
C3
C3
C3
C3
FF
FF
C3
C3
C3
C3
C3
ENDCHAR
STARTCHAR uni0049
ENCODING 73
SWIDTH 357 0
DWIDTH 5 0
BBX 2 11 1 0
BITMAP
C0
C0
C0
C0
C0
C0
C0
C0
C0
C0
C0
ENDCHAR
STARTCHAR uni004A
ENCODING 74
SWIDTH 571 0
DWIDTH 8 0
BBX 7 11 0 0
BITMAP
06
06
06
06
06
06
06
06
4E
7C
38
ENDCHAR
STARTCHAR uni004B
ENCODING 75
SWIDTH 714 0
DWIDTH 10 0
BBX 9 11 1 0
BITMAP
C700
C600
CC00
DC00
D800
FC00
EC00
EE00
C600
C300
C300
ENDCHAR
STARTCHAR uni004C
ENCODING 76
SWIDTH 571 0
DWIDTH 8 0
BBX 7 11 1 0
BITMAP
C0
C0
C0
C0
C0
C0
C0
C0
C0
FE
FE
ENDCHAR
STARTCHAR uni004D
ENCODING 77
SWIDTH 857 0
DWIDTH 12 0
BBX 10 11 1 0
BITMAP
E1C0
E1C0
E1C0
F3C0
F2C0
D2C0
DEC0
DCC0
CCC0
CCC0
C0C0
ENDCHAR
STARTCHAR uni004E
ENCODING 78
SWIDTH 714 0
DWIDTH 10 0
BBX 8 11 1 0
BITMAP
E3
E3
F3
F3
DB
DB
CF
CF
C7
C7
C3
ENDCHAR
STARTCHAR uni004F
ENCODING 79
SWIDTH 786 0
DWIDTH 11 0
BBX 9 11 1 0
BITMAP
3E00
7F00
E300
C180
C180
C180
C180
C180
E300
7F00
3E00
ENDCHAR
STARTCHAR uni0050
ENCODING 80
SWIDTH 643 0
DWIDTH 9 0
BBX 8 11 1 0
BITMAP
FC
FE
C3
C3
C7
FE
FC
C0
C0
C0
C0
ENDCHAR
STARTCHAR uni0051
ENCODING 81
SWIDTH 786 0
DWIDTH 11 0
BBX 9 14 1 -3
BITMAP
3E00
7F00
E300
C180
C180
C180
C180
C180
E300
7F00
3E00
0C00
0F80
0380
ENDCHAR
STARTCHAR uni0052
ENCODING 82
SWIDTH 714 0
DWIDTH 10 0
BBX 8 11 1 0
BITMAP
FC
FE
C3
C3
C7
FE
FC
CC
C6
C6
C3
ENDCHAR
STARTCHAR uni0053
ENCODING 83
SWIDTH 643 0
DWIDTH 9 0
BBX 7 11 1 0
BITMAP
3C
FE
C0
C0
F0
7C
1E
06
86
FE
7C
ENDCHAR
STARTCHAR uni0054
ENCODING 84
SWIDTH 643 0
DWIDTH 9 0
BBX 8 11 0 0
BITMAP
FF
FF
18
18
18
18
18
18
18
18
18
ENDCHAR
STARTCHAR uni0055
ENCODING 85
SWIDTH 714 0
DWIDTH 10 0
BBX 8 11 1 0
BITMAP
C3
C3
C3
C3
C3
C3
C3
C3
63
7E
3C
ENDCHAR
STARTCHAR uni0056
ENCODING 86
SWIDTH 643 0
DWIDTH 9 0
BBX 9 11 0 0
BITMAP
C380
C300
6300
6300
6600
2600
3600
3600
3400
1C00
1C00
ENDCHAR
STARTCHAR uni0057
ENCODING 87
SWIDTH 929 0
DWIDTH 13 0
BBX 13 11 0 0
BITMAP
C630
6730
6730
6730
6530
6DB0
6DA0
2DE0
39E0
38E0
38E0
ENDCHAR
STARTCHAR uni0058
ENCODING 88
SWIDTH 643 0
DWIDTH 9 0
BBX 9 11 0 0
BITMAP
6300
6300
3600
3600
1C00
1C00
1C00
3600
7600
6300
E300
ENDCHAR
STARTCHAR uni0059
ENCODING 89
SWIDTH 571 0
DWIDTH 8 0
BBX 8 11 0 0
BITMAP
C3
67
66
66
3C
3C
18
18
18
18
18
ENDCHAR
STARTCHAR uni005A
ENCODING 90
SWIDTH 643 0
DWIDTH 9 0
BBX 7 11 1 0
BITMAP
FE
FE
0C
1C
18
30
30
60
E0
FE
FE
ENDCHAR
STARTCHAR uni005B
ENCODING 91
SWIDTH 357 0
DWIDTH 5 0
BBX 4 13 1 -2
BITMAP
F0
C0
C0
C0
C0
C0
C0
C0
C0
C0
C0
C0
F0
ENDCHAR
STARTCHAR uni005C
ENCODING 92
SWIDTH 357 0
DWIDTH 5 0
BBX 5 14 0 -3
BITMAP
40
40
40
60
20
20
20
30
10
10
10
18
08
08
ENDCHAR
STARTCHAR uni005D
ENCODING 93
SWIDTH 357 0
DWIDTH 5 0
BBX 3 13 1 -2
BITMAP
E0
60
60
60
60
60
60
60
60
60
60
60
E0
ENDCHAR
STARTCHAR uni005E
ENCODING 94
SWIDTH 571 0
DWIDTH 8 0
BBX 6 6 1 5
BITMAP
30
38
78
68
4C
CC
ENDCHAR
STARTCHAR uni005F
ENCODING 95
SWIDTH 571 0
DWIDTH 8 0
BBX 8 1 0 -2
BITMAP
FF
ENDCHAR
STARTCHAR uni0060
ENCODING 96
SWIDTH 643 0
DWIDTH 9 0
BBX 3 4 2 9
BITMAP
80
C0
60
20
ENDCHAR
STARTCHAR uni0061
ENCODING 97
SWIDTH 571 0
DWIDTH 8 0
BBX 6 8 1 0
BITMAP
78
FC
0C
3C
EC
CC
FC
F4
ENDCHAR
STARTCHAR uni0062
ENCODING 98
SWIDTH 643 0
DWIDTH 9 0
BBX 7 11 1 0
BITMAP
C0
C0
C0
DC
FE
C6
C6
C6
C6
FE
DC
ENDCHAR
STARTCHAR uni0063
ENCODING 99
SWIDTH 500 0
DWIDTH 7 0
BBX 6 8 1 0
BITMAP
38
F8
C0
C0
C0
C0
FC
78
ENDCHAR
STARTCHAR uni0064
ENCODING 100
SWIDTH 643 0
DWIDTH 9 0
BBX 7 11 1 0
BITMAP
06
06
06
7E
FE
C6
C6
C6
C6
FE
76
ENDCHAR
STARTCHAR uni0065
ENCODING 101
SWIDTH 571 0
DWIDTH 8 0
BBX 7 8 1 0
BITMAP
78
FC
C4
FE
C0
C0
FC
3C
ENDCHAR
STARTCHAR uni0066
ENCODING 102
SWIDTH 357 0
DWIDTH 5 0
BBX 6 12 0 0
BITMAP
18
38
30
70
F8
F8
70
70
70
70
70
70
ENDCHAR
STARTCHAR uni0067
ENCODING 103
SWIDTH 571 0
DWIDTH 8 0
BBX 7 11 1 -3
BITMAP
7E
DE
CC
CC
78
C0
E0
7E
86
C6
FC
ENDCHAR
STARTCHAR uni0068
ENCODING 104
SWIDTH 643 0
DWIDTH 9 0
BBX 7 11 1 0
BITMAP
C0
C0
C0
DC
FE
C6
C6
C6
C6
C6
C6
ENDCHAR
STARTCHAR uni0069
ENCODING 105
SWIDTH 286 0
DWIDTH 4 0
BBX 2 11 1 0
BITMAP
C0
C0
00
C0
C0
C0
C0
C0
C0
C0
C0
ENDCHAR
STARTCHAR uni006A
ENCODING 106
SWIDTH 286 0
DWIDTH 4 0
BBX 4 14 -1 -3
BITMAP
30
30
00
30
30
30
30
30
30
30
30
30
70
E0
ENDCHAR
STARTCHAR uni006B
ENCODING 107
SWIDTH 571 0
DWIDTH 8 0
BBX 7 11 1 0
BITMAP
C0
C0
C0
CE
CC
D8
F8
F8
EC
CC
C6
ENDCHAR
STARTCHAR uni006C
ENCODING 108
SWIDTH 286 0
DWIDTH 4 0
BBX 3 11 1 0
BITMAP
C0
C0
C0
C0
C0
C0
C0
C0
C0
E0
60
ENDCHAR
STARTCHAR uni006D
ENCODING 109
SWIDTH 1000 0
DWIDTH 14 0
BBX 11 8 1 0
BITMAP
DCE0
FFE0
C660
C660
C660
C660
C660
C660
ENDCHAR
STARTCHAR uni006E
ENCODING 110
SWIDTH 643 0
DWIDTH 9 0
BBX 7 8 1 0
BITMAP
DC
FE
C6
C6
C6
C6
C6
C6
ENDCHAR
STARTCHAR uni006F
ENCODING 111
SWIDTH 643 0
DWIDTH 9 0
BBX 7 8 1 0
BITMAP
38
FC
C6
C6
C6
C6
FC
78
ENDCHAR
STARTCHAR uni0070
ENCODING 112
SWIDTH 643 0
DWIDTH 9 0
BBX 7 11 1 -3
BITMAP
DC
FE
C6
C6
C6
C6
FE
DC
C0
C0
C0
ENDCHAR
STARTCHAR uni0071
ENCODING 113
SWIDTH 643 0
DWIDTH 9 0
BBX 7 11 1 -3
BITMAP
7E
FE
C6
C6
C6
C6
FE
76
06
06
06
ENDCHAR
STARTCHAR uni0072
ENCODING 114
SWIDTH 429 0
DWIDTH 6 0
BBX 5 8 1 0
BITMAP
D8
F8
E0
C0
C0
C0
C0
C0
ENDCHAR
STARTCHAR uni0073
ENCODING 115
SWIDTH 500 0
DWIDTH 7 0
BBX 6 8 0 0
BITMAP
3C
7C
60
78
1C
04
7C
78
ENDCHAR
STARTCHAR uni0074
ENCODING 116
SWIDTH 429 0
DWIDTH 6 0
BBX 6 10 0 0
BITMAP
20
20
F8
F8
60
60
60
60
38
3C
ENDCHAR
STARTCHAR uni0075
ENCODING 117
SWIDTH 643 0
DWIDTH 9 0
BBX 7 8 1 0
BITMAP
C6
C6
C6
C6
C6
C6
FE
76
ENDCHAR
STARTCHAR uni0076
ENCODING 118
SWIDTH 571 0
DWIDTH 8 0
BBX 8 8 0 0
BITMAP
C3
66
66
66
34
3C
3C
18
ENDCHAR
STARTCHAR uni0077
ENCODING 119
SWIDTH 857 0
DWIDTH 12 0
BBX 12 8 0 0
BITMAP
6630
6660
6760
6F60
2F60
3940
39C0
39C0
ENDCHAR
STARTCHAR uni0078
ENCODING 120
SWIDTH 571 0
DWIDTH 8 0
BBX 8 8 0 0
BITMAP
66
66
3C
3C
38
3C
66
66
ENDCHAR
STARTCHAR uni0079
ENCODING 121
SWIDTH 571 0
DWIDTH 8 0
BBX 8 11 0 -3
BITMAP
C3
66
66
26
34
3C
1C
18
18
70
70
ENDCHAR
STARTCHAR uni007A
ENCODING 122
SWIDTH 500 0
DWIDTH 7 0
BBX 6 8 1 0
BITMAP
FC
F8
38
30
60
E0
FC
FC
ENDCHAR
STARTCHAR uni007B
ENCODING 123
SWIDTH 357 0
DWIDTH 5 0
BBX 4 13 1 -2
BITMAP
70
40
40
40
40
40
C0
C0
40
40
40
40
70
ENDCHAR
STARTCHAR uni007C
ENCODING 124
SWIDTH 286 0
DWIDTH 4 0
BBX 2 16 1 -4
BITMAP
C0
C0
C0
C0
C0
C0
C0
C0
C0
C0
C0
C0
C0
C0
C0
C0
ENDCHAR
STARTCHAR uni007D
ENCODING 125
SWIDTH 357 0
DWIDTH 5 0
BBX 4 13 1 -2
BITMAP
C0
60
60
40
40
60
30
60
40
40
60
60
C0
ENDCHAR
STARTCHAR uni007E
ENCODING 126
SWIDTH 571 0
DWIDTH 8 0
BBX 8 2 0 4
BITMAP
7B
4E
ENDCHAR
STARTCHAR uni00A0
ENCODING 160
SWIDTH 214 0
DWIDTH 3 0
BBX 1 1 0 0
BITMAP
00
ENDCHAR
STARTCHAR uni00A4
ENCODING 164
SWIDTH 571 0
DWIDTH 8 0
BBX 8 8 0 1
BITMAP
42
7E
66
62
62
76
FF
40
ENDCHAR
STARTCHAR uni00A7
ENCODING 167
SWIDTH 1000 0
DWIDTH 14 0
BBX 8 13 3 -2
BITMAP
3E
62
60
70
7C
4E
C3
72
3E
0E
06
66
7C
ENDCHAR
STARTCHAR uni00A8
ENCODING 168
SWIDTH 643 0
DWIDTH 9 0
BBX 5 2 2 9
BITMAP
D8
D8
ENDCHAR
STARTCHAR uni00B0
ENCODING 176
SWIDTH 429 0
DWIDTH 6 0
BBX 4 5 1 6
BITMAP
E0
90
90
90
E0
ENDCHAR
STARTCHAR uni00B1
ENCODING 177
SWIDTH 1000 0
DWIDTH 14 0
BBX 10 11 2 0
BITMAP
0C00
0C00
0C00
0C00
FFC0
0C00
0C00
0C00
0C00
0000
FFC0
ENDCHAR
STARTCHAR uni00B7
ENCODING 183
SWIDTH 1000 0
DWIDTH 14 0
BBX 4 4 5 3
BITMAP
60
F0
F0
60
ENDCHAR
STARTCHAR uni00D7
ENCODING 215
SWIDTH 1000 0
DWIDTH 14 0
BBX 10 9 2 0
BITMAP
4080
6180
3300
1E00
0C00
1E00
3300
6180
4080
ENDCHAR
STARTCHAR uni00E0
ENCODING 224
SWIDTH 571 0
DWIDTH 8 0
BBX 6 13 1 0
BITMAP
00
60
30
10
00
78
FC
0C
3C
EC
CC
FC
F4
ENDCHAR
STARTCHAR uni00E1
ENCODING 225
SWIDTH 571 0
DWIDTH 8 0
BBX 6 13 1 0
BITMAP
08
0C
18
10
00
78
FC
0C
3C
EC
CC
FC
F4
ENDCHAR
STARTCHAR uni00E8
ENCODING 232
SWIDTH 571 0
DWIDTH 8 0
BBX 7 13 1 0
BITMAP
40
E0
30
10
00
78
FC
C4
FE
C0
C0
FC
3C
ENDCHAR
STARTCHAR uni00E9
ENCODING 233
SWIDTH 571 0
DWIDTH 8 0
BBX 7 13 1 0
BITMAP
08
0C
18
10
00
78
FC
C4
FE
C0
C0
FC
3C
ENDCHAR
STARTCHAR uni00EA
ENCODING 234
SWIDTH 571 0
DWIDTH 8 0
BBX 7 12 1 0
BITMAP
38
78
44
00
78
FC
C4
FE
C0
C0
FC
3C
ENDCHAR
STARTCHAR uni00EC
ENCODING 236
SWIDTH 286 0
DWIDTH 4 0
BBX 4 13 -1 0
BITMAP
40
60
30
00
00
30
30
30
30
30
30
30
30
ENDCHAR
STARTCHAR uni00ED
ENCODING 237
SWIDTH 286 0
DWIDTH 4 0
BBX 4 13 1 0
BITMAP
20
70
E0
00
00
C0
C0
C0
C0
C0
C0
C0
C0
ENDCHAR
STARTCHAR uni00F2
ENCODING 242
SWIDTH 643 0
DWIDTH 9 0
BBX 7 13 1 0
BITMAP
00
60
30
10
00
38
FC
C6
C6
C6
C6
FC
78
ENDCHAR
STARTCHAR uni00F3
ENCODING 243
SWIDTH 643 0
DWIDTH 9 0
BBX 7 13 1 0
BITMAP
08
0C
18
10
00
38
FC
C6
C6
C6
C6
FC
78
ENDCHAR
STARTCHAR uni00F7
ENCODING 247
SWIDTH 1000 0
DWIDTH 14 0
BBX 10 10 2 0
BITMAP
0C00
0C00
0000
0000
0000
FFC0
0000
0000
0C00
0C00
ENDCHAR
STARTCHAR uni00F9
ENCODING 249
SWIDTH 643 0
DWIDTH 9 0
BBX 7 13 1 0
BITMAP
60
60
30
10
00
C6
C6
C6
C6
C6
C6
FE
76
ENDCHAR
STARTCHAR uni00FA
ENCODING 250
SWIDTH 643 0
DWIDTH 9 0
BBX 7 13 1 0
BITMAP
08
0C
18
10
00
C6
C6
C6
C6
C6
C6
FE
76
ENDCHAR
STARTCHAR uni00FC
ENCODING 252
SWIDTH 643 0
DWIDTH 9 0
BBX 7 11 1 0
BITMAP
6C
6C
00
C6
C6
C6
C6
C6
C6
FE
76
ENDCHAR
STARTCHAR uni0101
ENCODING 257
SWIDTH 571 0
DWIDTH 8 0
BBX 6 11 1 0
BITMAP
7C
00
00
78
FC
0C
3C
EC
CC
FC
F4
ENDCHAR
STARTCHAR uni0113
ENCODING 275
SWIDTH 571 0
DWIDTH 8 0
BBX 7 11 1 0
BITMAP
7C
00
00
78
FC
C4
FE
C0
C0
FC
3C
ENDCHAR
STARTCHAR uni011B
ENCODING 283
SWIDTH 571 0
DWIDTH 8 0
BBX 7 13 1 0
BITMAP
00
6C
38
00
00
78
FC
C4
FE
C0
C0
FC
3C
ENDCHAR
STARTCHAR uni012B
ENCODING 299
SWIDTH 286 0
DWIDTH 4 0
BBX 4 11 0 0
BITMAP
F0
00
00
60
60
60
60
60
60
60
60
ENDCHAR
STARTCHAR uni014D
ENCODING 333
SWIDTH 643 0
DWIDTH 9 0
BBX 7 11 1 0
BITMAP
7C
00
00
38
FC
C6
C6
C6
C6
FC
78
ENDCHAR
STARTCHAR uni016B
ENCODING 363
SWIDTH 643 0
DWIDTH 9 0
BBX 7 11 1 0
BITMAP
7C
00
00
C6
C6
C6
C6
C6
C6
FE
76
ENDCHAR
STARTCHAR uni01CE
ENCODING 462
SWIDTH 571 0
DWIDTH 8 0
BBX 6 13 1 0
BITMAP
00
6C
38
00
00
78
FC
0C
3C
EC
CC
FC
F4
ENDCHAR
STARTCHAR uni01D0
ENCODING 464
SWIDTH 286 0
DWIDTH 4 0
BBX 6 13 -1 0
BITMAP
00
4C
78
00
00
30
30
30
30
30
30
30
30
ENDCHAR
STARTCHAR uni01D2
ENCODING 466
SWIDTH 643 0
DWIDTH 9 0
BBX 7 13 1 0
BITMAP
00
6C
38
00
00
38
FC
C6
C6
C6
C6
FC
78
ENDCHAR
STARTCHAR uni01D4
ENCODING 468
SWIDTH 643 0
DWIDTH 9 0
BBX 7 13 1 0
BITMAP
44
6C
38
00
00
C6
C6
C6
C6
C6
C6
FE
76
ENDCHAR
STARTCHAR uni01D6
ENCODING 470
SWIDTH 643 0
DWIDTH 9 0
BBX 7 13 1 0
BITMAP
7C
00
6C
4C
00
C6
C6
C6
C6
C6
C6
FE
76
ENDCHAR
STARTCHAR uni01D8
ENCODING 472
SWIDTH 643 0
DWIDTH 9 0
BBX 7 14 1 0
BITMAP
08
18
10
6C
4C
00
C6
C6
C6
C6
C6
C6
FE
76
ENDCHAR
STARTCHAR uni01DA
ENCODING 474
SWIDTH 643 0
DWIDTH 9 0
BBX 7 14 1 0
BITMAP
6C
38
00
6C
4C
00
C6
C6
C6
C6
C6
C6
FE
76
ENDCHAR
STARTCHAR uni01DC
ENCODING 476
SWIDTH 643 0
DWIDTH 9 0
BBX 7 14 1 0
BITMAP
20
30
10
6C
4C
00
C6
C6
C6
C6
C6
C6
FE
76
ENDCHAR
STARTCHAR uni02C7
ENCODING 711
SWIDTH 571 0
DWIDTH 8 0
BBX 8 6 0 5
BITMAP
63
66
3E
1C
18
00
ENDCHAR
STARTCHAR uni02C9
ENCODING 713
SWIDTH 1000 0
DWIDTH 14 0
BBX 6 1 4 9
BITMAP
FC
ENDCHAR
STARTCHAR uni0391
ENCODING 913
SWIDTH 643 0
DWIDTH 9 0
BBX 9 11 0 0
BITMAP
1C00
1C00
3400
3600
3600
2600
7F00
7F00
6300
C380
C180
ENDCHAR
STARTCHAR uni0392
ENCODING 914
SWIDTH 714 0
DWIDTH 10 0
BBX 8 11 1 0
BITMAP
FC
FE
C6
C6
FE
FE
C3
C3
C3
FF
FC
ENDCHAR
STARTCHAR uni0393
ENCODING 915
SWIDTH 571 0
DWIDTH 8 0
BBX 7 11 1 0
BITMAP
FE
FE
C0
C0
C0
C0
C0
C0
C0
C0
C0
ENDCHAR
STARTCHAR uni0394
ENCODING 916
SWIDTH 714 0
DWIDTH 10 0
BBX 8 11 1 0
BITMAP
18
3C
3C
2C
66
66
66
C3
C3
FF
FF
ENDCHAR
STARTCHAR uni0395
ENCODING 917
SWIDTH 643 0
DWIDTH 9 0
BBX 7 11 1 0
BITMAP
FE
FE
C0
C0
FC
FC
C0
C0
C0
FE
FE
ENDCHAR
STARTCHAR uni0396
ENCODING 918
SWIDTH 643 0
DWIDTH 9 0
BBX 7 11 1 0
BITMAP
FE
FE
0C
1C
18
30
30
60
E0
FE
FE
ENDCHAR
STARTCHAR uni0397
ENCODING 919
SWIDTH 786 0
DWIDTH 11 0
BBX 8 11 1 0
BITMAP
C3
C3
C3
C3
FF
FF
C3
C3
C3
C3
C3
ENDCHAR
STARTCHAR uni0398
ENCODING 920
SWIDTH 786 0
DWIDTH 11 0
BBX 9 11 1 0
BITMAP
3E00
7F00
E300
C180
DD80
DD80
C180
C180
E300
7F00
3E00
ENDCHAR
STARTCHAR uni0399
ENCODING 921
SWIDTH 357 0
DWIDTH 5 0
BBX 2 11 1 0
BITMAP
C0
C0
C0
C0
C0
C0
C0
C0
C0
C0
C0
ENDCHAR
STARTCHAR uni039A
ENCODING 922
SWIDTH 714 0
DWIDTH 10 0
BBX 9 11 1 0
BITMAP
C700
C600
CC00
DC00
D800
FC00
EC00
EE00
C600
C300
C300
ENDCHAR
STARTCHAR uni039B
ENCODING 923
SWIDTH 643 0
DWIDTH 9 0
BBX 9 11 0 0
BITMAP
1C00
1C00
3C00
3600
3600
6600
6600
6300
6300
C300
C380
ENDCHAR
STARTCHAR uni039C
ENCODING 924
SWIDTH 857 0
DWIDTH 12 0
BBX 10 11 1 0
BITMAP
E1C0
E1C0
E1C0
F3C0
F2C0
D2C0
DEC0
DCC0
CCC0
CCC0
C0C0
ENDCHAR
STARTCHAR uni039D
ENCODING 925
SWIDTH 714 0
DWIDTH 10 0
BBX 8 11 1 0
BITMAP
E3
E3
F3
F3
DB
DB
CF
CF
C7
C7
C3
ENDCHAR
STARTCHAR uni039E
ENCODING 926
SWIDTH 643 0
DWIDTH 9 0
BBX 7 11 1 0
BITMAP
FE
FE
00
00
7C
7C
00
00
00
FE
FE
ENDCHAR
STARTCHAR uni039F
ENCODING 927
SWIDTH 786 0
DWIDTH 11 0
BBX 9 11 1 0
BITMAP
3E00
7F00
E300
C180
C180
C180
C180
C180
E300
7F00
3E00
ENDCHAR
STARTCHAR uni03A0
ENCODING 928
SWIDTH 714 0
DWIDTH 10 0
BBX 8 11 1 0
BITMAP
FF
FF
C3
C3
C3
C3
C3
C3
C3
C3
C3
ENDCHAR
STARTCHAR uni03A1
ENCODING 929
SWIDTH 643 0
DWIDTH 9 0
BBX 8 11 1 0
BITMAP
FC
FE
C3
C3
C7
FE
FC
C0
C0
C0
C0
ENDCHAR
STARTCHAR uni03A3
ENCODING 931
SWIDTH 643 0
DWIDTH 9 0
BBX 7 11 1 0
BITMAP
FE
FE
60
70
30
18
30
60
60
FE
FE
ENDCHAR
STARTCHAR uni03A4
ENCODING 932
SWIDTH 643 0
DWIDTH 9 0
BBX 8 11 0 0
BITMAP
FF
FF
18
18
18
18
18
18
18
18
18
ENDCHAR
STARTCHAR uni03A5
ENCODING 933
SWIDTH 571 0
DWIDTH 8 0
BBX 8 11 0 0
BITMAP
C3
67
66
66
3C
3C
18
18
18
18
18
ENDCHAR
STARTCHAR uni03A6
ENCODING 934
SWIDTH 857 0
DWIDTH 12 0
BBX 10 11 1 0
BITMAP
0C00
1E00
7F80
EDC0
CCC0
CCC0
CCC0
EDC0
7F80
1E00
0C00
ENDCHAR
STARTCHAR uni03A7
ENCODING 935
SWIDTH 643 0
DWIDTH 9 0
BBX 9 11 0 0
BITMAP
6300
6300
3600
3600
1C00
1C00
1C00
3600
7600
6300
E300
ENDCHAR
STARTCHAR uni03A8
ENCODING 936
SWIDTH 857 0
DWIDTH 12 0
BBX 10 11 1 0
BITMAP
CCC0
CCC0
CCC0
CCC0
CDC0
7F80
3F00
0C00
0C00
0C00
0C00
ENDCHAR
STARTCHAR uni03A9
ENCODING 937
SWIDTH 786 0
DWIDTH 11 0
BBX 9 11 1 0
BITMAP
3E00
7F00
E380
C180
C180
C180
C180
C180
6300
F780
F780
ENDCHAR
STARTCHAR uni03B1
ENCODING 945
SWIDTH 643 0
DWIDTH 9 0
BBX 8 8 1 0
BITMAP
7B
FE
C6
C6
C6
CE
FF
77
ENDCHAR
STARTCHAR uni03B2
ENCODING 946
SWIDTH 643 0
DWIDTH 9 0
BBX 8 15 1 -3
BITMAP
18
7C
E6
C6
C6
DC
DE
C7
C3
C3
FE
DC
C0
C0
C0
ENDCHAR
STARTCHAR uni03B3
ENCODING 947
SWIDTH 571 0
DWIDTH 8 0
BBX 8 11 0 -3
BITMAP
C3
63
62
36
36
1C
1C
18
18
18
18
ENDCHAR
STARTCHAR uni03B4
ENCODING 948
SWIDTH 643 0
DWIDTH 9 0
BBX 7 12 1 0
BITMAP
10
7E
C0
60
30
7C
EE
C6
C6
C6
FC
78
ENDCHAR
STARTCHAR uni03B5
ENCODING 949
SWIDTH 500 0
DWIDTH 7 0
BBX 6 8 1 0
BITMAP
78
F8
C0
70
C0
C0
FC
78
ENDCHAR
STARTCHAR uni03B6
ENCODING 950
SWIDTH 500 0
DWIDTH 7 0
BBX 6 14 1 -3
BITMAP
FC
FC
38
30
60
C0
C0
C0
C0
E0
7C
1C
0C
08
ENDCHAR
STARTCHAR uni03B7
ENCODING 951
SWIDTH 643 0
DWIDTH 9 0
BBX 7 11 1 -3
BITMAP
DC
FE
E6
C6
C6
C6
C6
C6
06
06
06
ENDCHAR
STARTCHAR uni03B8
ENCODING 952
SWIDTH 643 0
DWIDTH 9 0
BBX 7 12 1 0
BITMAP
30
7C
CC
C4
C6
C6
FE
C6
C6
CC
7C
38
ENDCHAR
STARTCHAR uni03B9
ENCODING 953
SWIDTH 357 0
DWIDTH 5 0
BBX 3 8 1 0
BITMAP
C0
C0
C0
C0
C0
C0
E0
60
ENDCHAR
STARTCHAR uni03BA
ENCODING 954
SWIDTH 571 0
DWIDTH 8 0
BBX 8 8 1 0
BITMAP
C6
CE
DC
F0
F8
CC
CC
C6
ENDCHAR
STARTCHAR uni03BB
ENCODING 955
SWIDTH 643 0
DWIDTH 9 0
BBX 8 12 0 0
BITMAP
60
78
18
0C
1C
1C
36
36
36
63
63
E3
ENDCHAR
STARTCHAR uni03BC
ENCODING 956
SWIDTH 643 0
DWIDTH 9 0
BBX 8 11 1 -3
BITMAP
C6
C6
C6
C6
C6
C6
FF
F7
C0
C0
C0
ENDCHAR
STARTCHAR uni03BD
ENCODING 957
SWIDTH 571 0
DWIDTH 8 0
BBX 8 8 0 0
BITMAP
C3
63
66
36
36
3C
1C
18
ENDCHAR
STARTCHAR uni03BE
ENCODING 958
SWIDTH 500 0
DWIDTH 7 0
BBX 7 14 0 -3
BITMAP
FE
FE
30
70
30
3C
60
60
60
78
3E
06
06
04
ENDCHAR
STARTCHAR uni03BF
ENCODING 959
SWIDTH 643 0
DWIDTH 9 0
BBX 7 8 1 0
BITMAP
78
FC
C6
C6
C6
C6
FC
78
ENDCHAR
STARTCHAR uni03C0
ENCODING 960
SWIDTH 714 0
DWIDTH 10 0
BBX 10 8 0 0
BITMAP
FFC0
FFC0
3300
3300
3300
3300
3380
3180
ENDCHAR
STARTCHAR uni03C1
ENCODING 961
SWIDTH 643 0
DWIDTH 9 0
BBX 7 11 1 -3
BITMAP
3C
7E
C6
C6
C6
C6
FE
FC
C0
C0
C0
ENDCHAR
STARTCHAR uni03C3
ENCODING 963
SWIDTH 643 0
DWIDTH 9 0
BBX 8 8 1 0
BITMAP
7F
FF
C4
C6
C6
C6
FC
78
ENDCHAR
STARTCHAR uni03C4
ENCODING 964
SWIDTH 571 0
DWIDTH 8 0
BBX 7 8 0 0
BITMAP
FE
FE
18
18
18
18
1C
1C
ENDCHAR
STARTCHAR uni03C5
ENCODING 965
SWIDTH 571 0
DWIDTH 8 0
BBX 7 8 1 0
BITMAP
CC
CC
CE
C6
C6
CC
FC
78
ENDCHAR
STARTCHAR uni03C6
ENCODING 966
SWIDTH 786 0
DWIDTH 11 0
BBX 10 13 1 -3
BITMAP
0C00
0C00
3F00
7F80
CDC0
CCC0
CCC0
CDC0
FF80
3F00
0C00
0C00
0C00
ENDCHAR
STARTCHAR uni03C7
ENCODING 967
SWIDTH 571 0
DWIDTH 8 0
BBX 8 11 0 -3
BITMAP
C3
66
76
3C
1C
18
3C
3E
66
63
C3
ENDCHAR
STARTCHAR uni03C8
ENCODING 968
SWIDTH 857 0
DWIDTH 12 0
BBX 10 13 1 -3
BITMAP
0C00
0C00
CD80
CCC0
CCC0
CCC0
CCC0
CDC0
7F80
3F00
0C00
0C00
0C00
ENDCHAR
STARTCHAR uni03C9
ENCODING 969
SWIDTH 857 0
DWIDTH 12 0
BBX 10 8 1 0
BITMAP
4180
C1C0
C0C0
CCC0
CCC0
CCC0
FF80
7380
ENDCHAR
STARTCHAR uni0401
ENCODING 1025
SWIDTH 643 0
DWIDTH 9 0
BBX 7 14 1 0
BITMAP
6C
6C
00
FE
FE
C0
C0
FC
FC
C0
C0
C0
FE
FE
ENDCHAR
STARTCHAR uni0410
ENCODING 1040
SWIDTH 643 0
DWIDTH 9 0
BBX 9 11 0 0
BITMAP
1C00
1C00
3400
3600
3600
2600
7F00
7F00
6300
C380
C180
ENDCHAR
STARTCHAR uni0411
ENCODING 1041
SWIDTH 643 0
DWIDTH 9 0
BBX 8 11 1 0
BITMAP
FE
FE
C0
C0
F8
FE
C7
C3
C3
FE
FC
ENDCHAR
STARTCHAR uni0412
ENCODING 1042
SWIDTH 714 0
DWIDTH 10 0
BBX 8 11 1 0
BITMAP
FC
FE
C6
C6
FE
FE
C3
C3
C3
FF
FC
ENDCHAR
STARTCHAR uni0413
ENCODING 1043
SWIDTH 571 0
DWIDTH 8 0
BBX 7 11 1 0
BITMAP
FE
FE
C0
C0
C0
C0
C0
C0
C0
C0
C0
ENDCHAR
STARTCHAR uni0414
ENCODING 1044
SWIDTH 786 0
DWIDTH 11 0
BBX 10 14 0 -3
BITMAP
1F80
1F80
1980
1180
3180
3180
3180
3180
6180
FFC0
FFC0
C0C0
C0C0
C0C0
ENDCHAR
STARTCHAR uni0415
ENCODING 1045
SWIDTH 643 0
DWIDTH 9 0
BBX 7 11 1 0
BITMAP
FE
FE
C0
C0
FC
FC
C0
C0
C0
FE
FE
ENDCHAR
STARTCHAR uni0416
ENCODING 1046
SWIDTH 1000 0
DWIDTH 14 0
BBX 13 11 0 0
BITMAP
E318
E338
3330
3360
1FE0
1FE0
3360
3330
6330
6318
E318
ENDCHAR
STARTCHAR uni0417
ENCODING 1047
SWIDTH 643 0
DWIDTH 9 0
BBX 7 11 1 0
BITMAP
7C
FE
06
06
3C
3C
06
06
86
FE
7C
ENDCHAR
STARTCHAR uni0418
ENCODING 1048
SWIDTH 786 0
DWIDTH 11 0
BBX 8 11 1 0
BITMAP
C3
C7
C7
CD
CF
DB
DB
F3
F3
E3
E3
ENDCHAR
STARTCHAR uni0419
ENCODING 1049
SWIDTH 786 0
DWIDTH 11 0
BBX 8 14 1 0
BITMAP
36
3C
00
C3
C7
C7
CD
CF
DB
DB
F3
F3
E3
E3
ENDCHAR
STARTCHAR uni041A
ENCODING 1050
SWIDTH 714 0
DWIDTH 10 0
BBX 9 11 1 0
BITMAP
C300
C700
C600
CC00
FC00
FC00
CC00
C600
C600
C300
C300
ENDCHAR
STARTCHAR uni041B
ENCODING 1051
SWIDTH 714 0
DWIDTH 10 0
BBX 9 11 0 0
BITMAP
1F80
1F80
1980
1980
3180
3180
3180
3180
7180
E180
E180
ENDCHAR
STARTCHAR uni041C
ENCODING 1052
SWIDTH 857 0
DWIDTH 12 0
BBX 10 11 1 0
BITMAP
E1C0
E1C0
E1C0
F3C0
F2C0
D2C0
DEC0
DCC0
CCC0
CCC0
C0C0
ENDCHAR
STARTCHAR uni041D
ENCODING 1053
SWIDTH 786 0
DWIDTH 11 0
BBX 8 11 1 0
BITMAP
C3
C3
C3
C3
FF
FF
C3
C3
C3
C3
C3
ENDCHAR
STARTCHAR uni041E
ENCODING 1054
SWIDTH 786 0
DWIDTH 11 0
BBX 9 11 1 0
BITMAP
3E00
7F00
E300
C180
C180
C180
C180
C180
E300
7F00
3E00
ENDCHAR
STARTCHAR uni041F
ENCODING 1055
SWIDTH 714 0
DWIDTH 10 0
BBX 8 11 1 0
BITMAP
FF
FF
C3
C3
C3
C3
C3
C3
C3
C3
C3
ENDCHAR
STARTCHAR uni0420
ENCODING 1056
SWIDTH 643 0
DWIDTH 9 0
BBX 8 11 1 0
BITMAP
FC
FE
C3
C3
C7
FE
FC
C0
C0
C0
C0
ENDCHAR
STARTCHAR uni0421
ENCODING 1057
SWIDTH 643 0
DWIDTH 9 0
BBX 8 11 1 0
BITMAP
3E
7E
E2
C0
C0
C0
C0
C0
E2
7F
3E
ENDCHAR
STARTCHAR uni0422
ENCODING 1058
SWIDTH 643 0
DWIDTH 9 0
BBX 8 11 0 0
BITMAP
FF
FF
18
18
18
18
18
18
18
18
18
ENDCHAR
STARTCHAR uni0423
ENCODING 1059
SWIDTH 643 0
DWIDTH 9 0
BBX 9 11 0 0
BITMAP
C300
6300
6300
3600
3600
3600
1C00
1C00
1800
7800
7000
ENDCHAR
STARTCHAR uni0424
ENCODING 1060
SWIDTH 857 0
DWIDTH 12 0
BBX 10 11 1 0
BITMAP
0C00
0C00
7F80
EDC0
CCC0
CCC0
CCC0
CDC0
7F80
0C00
0C00
ENDCHAR
STARTCHAR uni0425
ENCODING 1061
SWIDTH 643 0
DWIDTH 9 0
BBX 9 11 0 0
BITMAP
6300
6300
3600
3600
1C00
1C00
1C00
3600
7600
6300
E300
ENDCHAR
STARTCHAR uni0426
ENCODING 1062
SWIDTH 786 0
DWIDTH 11 0
BBX 9 14 1 -3
BITMAP
C300
C300
C300
C300
C300
C300
C300
C300
C300
FF80
FF80
0180
0180
0180
ENDCHAR
STARTCHAR uni0427
ENCODING 1063
SWIDTH 714 0
DWIDTH 10 0
BBX 8 11 1 0
BITMAP
C3
C3
C3
C3
C3
FF
7F
03
03
03
03
ENDCHAR
STARTCHAR uni0428
ENCODING 1064
SWIDTH 1000 0
DWIDTH 14 0
BBX 12 11 1 0
BITMAP
C630
C630
C630
C630
C630
C630
C630
C630
C630
FFF0
FFF0
ENDCHAR
STARTCHAR uni0429
ENCODING 1065
SWIDTH 1000 0
DWIDTH 14 0
BBX 13 14 1 -3
BITMAP
C630
C630
C630
C630
C630
C630
C630
C630
C630
FFF8
FFF8
0018
0018
0018
ENDCHAR
STARTCHAR uni042A
ENCODING 1066
SWIDTH 857 0
DWIDTH 12 0
BBX 11 11 0 0
BITMAP
FC00
FC00
0C00
0C00
0F00
0FC0
0CE0
0C60
0C60
0FC0
0F80
ENDCHAR
STARTCHAR uni042B
ENCODING 1067
SWIDTH 929 0
DWIDTH 13 0
BBX 11 11 1 0
BITMAP
C060
C060
C060
C060
F860
FE60
C660
C760
C660
FE60
FC60
ENDCHAR
STARTCHAR uni042C
ENCODING 1068
SWIDTH 643 0
DWIDTH 9 0
BBX 8 11 1 0
BITMAP
C0
C0
C0
C0
F8
FE
C7
C3
C3
FE
FC
ENDCHAR
STARTCHAR uni042D
ENCODING 1069
SWIDTH 643 0
DWIDTH 9 0
BBX 8 11 0 0
BITMAP
3C
7E
03
03
1F
1F
03
03
43
FE
3C
ENDCHAR
STARTCHAR uni042E
ENCODING 1070
SWIDTH 1071 0
DWIDTH 15 0
BBX 13 11 1 0
BITMAP
C1E0
C7F0
C638
CE18
FC18
FC18
CC18
CE18
C638
C7F0
C1E0
ENDCHAR
STARTCHAR uni042F
ENCODING 1071
SWIDTH 714 0
DWIDTH 10 0
BBX 8 11 0 0
BITMAP
3F
7F
63
63
63
3F
1F
33
33
63
63
ENDCHAR
STARTCHAR uni0430
ENCODING 1072
SWIDTH 571 0
DWIDTH 8 0
BBX 6 8 1 0
BITMAP
78
FC
0C
3C
EC
CC
FC
F4
ENDCHAR
STARTCHAR uni0431
ENCODING 1073
SWIDTH 643 0
DWIDTH 9 0
BBX 7 12 1 0
BITMAP
00
3E
7C
C0
C0
FC
C6
C6
C6
C6
7C
38
ENDCHAR
STARTCHAR uni0432
ENCODING 1074
SWIDTH 571 0
DWIDTH 8 0
BBX 7 8 1 0
BITMAP
FC
CC
CC
F8
CC
C6
CE
FC
ENDCHAR
STARTCHAR uni0433
ENCODING 1075
SWIDTH 500 0
DWIDTH 7 0
BBX 5 8 1 0
BITMAP
F8
F8
C0
C0
C0
C0
C0
C0
ENDCHAR
STARTCHAR uni0434
ENCODING 1076
SWIDTH 643 0
DWIDTH 9 0
BBX 9 11 0 -3
BITMAP
3F00
3F00
3300
2300
6300
6300
FF80
FF80
C180
C180
C180
ENDCHAR
STARTCHAR uni0435
ENCODING 1077
SWIDTH 571 0
DWIDTH 8 0
BBX 7 8 1 0
BITMAP
78
FC
C4
FE
C0
C0
FC
3C
ENDCHAR
STARTCHAR uni0436
ENCODING 1078
SWIDTH 857 0
DWIDTH 12 0
BBX 12 8 0 0
BITMAP
6660
66E0
36C0
3F80
3FC0
36C0
6660
E660
ENDCHAR
STARTCHAR uni0437
ENCODING 1079
SWIDTH 500 0
DWIDTH 7 0
BBX 7 8 0 0
BITMAP
7C
7E
06
3C
0E
06
7E
7C
ENDCHAR
STARTCHAR uni0438
ENCODING 1080
SWIDTH 643 0
DWIDTH 9 0
BBX 7 8 1 0
BITMAP
C6
CE
CE
DE
F6
F6
E6
C6
ENDCHAR
STARTCHAR uni0439
ENCODING 1081
SWIDTH 643 0
DWIDTH 9 0
BBX 7 12 1 0
BITMAP
64
6C
38
00
C6
CE
CE
DE
F6
F6
E6
C6
ENDCHAR
STARTCHAR uni043A
ENCODING 1082
SWIDTH 571 0
DWIDTH 8 0
BBX 7 8 1 0
BITMAP
C6
CE
D8
F8
F8
CC
CC
C6
ENDCHAR
STARTCHAR uni043B
ENCODING 1083
SWIDTH 643 0
DWIDTH 9 0
BBX 8 8 0 0
BITMAP
3F
3F
33
33
33
23
E3
C3
ENDCHAR
STARTCHAR uni043C
ENCODING 1084
SWIDTH 714 0
DWIDTH 10 0
BBX 8 8 1 0
BITMAP
E3
E7
E5
F5
FF
DB
DB
C3
ENDCHAR
STARTCHAR uni043D
ENCODING 1085
SWIDTH 643 0
DWIDTH 9 0
BBX 7 8 1 0
BITMAP
C6
C6
C6
FE
FE
C6
C6
C6
ENDCHAR
STARTCHAR uni043E
ENCODING 1086
SWIDTH 643 0
DWIDTH 9 0
BBX 7 8 1 0
BITMAP
38
FC
C6
C6
C6
C6
FC
78
ENDCHAR
STARTCHAR uni043F
ENCODING 1087
SWIDTH 643 0
DWIDTH 9 0
BBX 7 8 1 0
BITMAP
FE
FE
C6
C6
C6
C6
C6
C6
ENDCHAR
STARTCHAR uni0440
ENCODING 1088
SWIDTH 643 0
DWIDTH 9 0
BBX 7 11 1 -3
BITMAP
DC
FE
C6
C6
C6
C6
FE
DC
C0
C0
C0
ENDCHAR
STARTCHAR uni0441
ENCODING 1089
SWIDTH 500 0
DWIDTH 7 0
BBX 6 8 1 0
BITMAP
38
F8
C0
C0
C0
C0
FC
78
ENDCHAR
STARTCHAR uni0442
ENCODING 1090
SWIDTH 571 0
DWIDTH 8 0
BBX 7 8 0 0
BITMAP
FE
FE
18
18
18
18
18
18
ENDCHAR
STARTCHAR uni0443
ENCODING 1091
SWIDTH 571 0
DWIDTH 8 0
BBX 8 11 0 -3
BITMAP
C3
66
66
26
34
3C
1C
18
18
70
70
ENDCHAR
STARTCHAR uni0444
ENCODING 1092
SWIDTH 857 0
DWIDTH 12 0
BBX 11 14 1 -3
BITMAP
0C00
0C00
0C00
7F80
FFC0
CCC0
CCE0
CCC0
CCC0
FFC0
7F80
0C00
0C00
0C00
ENDCHAR
STARTCHAR uni0445
ENCODING 1093
SWIDTH 571 0
DWIDTH 8 0
BBX 8 8 0 0
BITMAP
66
66
3C
3C
38
3C
66
66
ENDCHAR
STARTCHAR uni0446
ENCODING 1094
SWIDTH 643 0
DWIDTH 9 0
BBX 8 11 1 -3
BITMAP
C6
C6
C6
C6
C6
C6
FF
FF
03
03
03
ENDCHAR
STARTCHAR uni0447
ENCODING 1095
SWIDTH 643 0
DWIDTH 9 0
BBX 6 8 1 0
BITMAP
CC
CC
CC
FC
7C
0C
0C
0C
ENDCHAR
STARTCHAR uni0448
ENCODING 1096
SWIDTH 929 0
DWIDTH 13 0
BBX 10 8 1 0
BITMAP
CCC0
CCC0
CCC0
CCC0
CCC0
CCC0
FFC0
FFC0
ENDCHAR
STARTCHAR uni0449
ENCODING 1097
SWIDTH 929 0
DWIDTH 13 0
BBX 12 11 1 -3
BITMAP
CCC0
CCC0
CCC0
CCC0
CCC0
CCC0
FFF0
FFF0
0030
0030
0020
ENDCHAR
STARTCHAR uni044A
ENCODING 1098
SWIDTH 714 0
DWIDTH 10 0
BBX 9 8 0 0
BITMAP
F800
F800
1C00
1F80
1980
1980
1F80
1F00
ENDCHAR
STARTCHAR uni044B
ENCODING 1099
SWIDTH 786 0
DWIDTH 11 0
BBX 9 8 1 0
BITMAP
C180
C180
E180
FD80
CD80
CD80
FD80
F980
ENDCHAR
STARTCHAR uni044C
ENCODING 1100
SWIDTH 571 0
DWIDTH 8 0
BBX 6 8 1 0
BITMAP
C0
C0
F0
FC
CC
CC
FC
F8
ENDCHAR
STARTCHAR uni044D
ENCODING 1101
SWIDTH 500 0
DWIDTH 7 0
BBX 7 8 0 0
BITMAP
78
7C
06
3E
06
0E
7C
78
ENDCHAR
STARTCHAR uni044E
ENCODING 1102
SWIDTH 857 0
DWIDTH 12 0
BBX 11 8 1 0
BITMAP
C780
CFC0
CCC0
F8E0
F8E0
CCC0
CFC0
C780
ENDCHAR
STARTCHAR uni044F
ENCODING 1103
SWIDTH 643 0
DWIDTH 9 0
BBX 7 8 0 0
BITMAP
3E
7E
66
66
3E
36
76
66
ENDCHAR
STARTCHAR uni0451
ENCODING 1105
SWIDTH 571 0
DWIDTH 8 0
BBX 7 11 1 0
BITMAP
4C
4C
00
78
FC
C4
FE
C0
C0
FC
3C
ENDCHAR
STARTCHAR uni2015
ENCODING 8213
SWIDTH 1000 0
DWIDTH 14 0
BBX 12 1 1 4
BITMAP
FFF0
ENDCHAR
STARTCHAR uni2016
ENCODING 8214
SWIDTH 1000 0
DWIDTH 14 0
BBX 2 14 6 -2
BITMAP
C0
C0
C0
C0
C0
C0
C0
C0
C0
C0
C0
C0
C0
C0
ENDCHAR
STARTCHAR uni2018
ENCODING 8216
SWIDTH 1000 0
DWIDTH 14 0
BBX 3 4 11 8
BITMAP
60
80
C0
C0
ENDCHAR
STARTCHAR uni2019
ENCODING 8217
SWIDTH 1000 0
DWIDTH 14 0
BBX 3 5 0 7
BITMAP
60
60
20
40
00
ENDCHAR
STARTCHAR uni201C
ENCODING 8220
SWIDTH 1000 0
DWIDTH 14 0
BBX 6 4 8 8
BITMAP
6C
48
FC
6C
ENDCHAR
STARTCHAR uni201D
ENCODING 8221
SWIDTH 1000 0
DWIDTH 14 0
BBX 6 5 0 7
BITMAP
58
FC
28
48
00
ENDCHAR
STARTCHAR uni2026
ENCODING 8230
SWIDTH 1000 0
DWIDTH 14 0
BBX 12 2 1 4
BITMAP
C630
C630
ENDCHAR
STARTCHAR uni2030
ENCODING 8240
SWIDTH 1000 0
DWIDTH 14 0
BBX 14 12 0 -1
BITMAP
6100
5200
D200
D400
D400
5718
6AA8
0AAC
12AC
12AC
22A8
2318
ENDCHAR
STARTCHAR uni2032
ENCODING 8242
SWIDTH 357 0
DWIDTH 5 0
BBX 3 5 1 6
BITMAP
60
40
C0
C0
00
ENDCHAR
STARTCHAR uni2033
ENCODING 8243
SWIDTH 571 0
DWIDTH 8 0
BBX 6 5 1 6
BITMAP
6C
4C
CC
C8
00
ENDCHAR
STARTCHAR uni203B
ENCODING 8251
SWIDTH 1000 0
DWIDTH 14 0
BBX 10 10 2 0
BITMAP
8C40
4C80
2100
1200
CCC0
CCC0
1200
2100
4C80
8C40
ENDCHAR
STARTCHAR uni2103
ENCODING 8451
SWIDTH 1000 0
DWIDTH 14 0
BBX 14 12 0 -1
BITMAP
7070
59F8
C988
5B00
7300
0300
0300
0300
0300
0388
01F8
0070
ENDCHAR
STARTCHAR uni2116
ENCODING 8470
SWIDTH 1071 0
DWIDTH 15 0
BBX 14 11 1 0
BITMAP
0300
E338
E26C
F24C
D24C
DA78
DA00
CA00
CE78
C600
C600
ENDCHAR
STARTCHAR uni2160
ENCODING 8544
SWIDTH 1000 0
DWIDTH 14 0
BBX 2 11 6 0
BITMAP
C0
C0
C0
C0
C0
C0
C0
C0
C0
C0
C0
ENDCHAR
STARTCHAR uni2161
ENCODING 8545
SWIDTH 1000 0
DWIDTH 14 0
BBX 6 11 4 0
BITMAP
CC
CC
CC
CC
CC
CC
CC
CC
CC
CC
CC
ENDCHAR
STARTCHAR uni2162
ENCODING 8546
SWIDTH 1000 0
DWIDTH 14 0
BBX 12 11 1 0
BITMAP
C630
C630
C630
C630
C630
C630
C630
C630
C630
C630
C630
ENDCHAR
STARTCHAR uni2163
ENCODING 8547
SWIDTH 1000 0
DWIDTH 14 0
BBX 12 11 2 0
BITMAP
D830
D860
CC60
CC60
CC40
CCC0
C6C0
C6C0
C680
C380
C380
ENDCHAR
STARTCHAR uni2164
ENCODING 8548
SWIDTH 1000 0
DWIDTH 14 0
BBX 8 11 3 0
BITMAP
C3
C3
C3
66
66
66
66
3C
3C
3C
18
ENDCHAR
STARTCHAR uni2165
ENCODING 8549
SWIDTH 1000 0
DWIDTH 14 0
BBX 12 11 0 0
BITMAP
E1B0
61B0
6330
6330
3330
3330
3630
3630
1E30
1C30
1C30
ENDCHAR
STARTCHAR uni2166
ENCODING 8550
SWIDTH 1000 0
DWIDTH 14 0
BBX 13 11 0 0
BITMAP
C6D8
E6D8
66D8
66D8
64D8
6CD8
2CD8
3CD8
3CD8
38D8
38D8
ENDCHAR
STARTCHAR uni2167
ENCODING 8551
SWIDTH 1000 0
DWIDTH 14 0
BBX 13 11 0 0
BITMAP
CD68
CD68
4968
4968
4968
6968
7968
7968
3168
3168
3168
ENDCHAR
STARTCHAR uni2168
ENCODING 8552
SWIDTH 1000 0
DWIDTH 14 0
BBX 12 11 2 0
BITMAP
CC60
CCE0
C6C0
C6C0
C380
C380
C780
C6C0
CCC0
CCE0
DC60
ENDCHAR
STARTCHAR uni2169
ENCODING 8553
SWIDTH 1000 0
DWIDTH 14 0
BBX 8 11 3 0
BITMAP
C3
66
66
3C
3C
18
3C
3C
66
66
C3
ENDCHAR
STARTCHAR uni216A
ENCODING 8554
SWIDTH 1000 0
DWIDTH 14 0
BBX 12 11 0 0
BITMAP
6330
7330
3630
3E30
1C30
1C30
1E30
3630
3730
6330
63B0
ENDCHAR
STARTCHAR uni216B
ENCODING 8555
SWIDTH 1000 0
DWIDTH 14 0
BBX 13 11 0 0
BITMAP
C6D8
64D8
6CD8
3CD8
38D8
18D8
38D8
2CD8
6CD8
66D8
C6D8
ENDCHAR
STARTCHAR uni2190
ENCODING 8592
SWIDTH 1000 0
DWIDTH 14 0
BBX 13 7 0 1
BITMAP
1800
1800
3000
7FF8
3000
1800
0800
ENDCHAR
STARTCHAR uni2191
ENCODING 8593
SWIDTH 1000 0
DWIDTH 14 0
BBX 6 13 4 -1
BITMAP
00
30
78
FC
B4
30
30
30
30
30
30
30
30
ENDCHAR
STARTCHAR uni2192
ENCODING 8594
SWIDTH 1000 0
DWIDTH 14 0
BBX 13 7 1 1
BITMAP
00C0
00C0
0060
FFF0
0060
00C0
0080
ENDCHAR
STARTCHAR uni2193
ENCODING 8595
SWIDTH 1000 0
DWIDTH 14 0
BBX 6 13 4 -2
BITMAP
30
30
30
30
30
30
30
30
B4
FC
78
30
00
ENDCHAR
STARTCHAR uni2208
ENCODING 8712
SWIDTH 1000 0
DWIDTH 14 0
BBX 10 10 2 0
BITMAP
3FC0
7000
C000
C000
8000
FFC0
8000
C000
7000
3FC0
ENDCHAR
STARTCHAR uni220F
ENCODING 8719
SWIDTH 1000 0
DWIDTH 14 0
BBX 8 13 3 -3
BITMAP
FF
FF
C3
C3
C3
C3
C3
C3
C3
C3
C3
C3
C3
ENDCHAR
STARTCHAR uni2211
ENCODING 8721
SWIDTH 1000 0
DWIDTH 14 0
BBX 8 11 3 -1
BITMAP
FF
FF
60
30
18
18
30
70
60
FF
FF
ENDCHAR
STARTCHAR uni221A
ENCODING 8730
SWIDTH 1000 0
DWIDTH 14 0
BBX 14 14 0 -2
BITMAP
00FC
0100
0100
0200
0200
0200
0400
0400
2400
2800
E800
3800
1000
1000
ENDCHAR
STARTCHAR uni221D
ENCODING 8733
SWIDTH 1000 0
DWIDTH 14 0
BBX 12 6 0 2
BITMAP
3870
6FD0
C300
C300
6FC0
3870
ENDCHAR
STARTCHAR uni221E
ENCODING 8734
SWIDTH 1000 0
DWIDTH 14 0
BBX 14 6 0 2
BITMAP
3870
6FD8
C30C
C30C
6FD8
3870
ENDCHAR
STARTCHAR uni2220
ENCODING 8736
SWIDTH 1000 0
DWIDTH 14 0
BBX 11 10 1 0
BITMAP
0040
0060
00C0
0180
0300
0600
0C00
1800
3000
7FE0
ENDCHAR
STARTCHAR uni2225
ENCODING 8741
SWIDTH 1000 0
DWIDTH 14 0
BBX 8 11 3 -1
BITMAP
08
18
11
33
22
66
44
CC
88
18
10
ENDCHAR
STARTCHAR uni2227
ENCODING 8743
SWIDTH 1000 0
DWIDTH 14 0
BBX 10 11 2 0
BITMAP
0800
0C00
0C00
1E00
1200
3300
2100
6180
4080
C0C0
8040
ENDCHAR
STARTCHAR uni2228
ENCODING 8744
SWIDTH 1000 0
DWIDTH 14 0
BBX 10 11 2 -1
BITMAP
8040
C0C0
4080
6180
2100
3300
1200
1E00
0C00
0C00
0800
ENDCHAR
STARTCHAR uni2229
ENCODING 8745
SWIDTH 1000 0
DWIDTH 14 0
BBX 10 11 2 -1
BITMAP
3F00
6180
4080
4080
C0C0
C0C0
C0C0
C0C0
C0C0
C0C0
C0C0
ENDCHAR
STARTCHAR uni222A
ENCODING 8746
SWIDTH 1000 0
DWIDTH 14 0
BBX 10 11 2 0
BITMAP
C0C0
C0C0
C0C0
C0C0
C0C0
C0C0
C0C0
4080
4080
6180
3F00
ENDCHAR
STARTCHAR uni222B
ENCODING 8747
SWIDTH 1000 0
DWIDTH 14 0
BBX 6 14 4 -2
BITMAP
1C
3C
30
30
30
30
30
30
30
30
30
30
E0
E0
ENDCHAR
STARTCHAR uni222E
ENCODING 8750
SWIDTH 1000 0
DWIDTH 14 0
BBX 6 14 4 -2
BITMAP
1C
3C
30
30
30
78
B4
B4
78
30
30
30
E0
E0
ENDCHAR
STARTCHAR uni2234
ENCODING 8756
SWIDTH 1000 0
DWIDTH 14 0
BBX 10 8 2 1
BITMAP
0C00
0C00
0000
0000
0000
0000
6180
E1C0
ENDCHAR
STARTCHAR uni2235
ENCODING 8757
SWIDTH 1000 0
DWIDTH 14 0
BBX 10 8 2 1
BITMAP
E1C0
6180
0000
0000
0000
0000
0C00
0C00
ENDCHAR
STARTCHAR uni2236
ENCODING 8758
SWIDTH 1000 0
DWIDTH 14 0
BBX 2 8 6 1
BITMAP
C0
C0
00
00
00
00
C0
C0
ENDCHAR
STARTCHAR uni2237
ENCODING 8759
SWIDTH 1000 0
DWIDTH 14 0
BBX 10 8 2 1
BITMAP
E1C0
6180
0000
0000
0000
0000
6180
E1C0
ENDCHAR
STARTCHAR uni223D
ENCODING 8765
SWIDTH 1000 0
DWIDTH 14 0
BBX 14 6 0 2
BITMAP
3870
61D8
C30C
C30C
6E18
3870
ENDCHAR
STARTCHAR uni2248
ENCODING 8776
SWIDTH 1000 0
DWIDTH 14 0
BBX 10 7 2 1
BITMAP
78C0
CF80
0780
0000
78C0
CF80
0780
ENDCHAR
STARTCHAR uni224C
ENCODING 8780
SWIDTH 1000 0
DWIDTH 14 0
BBX 14 12 0 -1
BITMAP
3870
61D8
C18C
C30C
4608
7C38
0000
0000
3FF0
0000
0000
3FF0
ENDCHAR
STARTCHAR uni2260
ENCODING 8800
SWIDTH 1000 0
DWIDTH 14 0
BBX 10 10 2 0
BITMAP
0200
0600
0600
FFC0
0C00
0C00
FFC0
1800
1800
1000
ENDCHAR
STARTCHAR uni2261
ENCODING 8801
SWIDTH 1000 0
DWIDTH 14 0
BBX 10 8 2 1
BITMAP
FFC0
0000
0000
0000
FFC0
0000
0000
FFC0
ENDCHAR
STARTCHAR uni2264
ENCODING 8804
SWIDTH 1000 0
DWIDTH 14 0
BBX 11 12 1 -1
BITMAP
0020
01E0
0700
3C00
7800
1E00
03C0
F0E0
1C00
0780
00E0
0020
ENDCHAR
STARTCHAR uni2265
ENCODING 8805
SWIDTH 1000 0
DWIDTH 14 0
BBX 11 12 2 -1
BITMAP
8000
F000
1C00
0780
03C0
0F00
7800
E1E0
0700
3C00
E000
8000
ENDCHAR
STARTCHAR uni226E
ENCODING 8814
SWIDTH 1000 0
DWIDTH 14 0
BBX 11 12 1 -1
BITMAP
0200
0260
03C0
0700
1E00
7200
7200
1E00
0700
03C0
0260
0220
ENDCHAR
STARTCHAR uni226F
ENCODING 8815
SWIDTH 1000 0
DWIDTH 14 0
BBX 11 12 2 -1
BITMAP
0800
C800
7800
1C00
0F00
09C0
09C0
0F00
1C00
7800
C800
8800
ENDCHAR
STARTCHAR uni2299
ENCODING 8857
SWIDTH 1000 0
DWIDTH 14 0
BBX 10 10 2 0
BITMAP
3F00
6180
C0C0
C0C0
8C40
8C40
80C0
C0C0
6180
3F00
ENDCHAR
STARTCHAR uni22A5
ENCODING 8869
SWIDTH 1000 0
DWIDTH 14 0
BBX 12 10 1 0
BITMAP
0600
0600
0600
0600
0600
0600
0600
0600
0600
FFF0
ENDCHAR
STARTCHAR uni2312
ENCODING 8978
SWIDTH 1000 0
DWIDTH 14 0
BBX 14 4 0 8
BITMAP
0FC0
3FF0
6018
4008
ENDCHAR
STARTCHAR uni2460
ENCODING 9312
SWIDTH 1000 0
DWIDTH 14 0
BBX 14 14 0 -2
BITMAP
0780
1860
2010
4308
8708
8308
8304
8304
8308
8308
4308
2010
1020
0FC0
ENDCHAR
STARTCHAR uni2461
ENCODING 9313
SWIDTH 1000 0
DWIDTH 14 0
BBX 14 14 0 -2
BITMAP
0780
1860
2010
4788
8588
80C8
8084
8184
8308
8608
4FC8
2010
1020
0FC0
ENDCHAR
STARTCHAR uni2462
ENCODING 9314
SWIDTH 1000 0
DWIDTH 14 0
BBX 14 14 0 -2
BITMAP
0780
1860
2010
4788
8588
8088
8304
81C4
80C8
8DC8
4788
2010
1020
0FC0
ENDCHAR
STARTCHAR uni2463
ENCODING 9315
SWIDTH 1000 0
DWIDTH 14 0
BBX 14 14 0 -2
BITMAP
0780
1860
2010
4388
8388
8788
8D84
8984
8FC8
8188
4188
2010
1020
0FC0
ENDCHAR
STARTCHAR uni2464
ENCODING 9316
SWIDTH 1000 0
DWIDTH 14 0
BBX 14 14 0 -2
BITMAP
0780
1860
2010
47C8
8408
8408
8784
80C4
80C8
8DC8
4788
2010
1020
0FC0
ENDCHAR
STARTCHAR uni2465
ENCODING 9317
SWIDTH 1000 0
DWIDTH 14 0
BBX 14 14 0 -2
BITMAP
0780
1860
2010
4388
8688
8C08
8F84
8CC4
8CC8
8CC8
4788
2010
1020
0FC0
ENDCHAR
STARTCHAR uni2466
ENCODING 9318
SWIDTH 1000 0
DWIDTH 14 0
BBX 14 14 0 -2
BITMAP
0780
1860
2010
4FC8
8088
8188
8104
8304
8308
8308
4308
2010
1020
0FC0
ENDCHAR
STARTCHAR uni2467
ENCODING 9319
SWIDTH 1000 0
DWIDTH 14 0
BBX 14 14 0 -2
BITMAP
0780
1860
2010
4788
8C88
8488
8784
8584
8CC8
8CC8
4788
2010
1020
0FC0
ENDCHAR
STARTCHAR uni2468
ENCODING 9320
SWIDTH 1000 0
DWIDTH 14 0
BBX 14 14 0 -2
BITMAP
0780
1860
2010
4788
8CC8
8CC8
8CC4
87C4
80C8
8588
4708
2010
1020
0FC0
ENDCHAR
STARTCHAR uni2469
ENCODING 9321
SWIDTH 1000 0
DWIDTH 14 0
BBX 14 14 0 -2
BITMAP
0780
1860
2010
58C8
99E8
8928
8924
8924
8928
89E8
48C8
2010
1020
0FC0
ENDCHAR
STARTCHAR uni2474
ENCODING 9332
SWIDTH 1000 0
DWIDTH 14 0
BBX 14 14 0 -2
BITMAP
2010
4008
4308
4708
4308
C30C
C30C
C30C
C30C
4308
4308
4FC8
4FC8
2010
ENDCHAR
STARTCHAR uni2475
ENCODING 9333
SWIDTH 1000 0
DWIDTH 14 0
BBX 14 14 0 -2
BITMAP
2010
4308
4F88
48C8
40C8
C0CC
C0CC
C18C
C38C
4308
4608
4FC8
4FC8
2010
ENDCHAR
STARTCHAR uni2476
ENCODING 9334
SWIDTH 1000 0
DWIDTH 14 0
BBX 14 14 0 -2
BITMAP
2010
4308
4F88
48C8
40C8
C0CC
C38C
C78C
C0CC
40C8
48C8
4FC8
4708
2010
ENDCHAR
STARTCHAR uni2477
ENCODING 9335
SWIDTH 1000 0
DWIDTH 14 0
BBX 14 14 0 -2
BITMAP
2010
4008
4188
4388
4388
C78C
CD8C
CD8C
DFEC
5FE8
4188
4188
4188
2010
ENDCHAR
STARTCHAR uni2478
ENCODING 9336
SWIDTH 1000 0
DWIDTH 14 0
BBX 14 14 0 -2
BITMAP
2010
4008
4FC8
4FC8
4C08
CC0C
CFCC
C0CC
C0CC
40C8
48C8
4F88
4708
2010
ENDCHAR
STARTCHAR uni2479
ENCODING 9337
SWIDTH 1000 0
DWIDTH 14 0
BBX 14 14 0 -2
BITMAP
2010
4388
47C8
4E48
4C08
CC0C
CF8C
CFCC
CCCC
4C48
4CC8
47C8
4108
2010
ENDCHAR
STARTCHAR uni247A
ENCODING 9338
SWIDTH 1000 0
DWIDTH 14 0
BBX 14 14 0 -2
BITMAP
2010
4008
4FC8
4FC8
4088
C18C
C10C
C30C
C30C
4308
4308
4708
4608
2010
ENDCHAR
STARTCHAR uni247B
ENCODING 9339
SWIDTH 1000 0
DWIDTH 14 0
BBX 14 14 0 -2
BITMAP
2010
4008
4788
4CC8
4CC8
CCCC
C78C
C78C
CCCC
48C8
48C8
4EC8
4788
2010
ENDCHAR
STARTCHAR uni247C
ENCODING 9340
SWIDTH 1000 0
DWIDTH 14 0
BBX 14 14 0 -2
BITMAP
2010
4208
4F88
4CC8
4CC8
CCCC
CCCC
CF4C
C0CC
40C8
40C8
4F88
4708
2010
ENDCHAR
STARTCHAR uni247D
ENCODING 9341
SWIDTH 1000 0
DWIDTH 14 0
BBX 14 14 0 -2
BITMAP
2010
4008
4DE8
5D28
4D28
CD2C
CD2C
CD2C
CD2C
4D28
4D28
4DE8
4CC8
2010
ENDCHAR
STARTCHAR uni247E
ENCODING 9342
SWIDTH 1000 0
DWIDTH 14 0
BBX 14 14 0 -2
BITMAP
2010
4008
4CC8
5DC8
4448
C44C
C44C
C44C
C44C
4448
4448
4448
4448
2010
ENDCHAR
STARTCHAR uni247F
ENCODING 9343
SWIDTH 1000 0
DWIDTH 14 0
BBX 14 14 0 -2
BITMAP
2010
4008
4DC8
5D68
4C28
CC6C
CC6C
CC4C
CCCC
4C88
4D88
4FE8
4FE8
2010
ENDCHAR
STARTCHAR uni2480
ENCODING 9344
SWIDTH 1000 0
DWIDTH 14 0
BBX 14 14 0 -2
BITMAP
2010
4008
4FE8
5D68
4C28
CC6C
CC6C
CCCC
CC6C
4C28
4C28
4D68
4DC8
2010
ENDCHAR
STARTCHAR uni2481
ENCODING 9345
SWIDTH 1000 0
DWIDTH 14 0
BBX 14 14 0 -2
BITMAP
2010
4008
4C68
5CE8
4CE8
CDEC
CD6C
CD6C
CFFC
4C68
4C68
4C68
4C68
2010
ENDCHAR
STARTCHAR uni2482
ENCODING 9346
SWIDTH 1000 0
DWIDTH 14 0
BBX 14 14 0 -2
BITMAP
2010
4008
4DE8
5DE8
4D08
CD0C
CDEC
CC6C
CC2C
4C28
4C28
4F68
4DC8
2010
ENDCHAR
STARTCHAR uni2483
ENCODING 9347
SWIDTH 1000 0
DWIDTH 14 0
BBX 14 14 0 -2
BITMAP
2010
4008
4CE8
5D88
4D08
CD0C
CDCC
CDEC
CD2C
4D28
4D28
4DE8
4CC8
2010
ENDCHAR
STARTCHAR uni2484
ENCODING 9348
SWIDTH 1000 0
DWIDTH 14 0
BBX 14 14 0 -2
BITMAP
2010
4008
4DE8
5DE8
4C48
CCCC
CCCC
CC8C
CC8C
4C88
4C88
4D88
4D88
2010
ENDCHAR
STARTCHAR uni2485
ENCODING 9349
SWIDTH 1000 0
DWIDTH 14 0
BBX 14 14 0 -2
BITMAP
2010
4008
4DC8
5D28
4D28
CD2C
CCCC
CCCC
CD6C
4D28
4D28
4D68
4CC8
2010
ENDCHAR
STARTCHAR uni2486
ENCODING 9350
SWIDTH 1000 0
DWIDTH 14 0
BBX 14 14 0 -2
BITMAP
2010
4008
4DC8
5D68
4D28
CD2C
CD2C
CDEC
CC2C
4C28
4C28
4D68
4DC8
2010
ENDCHAR
STARTCHAR uni2487
ENCODING 9351
SWIDTH 1000 0
DWIDTH 14 0
BBX 14 14 0 -2
BITMAP
2010
4008
5CE8
56A8
47A8
C7AC
C5BC
C5BC
CDBC
4DA8
59A8
5EE8
5EC8
2010
ENDCHAR
STARTCHAR uni2488
ENCODING 9352
SWIDTH 1000 0
DWIDTH 14 0
BBX 10 11 2 0
BITMAP
7000
F000
3000
3000
3000
3000
3000
3000
3080
FDC0
FCC0
ENDCHAR
STARTCHAR uni2489
ENCODING 9353
SWIDTH 1000 0
DWIDTH 14 0
BBX 11 11 1 0
BITMAP
3C00
FC00
4600
0600
0600
0C00
1C00
1800
3060
7E60
FE60
ENDCHAR
STARTCHAR uni248A
ENCODING 9354
SWIDTH 1000 0
DWIDTH 14 0
BBX 11 11 1 0
BITMAP
3C00
7E00
0600
0600
1C00
1C00
0600
0600
4660
FE60
3C60
ENDCHAR
STARTCHAR uni248B
ENCODING 9355
SWIDTH 1000 0
DWIDTH 14 0
BBX 12 11 1 0
BITMAP
0E00
1E00
1600
3600
6600
6600
FF00
FF00
0620
0670
0660
ENDCHAR
STARTCHAR uni248C
ENCODING 9356
SWIDTH 1000 0
DWIDTH 14 0
BBX 11 11 1 0
BITMAP
7E00
7E00
6000
6000
7C00
6E00
0600
0700
4660
FE60
3C60
ENDCHAR
STARTCHAR uni248D
ENCODING 9357
SWIDTH 1000 0
DWIDTH 14 0
BBX 11 11 1 0
BITMAP
1C00
7E00
6000
4000
DC00
FE00
C600
4600
6660
7E60
3C60
ENDCHAR
STARTCHAR uni248E
ENCODING 9358
SWIDTH 1000 0
DWIDTH 14 0
BBX 10 11 2 0
BITMAP
FE00
FE00
0C00
0800
1800
1800
1000
3000
3080
31C0
3180
ENDCHAR
STARTCHAR uni248F
ENCODING 9359
SWIDTH 1000 0
DWIDTH 14 0
BBX 12 11 1 0
BITMAP
3C00
7E00
6600
6600
7400
3C00
6E00
4600
4620
6E70
3C60
ENDCHAR
STARTCHAR uni2490
ENCODING 9360
SWIDTH 1000 0
DWIDTH 14 0
BBX 11 11 2 0
BITMAP
7800
FC00
CC00
8400
CE00
FE00
7600
0C00
0C40
F8E0
70C0
ENDCHAR
STARTCHAR uni2491
ENCODING 9361
SWIDTH 1000 0
DWIDTH 14 0
BBX 14 11 0 0
BITMAP
7380
F3C0
3660
3660
3660
3660
3660
3660
3668
33DC
339C
ENDCHAR
STARTCHAR uni2492
ENCODING 9362
SWIDTH 1000 0
DWIDTH 14 0
BBX 12 11 1 0
BITMAP
6300
E700
6300
6300
6300
6300
6300
6300
6330
6330
6330
ENDCHAR
STARTCHAR uni2493
ENCODING 9363
SWIDTH 1000 0
DWIDTH 14 0
BBX 14 11 0 0
BITMAP
3380
F7C0
30C0
30C0
30C0
30C0
3180
3180
3308
37DC
37D8
ENDCHAR
STARTCHAR uni2494
ENCODING 9364
SWIDTH 1000 0
DWIDTH 14 0
BBX 14 11 0 0
BITMAP
3380
F7C0
30C0
30C0
31C0
3380
30C0
3040
3048
37DC
3398
ENDCHAR
STARTCHAR uni2495
ENCODING 9365
SWIDTH 1000 0
DWIDTH 14 0
BBX 14 11 0 0
BITMAP
31C0
F1C0
31C0
33C0
32C0
36C0
37E0
37E0
30C8
30DC
30D8
ENDCHAR
STARTCHAR uni2496
ENCODING 9366
SWIDTH 1000 0
DWIDTH 14 0
BBX 14 11 0 0
BITMAP
33C0
F3C0
3200
3600
3780
32C0
3040
3060
30C8
37DC
3398
ENDCHAR
STARTCHAR uni2497
ENCODING 9367
SWIDTH 1000 0
DWIDTH 14 0
BBX 14 11 0 0
BITMAP
31C0
F3C0
3600
3600
37C0
37C0
3640
3660
3648
33DC
3398
ENDCHAR
STARTCHAR uni2498
ENCODING 9368
SWIDTH 1000 0
DWIDTH 14 0
BBX 12 11 1 0
BITMAP
67C0
E7C0
6080
6180
6180
6100
6300
6300
6330
6330
6330
ENDCHAR
STARTCHAR uni2499
ENCODING 9369
SWIDTH 1000 0
DWIDTH 14 0
BBX 14 11 0 0
BITMAP
3380
F6C0
3640
3640
33C0
3380
36C0
3460
3668
36DC
33DC
ENDCHAR
STARTCHAR uni249A
ENCODING 9370
SWIDTH 1000 0
DWIDTH 14 0
BBX 14 11 0 0
BITMAP
3380
F3C0
3640
3660
3660
33E0
3060
3060
3048
33DC
3398
ENDCHAR
STARTCHAR uni249B
ENCODING 9371
SWIDTH 1000 0
DWIDTH 14 0
BBX 14 11 0 0
BITMAP
71C0
FBC0
1B60
1B60
1B60
1B60
3360
3360
6368
FFDC
FDD8
ENDCHAR
STARTCHAR uni2500
ENCODING 9472
SWIDTH 1000 0
DWIDTH 14 0
BBX 14 1 0 4
BITMAP
FFFC
ENDCHAR
STARTCHAR uni2501
ENCODING 9473
SWIDTH 1000 0
DWIDTH 14 0
BBX 14 2 0 4
BITMAP
FFFC
FFFC
ENDCHAR
STARTCHAR uni2502
ENCODING 9474
SWIDTH 1000 0
DWIDTH 14 0
BBX 1 14 7 -2
BITMAP
80
80
80
80
80
80
80
80
80
80
80
80
80
80
ENDCHAR
STARTCHAR uni2503
ENCODING 9475
SWIDTH 1000 0
DWIDTH 14 0
BBX 2 14 6 -2
BITMAP
C0
C0
C0
C0
C0
C0
C0
C0
C0
C0
C0
C0
C0
C0
ENDCHAR
STARTCHAR uni2504
ENCODING 9476
SWIDTH 1000 0
DWIDTH 14 0
BBX 12 1 1 4
BITMAP
EF70
ENDCHAR
STARTCHAR uni2505
ENCODING 9477
SWIDTH 1000 0
DWIDTH 14 0
BBX 12 2 1 4
BITMAP
EF70
EF70
ENDCHAR
STARTCHAR uni2506
ENCODING 9478
SWIDTH 1000 0
DWIDTH 14 0
BBX 1 13 7 -2
BITMAP
80
80
80
00
00
80
80
00
00
00
80
80
00
ENDCHAR
STARTCHAR uni2507
ENCODING 9479
SWIDTH 1000 0
DWIDTH 14 0
BBX 2 12 6 -1
BITMAP
C0
C0
C0
00
00
C0
C0
C0
00
C0
C0
C0
ENDCHAR
STARTCHAR uni2508
ENCODING 9480
SWIDTH 1000 0
DWIDTH 14 0
BBX 14 1 0 4
BITMAP
EFDC
ENDCHAR
STARTCHAR uni2509
ENCODING 9481
SWIDTH 1000 0
DWIDTH 14 0
BBX 14 2 0 4
BITMAP
EFDC
EFDC
ENDCHAR
STARTCHAR uni250A
ENCODING 9482
SWIDTH 1000 0
DWIDTH 14 0
BBX 1 14 7 -2
BITMAP
80
80
00
00
80
80
00
00
80
80
00
00
80
80
ENDCHAR
STARTCHAR uni250B
ENCODING 9483
SWIDTH 1000 0
DWIDTH 14 0
BBX 2 14 6 -2
BITMAP
C0
C0
C0
00
C0
C0
C0
C0
C0
C0
00
C0
C0
C0
ENDCHAR
STARTCHAR uni250C
ENCODING 9484
SWIDTH 1000 0
DWIDTH 14 0
BBX 7 8 7 -3
BITMAP
FE
80
80
80
80
80
80
00
ENDCHAR
STARTCHAR uni250D
ENCODING 9485
SWIDTH 1000 0
DWIDTH 14 0
BBX 7 9 7 -3
BITMAP
FE
FE
80
80
80
80
80
80
00
ENDCHAR
STARTCHAR uni250E
ENCODING 9486
SWIDTH 1000 0
DWIDTH 14 0
BBX 8 8 6 -3
BITMAP
FF
C0
C0
C0
C0
C0
C0
C0
ENDCHAR
STARTCHAR uni250F
ENCODING 9487
SWIDTH 1000 0
DWIDTH 14 0
BBX 8 9 6 -3
BITMAP
FF
FF
C0
C0
C0
C0
C0
C0
C0
ENDCHAR
STARTCHAR uni2510
ENCODING 9488
SWIDTH 1000 0
DWIDTH 14 0
BBX 7 8 0 -3
BITMAP
FE
02
02
02
02
02
02
00
ENDCHAR
STARTCHAR uni2511
ENCODING 9489
SWIDTH 1000 0
DWIDTH 14 0
BBX 7 9 0 -3
BITMAP
FE
FE
02
02
02
02
02
02
00
ENDCHAR
STARTCHAR uni2512
ENCODING 9490
SWIDTH 1000 0
DWIDTH 14 0
BBX 8 8 0 -3
BITMAP
FF
03
03
03
03
03
03
03
ENDCHAR
STARTCHAR uni2513
ENCODING 9491
SWIDTH 1000 0
DWIDTH 14 0
BBX 8 9 0 -3
BITMAP
FF
FF
03
03
03
03
03
03
03
ENDCHAR
STARTCHAR uni2514
ENCODING 9492
SWIDTH 1000 0
DWIDTH 14 0
BBX 7 9 7 4
BITMAP
00
80
80
80
80
80
80
80
FE
ENDCHAR
STARTCHAR uni2515
ENCODING 9493
SWIDTH 1000 0
DWIDTH 14 0
BBX 7 9 7 4
BITMAP
00
80
80
80
80
80
80
FE
FE
ENDCHAR
STARTCHAR uni2516
ENCODING 9494
SWIDTH 1000 0
DWIDTH 14 0
BBX 8 9 6 4
BITMAP
C0
C0
C0
C0
C0
C0
C0
C0
FF
ENDCHAR
STARTCHAR uni2517
ENCODING 9495
SWIDTH 1000 0
DWIDTH 14 0
BBX 8 9 6 4
BITMAP
C0
C0
C0
C0
C0
C0
C0
FF
FF
ENDCHAR
STARTCHAR uni2518
ENCODING 9496
SWIDTH 1000 0
DWIDTH 14 0
BBX 7 9 0 4
BITMAP
00
02
02
02
02
02
02
02
FE
ENDCHAR
STARTCHAR uni2519
ENCODING 9497
SWIDTH 1000 0
DWIDTH 14 0
BBX 7 9 0 4
BITMAP
00
02
02
02
02
02
02
FE
FE
ENDCHAR
STARTCHAR uni251A
ENCODING 9498
SWIDTH 1000 0
DWIDTH 14 0
BBX 8 9 0 4
BITMAP
03
03
03
03
03
03
03
03
FF
ENDCHAR
STARTCHAR uni251B
ENCODING 9499
SWIDTH 1000 0
DWIDTH 14 0
BBX 8 9 0 4
BITMAP
03
03
03
03
03
03
03
FF
FF
ENDCHAR
STARTCHAR uni251C
ENCODING 9500
SWIDTH 1000 0
DWIDTH 14 0
BBX 7 16 7 -3
BITMAP
00
80
80
80
80
80
80
80
FE
80
80
80
80
80
80
00
ENDCHAR
STARTCHAR uni251D
ENCODING 9501
SWIDTH 1000 0
DWIDTH 14 0
BBX 7 16 7 -3
BITMAP
00
80
80
80
80
80
80
FE
FE
80
80
80
80
80
80
00
ENDCHAR
STARTCHAR uni251E
ENCODING 9502
SWIDTH 1000 0
DWIDTH 14 0
BBX 8 16 6 -3
BITMAP
C0
C0
C0
C0
C0
C0
C0
C0
FF
80
80
80
80
80
80
00
ENDCHAR
STARTCHAR uni251F
ENCODING 9503
SWIDTH 1000 0
DWIDTH 14 0
BBX 8 16 6 -3
BITMAP
00
80
80
80
80
80
80
80
FF
C0
C0
C0
C0
C0
C0
C0
ENDCHAR
STARTCHAR uni2520
ENCODING 9504
SWIDTH 1000 0
DWIDTH 14 0
BBX 8 16 6 -3
BITMAP
C0
C0
C0
C0
C0
C0
C0
C0
FF
C0
C0
C0
C0
C0
C0
C0
ENDCHAR
STARTCHAR uni2521
ENCODING 9505
SWIDTH 1000 0
DWIDTH 14 0
BBX 8 16 6 -3
BITMAP
C0
C0
C0
C0
C0
C0
C0
FF
FF
80
80
80
80
80
80
00
ENDCHAR
STARTCHAR uni2522
ENCODING 9506
SWIDTH 1000 0
DWIDTH 14 0
BBX 8 16 6 -3
BITMAP
00
80
80
80
80
80
80
FF
FF
C0
C0
C0
C0
C0
C0
C0
ENDCHAR
STARTCHAR uni2523
ENCODING 9507
SWIDTH 1000 0
DWIDTH 14 0
BBX 8 16 6 -3
BITMAP
C0
C0
C0
C0
C0
C0
C0
FF
FF
C0
C0
C0
C0
C0
C0
C0
ENDCHAR
STARTCHAR uni2524
ENCODING 9508
SWIDTH 1000 0
DWIDTH 14 0
BBX 7 16 0 -3
BITMAP
00
02
02
02
02
02
02
02
FE
02
02
02
02
02
02
00
ENDCHAR
STARTCHAR uni2525
ENCODING 9509
SWIDTH 1000 0
DWIDTH 14 0
BBX 7 16 0 -3
BITMAP
00
02
02
02
02
02
02
FE
FE
02
02
02
02
02
02
00
ENDCHAR
STARTCHAR uni2526
ENCODING 9510
SWIDTH 1000 0
DWIDTH 14 0
BBX 8 16 0 -3
BITMAP
03
03
03
03
03
03
03
03
FF
02
02
02
02
02
02
00
ENDCHAR
STARTCHAR uni2527
ENCODING 9511
SWIDTH 1000 0
DWIDTH 14 0
BBX 8 16 0 -3
BITMAP
00
02
02
02
02
02
02
02
FF
03
03
03
03
03
03
03
ENDCHAR
STARTCHAR uni2528
ENCODING 9512
SWIDTH 1000 0
DWIDTH 14 0
BBX 8 16 0 -3
BITMAP
03
03
03
03
03
03
03
03
FF
03
03
03
03
03
03
03
ENDCHAR
STARTCHAR uni2529
ENCODING 9513
SWIDTH 1000 0
DWIDTH 14 0
BBX 8 16 0 -3
BITMAP
03
03
03
03
03
03
03
FF
FF
02
02
02
02
02
02
00
ENDCHAR
STARTCHAR uni252A
ENCODING 9514
SWIDTH 1000 0
DWIDTH 14 0
BBX 8 16 0 -3
BITMAP
00
02
02
02
02
02
02
FF
FF
03
03
03
03
03
03
03
ENDCHAR
STARTCHAR uni252B
ENCODING 9515
SWIDTH 1000 0
DWIDTH 14 0
BBX 8 16 0 -3
BITMAP
03
03
03
03
03
03
03
FF
FF
03
03
03
03
03
03
03
ENDCHAR
STARTCHAR uni252C
ENCODING 9516
SWIDTH 1000 0
DWIDTH 14 0
BBX 14 8 0 -3
BITMAP
FFFC
0200
0200
0200
0200
0200
0200
0000
ENDCHAR
STARTCHAR uni252D
ENCODING 9517
SWIDTH 1000 0
DWIDTH 14 0
BBX 14 9 0 -3
BITMAP
FE00
FFFC
0200
0200
0200
0200
0200
0200
0000
ENDCHAR
STARTCHAR uni252E
ENCODING 9518
SWIDTH 1000 0
DWIDTH 14 0
BBX 14 9 0 -3
BITMAP
01FC
FFFC
0200
0200
0200
0200
0200
0200
0000
ENDCHAR
STARTCHAR uni252F
ENCODING 9519
SWIDTH 1000 0
DWIDTH 14 0
BBX 14 9 0 -3
BITMAP
FFFC
FFFC
0200
0200
0200
0200
0200
0200
0000
ENDCHAR
STARTCHAR uni2530
ENCODING 9520
SWIDTH 1000 0
DWIDTH 14 0
BBX 14 8 0 -3
BITMAP
FFFC
0300
0300
0300
0300
0300
0300
0300
ENDCHAR
STARTCHAR uni2531
ENCODING 9521
SWIDTH 1000 0
DWIDTH 14 0
BBX 14 9 0 -3
BITMAP
FF00
FFFC
0300
0300
0300
0300
0300
0300
0300
ENDCHAR
STARTCHAR uni2532
ENCODING 9522
SWIDTH 1000 0
DWIDTH 14 0
BBX 14 9 0 -3
BITMAP
03FC
FFFC
0300
0300
0300
0300
0300
0300
0300
ENDCHAR
STARTCHAR uni2533
ENCODING 9523
SWIDTH 1000 0
DWIDTH 14 0
BBX 14 9 0 -3
BITMAP
FFFC
FFFC
0300
0300
0300
0300
0300
0300
0300
ENDCHAR
STARTCHAR uni2534
ENCODING 9524
SWIDTH 1000 0
DWIDTH 14 0
BBX 14 9 0 4
BITMAP
0000
0200
0200
0200
0200
0200
0200
0200
FFFC
ENDCHAR
STARTCHAR uni2535
ENCODING 9525
SWIDTH 1000 0
DWIDTH 14 0
BBX 14 9 0 4
BITMAP
0000
0200
0200
0200
0200
0200
0200
FE00
FFFC
ENDCHAR
STARTCHAR uni2536
ENCODING 9526
SWIDTH 1000 0
DWIDTH 14 0
BBX 14 8 0 4
BITMAP
0200
0200
0200
0200
0200
0200
01FC
FFFC
ENDCHAR
STARTCHAR uni2537
ENCODING 9527
SWIDTH 1000 0
DWIDTH 14 0
BBX 14 9 0 4
BITMAP
0000
0200
0200
0200
0200
0200
0200
FFFC
FFFC
ENDCHAR
STARTCHAR uni2538
ENCODING 9528
SWIDTH 1000 0
DWIDTH 14 0
BBX 14 9 0 4
BITMAP
0300
0300
0300
0300
0300
0300
0300
0300
FFFC
ENDCHAR
STARTCHAR uni2539
ENCODING 9529
SWIDTH 1000 0
DWIDTH 14 0
BBX 14 9 0 4
BITMAP
0300
0300
0300
0300
0300
0300
0300
FF00
FFFC
ENDCHAR
STARTCHAR uni253A
ENCODING 9530
SWIDTH 1000 0
DWIDTH 14 0
BBX 14 9 0 4
BITMAP
0300
0300
0300
0300
0300
0300
0300
03FC
FFFC
ENDCHAR
STARTCHAR uni253B
ENCODING 9531
SWIDTH 1000 0
DWIDTH 14 0
BBX 14 9 0 4
BITMAP
0300
0300
0300
0300
0300
0300
0300
FFFC
FFFC
ENDCHAR
STARTCHAR uni253C
ENCODING 9532
SWIDTH 1000 0
DWIDTH 14 0
BBX 14 16 0 -3
BITMAP
0000
0200
0200
0200
0200
0200
0200
0200
FFFC
0200
0200
0200
0200
0200
0200
0000
ENDCHAR
STARTCHAR uni253D
ENCODING 9533
SWIDTH 1000 0
DWIDTH 14 0
BBX 14 16 0 -3
BITMAP
0000
0200
0200
0200
0200
0200
0200
FE00
FFFC
0200
0200
0200
0200
0200
0200
0000
ENDCHAR
STARTCHAR uni253E
ENCODING 9534
SWIDTH 1000 0
DWIDTH 14 0
BBX 14 15 0 -3
BITMAP
0200
0200
0200
0200
0200
0200
01FC
FFFC
0200
0200
0200
0200
0200
0200
0000
ENDCHAR
STARTCHAR uni253F
ENCODING 9535
SWIDTH 1000 0
DWIDTH 14 0
BBX 14 16 0 -3
BITMAP
0000
0200
0200
0200
0200
0200
0200
FFFC
FFFC
0200
0200
0200
0200
0200
0200
0000
ENDCHAR
STARTCHAR uni2540
ENCODING 9536
SWIDTH 1000 0
DWIDTH 14 0
BBX 14 16 0 -3
BITMAP
0300
0300
0300
0300
0300
0300
0300
0300
FFFC
0200
0200
0200
0200
0200
0200
0000
ENDCHAR
STARTCHAR uni2541
ENCODING 9537
SWIDTH 1000 0
DWIDTH 14 0
BBX 14 16 0 -3
BITMAP
0000
0200
0200
0200
0200
0200
0200
0200
FFFC
0300
0300
0300
0300
0300
0300
0300
ENDCHAR
STARTCHAR uni2542
ENCODING 9538
SWIDTH 1000 0
DWIDTH 14 0
BBX 14 16 0 -3
BITMAP
0300
0300
0300
0300
0300
0300
0300
0300
FFFC
0300
0300
0300
0300
0300
0300
0300
ENDCHAR
STARTCHAR uni2543
ENCODING 9539
SWIDTH 1000 0
DWIDTH 14 0
BBX 14 16 0 -3
BITMAP
0300
0300
0300
0300
0300
0300
0300
FF00
FFFC
0200
0200
0200
0200
0200
0200
0000
ENDCHAR
STARTCHAR uni2544
ENCODING 9540
SWIDTH 1000 0
DWIDTH 14 0
BBX 14 16 0 -3
BITMAP
0300
0300
0300
0300
0300
0300
0300
03FC
FFFC
0200
0200
0200
0200
0200
0200
0000
ENDCHAR
STARTCHAR uni2545
ENCODING 9541
SWIDTH 1000 0
DWIDTH 14 0
BBX 14 16 0 -3
BITMAP
0000
0200
0200
0200
0200
0200
0200
FF00
FFFC
0300
0300
0300
0300
0300
0300
0300
ENDCHAR
STARTCHAR uni2546
ENCODING 9542
SWIDTH 1000 0
DWIDTH 14 0
BBX 14 16 0 -3
BITMAP
0000
0200
0200
0200
0200
0200
0200
03FC
FFFC
0300
0300
0300
0300
0300
0300
0300
ENDCHAR
STARTCHAR uni2547
ENCODING 9543
SWIDTH 1000 0
DWIDTH 14 0
BBX 14 16 0 -3
BITMAP
0300
0300
0300
0300
0300
0300
0300
FFFC
FFFC
0200
0200
0200
0200
0200
0200
0000
ENDCHAR
STARTCHAR uni2548
ENCODING 9544
SWIDTH 1000 0
DWIDTH 14 0
BBX 14 16 0 -3
BITMAP
0000
0200
0200
0200
0200
0200
0200
FFFC
FFFC
0300
0300
0300
0300
0300
0300
0300
ENDCHAR
STARTCHAR uni2549
ENCODING 9545
SWIDTH 1000 0
DWIDTH 14 0
BBX 14 16 0 -3
BITMAP
0300
0300
0300
0300
0300
0300
0300
FF00
FFFC
0300
0300
0300
0300
0300
0300
0300
ENDCHAR
STARTCHAR uni254A
ENCODING 9546
SWIDTH 1000 0
DWIDTH 14 0
BBX 14 16 0 -3
BITMAP
0300
0300
0300
0300
0300
0300
0300
03FC
FFFC
0300
0300
0300
0300
0300
0300
0300
ENDCHAR
STARTCHAR uni254B
ENCODING 9547
SWIDTH 1000 0
DWIDTH 14 0
BBX 14 16 0 -3
BITMAP
0300
0300
0300
0300
0300
0300
0300
FFFC
FFFC
0300
0300
0300
0300
0300
0300
0300
ENDCHAR
STARTCHAR uni25A0
ENCODING 9632
SWIDTH 1000 0
DWIDTH 14 0
BBX 12 11 1 -1
BITMAP
FFF0
FFF0
FFF0
FFF0
FFF0
FFF0
FFF0
FFF0
FFF0
FFF0
FFF0
ENDCHAR
STARTCHAR uni25A1
ENCODING 9633
SWIDTH 1000 0
DWIDTH 14 0
BBX 12 12 1 -1
BITMAP
FFF0
8010
8010
8010
8010
8010
8010
8010
8010
8010
8010
FFF0
ENDCHAR
STARTCHAR uni25B2
ENCODING 9650
SWIDTH 1000 0
DWIDTH 14 0
BBX 14 11 0 0
BITMAP
0300
0300
0780
0780
0FC0
0FC0
1FE0
3FF0
3FF0
7FF8
7FF8
ENDCHAR
STARTCHAR uni25B3
ENCODING 9651
SWIDTH 1000 0
DWIDTH 14 0
BBX 14 13 0 -1
BITMAP
0000
0300
0300
0480
0880
0840
1040
1020
2020
2010
4010
4008
FFFC
ENDCHAR
STARTCHAR uni25C6
ENCODING 9670
SWIDTH 1000 0
DWIDTH 14 0
BBX 14 14 0 -2
BITMAP
0000
0300
0780
0FC0
1FE0
3FF0
7FF8
FFFC
7FF8
3FF0
1FE0
0FC0
0780
0300
ENDCHAR
STARTCHAR uni25C7
ENCODING 9671
SWIDTH 1000 0
DWIDTH 14 0
BBX 14 14 0 -2
BITMAP
0000
0300
0480
0840
1020
2010
4008
8004
4008
2010
1020
0840
0480
0300
ENDCHAR
STARTCHAR uni25CB
ENCODING 9675
SWIDTH 1000 0
DWIDTH 14 0
BBX 12 14 1 -2
BITMAP
0600
39C0
4020
8020
8010
8010
8010
8010
8010
8010
8020
4020
30C0
0F00
ENDCHAR
STARTCHAR uni25CE
ENCODING 9678
SWIDTH 1000 0
DWIDTH 14 0
BBX 12 14 1 -2
BITMAP
0600
39C0
4020
9FA0
A090
A050
C050
C050
A050
A090
90A0
4F20
30C0
0F00
ENDCHAR
STARTCHAR uni25CF
ENCODING 9679
SWIDTH 1000 0
DWIDTH 14 0
BBX 12 13 1 -2
BITMAP
0F00
3FC0
7FE0
FFF0
FFF0
FFF0
FFF0
FFF0
FFF0
7FE0
7FE0
3FC0
0600
ENDCHAR
STARTCHAR uni2605
ENCODING 9733
SWIDTH 1000 0
DWIDTH 14 0
BBX 12 12 1 -1
BITMAP
0000
0600
0600
0600
0F00
FFF0
3FC0
1F80
1F80
1F80
1980
2040
ENDCHAR
STARTCHAR uni2606
ENCODING 9734
SWIDTH 1000 0
DWIDTH 14 0
BBX 14 14 0 -2
BITMAP
0000
0200
0300
0300
0500
7CF8
2010
1020
0840
0840
0B40
14C0
1820
0000
ENDCHAR
STARTCHAR uni2640
ENCODING 9792
SWIDTH 1000 0
DWIDTH 14 0
BBX 10 13 2 -2
BITMAP
1E00
3300
2100
2100
3300
1E00
0C00
0C00
FFC0
0C00
0C00
0C00
0C00
ENDCHAR
STARTCHAR uni2642
ENCODING 9794
SWIDTH 1000 0
DWIDTH 14 0
BBX 10 11 2 -1
BITMAP
07C0
01C0
0340
0640
7C40
DC00
8C00
8400
8C00
D800
7800
ENDCHAR
STARTCHAR uni3000
ENCODING 12288
SWIDTH 1000 0
DWIDTH 14 0
BBX 1 1 0 0
BITMAP
00
ENDCHAR
STARTCHAR uni3001
ENCODING 12289
SWIDTH 1000 0
DWIDTH 14 0
BBX 4 4 1 -1
BITMAP
C0
E0
70
30
ENDCHAR
STARTCHAR uni3002
ENCODING 12290
SWIDTH 1000 0
DWIDTH 14 0
BBX 5 5 0 -2
BITMAP
70
48
88
48
70
ENDCHAR
STARTCHAR uni3003
ENCODING 12291
SWIDTH 1000 0
DWIDTH 14 0
BBX 8 7 3 1
BITMAP
23
73
66
66
C4
CC
88
ENDCHAR
STARTCHAR uni3005
ENCODING 12293
SWIDTH 1000 0
DWIDTH 14 0
BBX 11 12 1 -1
BITMAP
0C00
0C00
1FC0
1FE0
30E0
30C0
60C0
ED80
0F80
0380
01C0
0080
ENDCHAR
STARTCHAR uni3008
ENCODING 12296
SWIDTH 1000 0
DWIDTH 14 0
BBX 5 13 8 -2
BITMAP
18
18
30
20
60
C0
C0
40
60
20
30
18
08
ENDCHAR
STARTCHAR uni3009
ENCODING 12297
SWIDTH 1000 0
DWIDTH 14 0
BBX 5 13 1 -2
BITMAP
C0
C0
60
20
30
18
18
10
30
20
60
C0
80
ENDCHAR
STARTCHAR uni300A
ENCODING 12298
SWIDTH 1000 0
DWIDTH 14 0
BBX 7 13 7 -2
BITMAP
14
34
2C
68
58
50
D0
50
48
28
2C
34
16
ENDCHAR
STARTCHAR uni300B
ENCODING 12299
SWIDTH 1000 0
DWIDTH 14 0
BBX 7 13 0 -2
BITMAP
50
58
68
2C
34
14
16
14
24
28
68
58
D0
ENDCHAR
STARTCHAR uni300C
ENCODING 12300
SWIDTH 1000 0
DWIDTH 14 0
BBX 5 10 9 2
BITMAP
F8
F8
C0
C0
C0
C0
C0
C0
C0
C0
ENDCHAR
STARTCHAR uni300D
ENCODING 12301
SWIDTH 1000 0
DWIDTH 14 0
BBX 5 9 0 -2
BITMAP
18
18
18
18
18
18
18
F8
F8
ENDCHAR
STARTCHAR uni300E
ENCODING 12302
SWIDTH 1000 0
DWIDTH 14 0
BBX 6 10 8 2
BITMAP
FC
84
BC
A0
A0
A0
A0
A0
A0
E0
ENDCHAR
STARTCHAR uni300F
ENCODING 12303
SWIDTH 1000 0
DWIDTH 14 0
BBX 6 10 0 -2
BITMAP
1C
14
14
14
14
14
14
F4
84
FC
ENDCHAR
STARTCHAR uni3010
ENCODING 12304
SWIDTH 1000 0
DWIDTH 14 0
BBX 5 13 9 -2
BITMAP
F0
E0
E0
C0
C0
C0
C0
C0
C0
C0
E0
E0
F0
ENDCHAR
STARTCHAR uni3011
ENCODING 12305
SWIDTH 1000 0
DWIDTH 14 0
BBX 5 13 0 -2
BITMAP
78
38
38
18
18
18
18
18
18
18
38
38
78
ENDCHAR
STARTCHAR uni3013
ENCODING 12307
SWIDTH 1000 0
DWIDTH 14 0
BBX 12 12 1 -1
BITMAP
FFF0
FFF0
FFF0
FFF0
0000
0000
0000
0000
FFF0
FFF0
FFF0
FFF0
ENDCHAR
STARTCHAR uni3014
ENCODING 12308
SWIDTH 1000 0
DWIDTH 14 0
BBX 4 14 10 -2
BITMAP
00
70
C0
80
80
80
80
80
80
80
80
80
60
20
ENDCHAR
STARTCHAR uni3015
ENCODING 12309
SWIDTH 1000 0
DWIDTH 14 0
BBX 4 14 0 -2
BITMAP
00
E0
30
10
10
10
10
10
10
10
10
10
60
40
ENDCHAR
STARTCHAR uni3016
ENCODING 12310
SWIDTH 1000 0
DWIDTH 14 0
BBX 5 14 9 -2
BITMAP
F0
A0
C0
C0
80
80
80
80
80
80
C0
C0
A0
F0
ENDCHAR
STARTCHAR uni3017
ENCODING 12311
SWIDTH 1000 0
DWIDTH 14 0
BBX 5 14 0 -2
BITMAP
78
28
28
18
18
18
18
18
18
18
18
28
28
78
ENDCHAR
STARTCHAR uni3041
ENCODING 12353
SWIDTH 1000 0
DWIDTH 14 0
BBX 10 11 2 -2
BITMAP
1800
7F80
1800
1F00
3BC0
7AC0
5E40
DCC0
D8C0
7B80
0200
ENDCHAR
STARTCHAR uni3042
ENCODING 12354
SWIDTH 1000 0
DWIDTH 14 0
BBX 12 13 1 -2
BITMAP
0C00
7FC0
7FC0
0880
0FC0
1DE0
3930
6B30
CE30
CE30
FCE0
69C0
0100
ENDCHAR
STARTCHAR uni3043
ENCODING 12355
SWIDTH 1000 0
DWIDTH 14 0
BBX 10 9 2 -1
BITMAP
C100
4180
4080
40C0
40C0
48C0
6CC0
7800
3800
ENDCHAR
STARTCHAR uni3044
ENCODING 12356
SWIDTH 1000 0
DWIDTH 14 0
BBX 12 11 1 -1
BITMAP
6040
40C0
4060
4060
6020
6030
6430
6630
6E30
3C00
1800
ENDCHAR
STARTCHAR uni3045
ENCODING 12357
SWIDTH 1000 0
DWIDTH 14 0
BBX 8 11 3 -2
BITMAP
3E
3E
00
3E
FF
83
03
03
0E
3C
30
ENDCHAR
STARTCHAR uni3046
ENCODING 12358
SWIDTH 1000 0
DWIDTH 14 0
BBX 10 13 2 -2
BITMAP
3F00
1F00
0000
0E00
FF80
E180
00C0
00C0
0180
0380
0F00
3E00
1000
ENDCHAR
STARTCHAR uni3047
ENCODING 12359
SWIDTH 1000 0
DWIDTH 14 0
BBX 10 11 2 -2
BITMAP
1F00
1F00
0000
7F00
7E00
0C00
1C00
1E00
3600
63C0
0180
ENDCHAR
STARTCHAR uni3048
ENCODING 12360
SWIDTH 1000 0
DWIDTH 14 0
BBX 12 12 1 -1
BITMAP
1F80
0F80
0000
5F80
7F80
2300
0600
0E00
1F00
3300
61F0
61F0
ENDCHAR
STARTCHAR uni3049
ENCODING 12361
SWIDTH 1000 0
DWIDTH 14 0
BBX 11 11 2 -2
BITMAP
1000
1180
FDC0
F040
1000
3F80
7080
D0C0
D180
F780
3600
ENDCHAR
STARTCHAR uni304A
ENCODING 12362
SWIDTH 1000 0
DWIDTH 14 0
BBX 13 13 1 -1
BITMAP
1800
1800
1940
7FF0
7830
1810
1900
1FE0
7860
D820
D860
7BE0
3B80
ENDCHAR
STARTCHAR uni304B
ENCODING 12363
SWIDTH 1000 0
DWIDTH 14 0
BBX 13 12 1 -1
BITMAP
1800
1860
1E60
FF30
F1B0
31B0
3198
3180
6100
6300
EF00
CE00
ENDCHAR
STARTCHAR uni304C
ENCODING 12364
SWIDTH 1000 0
DWIDTH 14 0
BBX 13 13 1 -1
BITMAP
0010
1858
1820
1860
FF60
FF30
31B0
31B0
3110
6100
6300
CF00
CE00
ENDCHAR
STARTCHAR uni304D
ENCODING 12365
SWIDTH 1000 0
DWIDTH 14 0
BBX 10 14 2 -2
BITMAP
0400
0480
FF80
7E00
0600
FFC0
FFC0
0300
4580
4780
C000
E000
7F00
1F00
ENDCHAR
STARTCHAR uni304E
ENCODING 12366
SWIDTH 1000 0
DWIDTH 14 0
BBX 12 14 2 -2
BITMAP
0420
0CE0
FF00
7C00
0400
CFC0
FF80
0300
8300
C700
C000
C000
FF00
3F00
ENDCHAR
STARTCHAR uni304F
ENCODING 12367
SWIDTH 1000 0
DWIDTH 14 0
BBX 9 13 2 -2
BITMAP
0200
0700
0E00
1C00
3000
6000
6000
7000
3800
0E00
0700
0300
0000
ENDCHAR
STARTCHAR uni3050
ENCODING 12368
SWIDTH 1000 0
DWIDTH 14 0
BBX 10 13 2 -2
BITMAP
0200
0700
0E00
1880
73C0
E100
E000
7000
3800
1C00
0700
0300
0200
ENDCHAR
STARTCHAR uni3051
ENCODING 12369
SWIDTH 1000 0
DWIDTH 14 0
BBX 12 13 1 -2
BITMAP
60C0
60C0
40C0
CFF0
CFF0
C0C0
C0C0
E0C0
E0C0
6180
6180
6700
0200
ENDCHAR
STARTCHAR uni3052
ENCODING 12370
SWIDTH 1000 0
DWIDTH 14 0
BBX 13 14 1 -2
BITMAP
0010
60A8
40A0
C080
CFF0
CFF0
C080
C080
E080
E180
E180
E180
4700
0200
ENDCHAR
STARTCHAR uni3053
ENCODING 12371
SWIDTH 1000 0
DWIDTH 14 0
BBX 10 11 2 -1
BITMAP
7F80
7F80
0000
0000
0000
0000
C000
C000
C000
7FC0
3FC0
ENDCHAR
STARTCHAR uni3054
ENCODING 12372
SWIDTH 1000 0
DWIDTH 14 0
BBX 12 13 2 -1
BITMAP
0020
00F0
7FC0
7F80
0000
0000
0000
0000
C000
C000
C000
FF80
3F80
ENDCHAR
STARTCHAR uni3055
ENCODING 12373
SWIDTH 1000 0
DWIDTH 14 0
BBX 10 14 2 -2
BITMAP
0200
0600
0640
FFC0
FF00
0300
0180
0780
6780
C000
C000
E000
7F80
1F00
ENDCHAR
STARTCHAR uni3056
ENCODING 12374
SWIDTH 1000 0
DWIDTH 14 0
BBX 12 14 2 -2
BITMAP
00A0
04F0
06C0
FFC0
FE00
0300
0100
0780
C780
C000
C000
E000
7F80
1F00
ENDCHAR
STARTCHAR uni3057
ENCODING 12375
SWIDTH 1000 0
DWIDTH 14 0
BBX 10 13 3 -2
BITMAP
C000
C000
C000
C000
C000
C000
C000
C000
C080
C1C0
C380
FF00
3C00
ENDCHAR
STARTCHAR uni3058
ENCODING 12376
SWIDTH 1000 0
DWIDTH 14 0
BBX 10 13 3 -2
BITMAP
C100
C500
C580
C600
C000
C000
C000
C000
C080
C1C0
C380
FF00
7C00
ENDCHAR
STARTCHAR uni3059
ENCODING 12377
SWIDTH 1000 0
DWIDTH 14 0
BBX 12 13 1 -2
BITMAP
0300
3FF0
FFF0
0300
0F00
1F00
1900
1B80
1F00
0700
0700
1E00
0800
ENDCHAR
STARTCHAR uni305A
ENCODING 12378
SWIDTH 1000 0
DWIDTH 14 0
BBX 12 14 1 -2
BITMAP
0070
0350
3FF0
FFF0
0300
0300
1F00
1300
1300
1F00
0300
0E00
3C00
1800
ENDCHAR
STARTCHAR uni305B
ENCODING 12379
SWIDTH 1000 0
DWIDTH 14 0
BBX 12 12 1 -1
BITMAP
30C0
30C0
30C0
7FF0
FFF0
F0C0
3080
3380
3180
3000
1FE0
1FC0
ENDCHAR
STARTCHAR uni305C
ENCODING 12380
SWIDTH 1000 0
DWIDTH 14 0
BBX 14 13 0 -2
BITMAP
1858
1854
1850
18F8
FFF8
F840
1840
19C0
18C0
1800
1800
1FE0
07E0
ENDCHAR
STARTCHAR uni305D
ENCODING 12381
SWIDTH 1000 0
DWIDTH 14 0
BBX 11 13 1 -2
BITMAP
3F80
3FC0
0300
0600
1C60
FFE0
FE00
0C00
0800
0C00
0C00
0FC0
0380
ENDCHAR
STARTCHAR uni305E
ENCODING 12382
SWIDTH 1000 0
DWIDTH 14 0
BBX 12 13 1 -2
BITMAP
0780
3F80
0370
0E40
18E0
FFE0
FC00
0800
1800
1800
1C00
0F80
0380
ENDCHAR
STARTCHAR uni305F
ENCODING 12383
SWIDTH 1000 0
DWIDTH 14 0
BBX 12 12 1 -1
BITMAP
1800
1900
FF00
F800
19F0
13F0
3000
3000
3600
6600
67F0
E3F0
ENDCHAR
STARTCHAR uni3060
ENCODING 12384
SWIDTH 1000 0
DWIDTH 14 0
BBX 12 13 1 -2
BITMAP
1830
1850
FE60
FE00
33E0
33E0
3000
3000
6600
6600
6600
C7E0
41E0
ENDCHAR
STARTCHAR uni3061
ENCODING 12385
SWIDTH 1000 0
DWIDTH 14 0
BBX 11 13 1 -2
BITMAP
1800
1840
FFC0
7C00
1000
37C0
3FE0
3060
6060
0060
00E0
1FC0
0F00
ENDCHAR
STARTCHAR uni3062
ENCODING 12386
SWIDTH 1000 0
DWIDTH 14 0
BBX 13 14 1 -2
BITMAP
0010
1878
1020
FF80
FC00
3000
3000
3FC0
70C0
6060
0060
00C0
1F80
1E00
ENDCHAR
STARTCHAR uni3063
ENCODING 12387
SWIDTH 1000 0
DWIDTH 14 0
BBX 10 8 2 -1
BITMAP
1F80
FFC0
E0C0
00C0
00C0
01C0
1F80
1E00
ENDCHAR
STARTCHAR uni3064
ENCODING 12388
SWIDTH 1000 0
DWIDTH 14 0
BBX 12 11 1 -1
BITMAP
0380
3FE0
F860
C030
0030
0030
0030
0060
01E0
1F80
0E00
ENDCHAR
STARTCHAR uni3065
ENCODING 12389
SWIDTH 1000 0
DWIDTH 14 0
BBX 14 13 0 -1
BITMAP
0018
0028
0038
07E0
3FF0
7830
4018
0018
0038
0030
00E0
0FC0
0700
ENDCHAR
STARTCHAR uni3066
ENCODING 12390
SWIDTH 1000 0
DWIDTH 14 0
BBX 11 12 1 -1
BITMAP
01E0
FFE0
F300
0600
0C00
0C00
0C00
0C00
0C00
0700
07C0
01C0
ENDCHAR
STARTCHAR uni3067
ENCODING 12391
SWIDTH 1000 0
DWIDTH 14 0
BBX 12 12 1 -1
BITMAP
01E0
FFE0
E300
0620
0C50
0C40
0C00
0C00
0C00
0700
07C0
01C0
ENDCHAR
STARTCHAR uni3068
ENCODING 12392
SWIDTH 1000 0
DWIDTH 14 0
BBX 10 12 2 -1
BITMAP
6000
6080
3180
3780
1E00
3800
7000
6000
C000
6000
7FC0
3FC0
ENDCHAR
STARTCHAR uni3069
ENCODING 12393
SWIDTH 1000 0
DWIDTH 14 0
BBX 12 14 2 -2
BITMAP
0020
40A0
6040
6100
3780
3E00
3800
7000
6000
C000
C000
E000
7F80
3F80
ENDCHAR
STARTCHAR uni306A
ENCODING 12394
SWIDTH 1000 0
DWIDTH 14 0
BBX 12 14 1 -2
BITMAP
0000
0800
1A00
FEE0
F870
3190
3180
6180
6180
CFC0
59E0
19B0
0F80
0600
ENDCHAR
STARTCHAR uni306B
ENCODING 12395
SWIDTH 1000 0
DWIDTH 14 0
BBX 12 12 1 -1
BITMAP
6000
67E0
67E0
4000
4000
4000
C000
F000
E400
6400
67F0
63F0
ENDCHAR
STARTCHAR uni306C
ENCODING 12396
SWIDTH 1000 0
DWIDTH 14 0
BBX 13 12 1 -1
BITMAP
0300
4200
4F80
7FE0
7660
6630
F430
DC30
9FE0
9A70
F3F8
63C0
ENDCHAR
STARTCHAR uni306D
ENCODING 12397
SWIDTH 1000 0
DWIDTH 14 0
BBX 13 13 1 -1
BITMAP
0000
1800
1080
FBE0
FE60
1820
3830
3030
7020
F3E0
F670
B7F0
33C0
ENDCHAR
STARTCHAR uni306E
ENCODING 12398
SWIDTH 1000 0
DWIDTH 14 0
BBX 12 11 1 -1
BITMAP
1FC0
3EE0
6660
C630
C630
CC30
CC30
CC30
F860
73C0
0380
ENDCHAR
STARTCHAR uni306F
ENCODING 12399
SWIDTH 1000 0
DWIDTH 14 0
BBX 13 13 1 -2
BITMAP
60C0
60C0
4FF0
4FF0
C0C0
C0C0
C0C0
E0C0
E7C0
ECF0
ECF0
4FD0
4300
ENDCHAR
STARTCHAR uni3070
ENCODING 12400
SWIDTH 1000 0
DWIDTH 14 0
BBX 13 14 1 -2
BITMAP
0010
61B8
40A0
C080
CFE0
CFE0
C080
C080
E080
EFC0
E8E0
C8B0
CF80
C700
ENDCHAR
STARTCHAR uni3071
ENCODING 12401
SWIDTH 1000 0
DWIDTH 14 0
BBX 13 14 1 -2
BITMAP
0030
61A8
40B0
C080
CFE0
CFE0
C080
C080
E080
EFC0
E8E0
C8B0
CF80
C700
ENDCHAR
STARTCHAR uni3072
ENCODING 12402
SWIDTH 1000 0
DWIDTH 14 0
BBX 12 13 1 -2
BITMAP
0440
FCC0
F8C0
30C0
30E0
60E0
60F0
60D0
60C0
6080
6180
3F00
1E00
ENDCHAR
STARTCHAR uni3073
ENCODING 12403
SWIDTH 1000 0
DWIDTH 14 0
BBX 13 14 1 -2
BITMAP
0010
0038
FCA0
F8C0
30C0
20C0
60E0
60B0
40B0
C080
C180
6380
7F00
1E00
ENDCHAR
STARTCHAR uni3074
ENCODING 12404
SWIDTH 1000 0
DWIDTH 14 0
BBX 13 14 1 -2
BITMAP
0030
0028
FCA8
F8F0
30C0
20C0
60E0
60B0
40B0
C080
C180
6380
7F00
1E00
ENDCHAR
STARTCHAR uni3075
ENCODING 12405
SWIDTH 1000 0
DWIDTH 14 0
BBX 14 12 0 -1
BITMAP
0600
0380
01C0
0180
0000
0600
0330
1198
3998
7098
6F88
0F80
ENDCHAR
STARTCHAR uni3076
ENCODING 12406
SWIDTH 1000 0
DWIDTH 14 0
BBX 14 13 0 -2
BITMAP
0600
0788
01A8
0390
0100
0600
0720
0330
1998
3198
E198
4F80
0F00
ENDCHAR
STARTCHAR uni3077
ENCODING 12407
SWIDTH 1000 0
DWIDTH 14 0
BBX 14 13 0 -2
BITMAP
0400
0F18
01A4
0118
0400
0600
0330
1330
1998
7198
E198
4F80
0F00
ENDCHAR
STARTCHAR uni3078
ENCODING 12408
SWIDTH 1000 0
DWIDTH 14 0
BBX 13 10 1 0
BITMAP
0000
1C00
1E00
3700
7380
E1C0
C0E0
4060
0070
0030
ENDCHAR
STARTCHAR uni3079
ENCODING 12409
SWIDTH 1000 0
DWIDTH 14 0
BBX 13 11 0 -1
BITMAP
0010
0678
0F20
1B80
3980
70C0
6060
6070
0038
0018
0000
ENDCHAR
STARTCHAR uni307A
ENCODING 12410
SWIDTH 1000 0
DWIDTH 14 0
BBX 13 11 0 -1
BITMAP
0030
0648
0F48
1BB0
3980
70C0
6060
6070
0038
0018
0000
ENDCHAR
STARTCHAR uni307B
ENCODING 12411
SWIDTH 1000 0
DWIDTH 14 0
BBX 12 12 1 -1
BITMAP
6470
67F0
4080
4080
C7F0
C7E0
C080
E0C0
E7C0
ECF0
EFD0
4780
ENDCHAR
STARTCHAR uni307C
ENCODING 12412
SWIDTH 1000 0
DWIDTH 14 0
BBX 13 14 1 -2
BITMAP
0010
6028
4FE0
C780
C180
CFE0
CFE0
C180
E080
EFC0
E8E0
C9B0
CF80
C300
ENDCHAR
STARTCHAR uni307D
ENCODING 12413
SWIDTH 1000 0
DWIDTH 14 0
BBX 13 14 1 -2
BITMAP
0038
6028
4FF0
C780
C180
CFE0
CFE0
C180
E080
EFC0
E8E0
C9B0
CF80
C300
ENDCHAR
STARTCHAR uni307E
ENCODING 12414
SWIDTH 1000 0
DWIDTH 14 0
BBX 10 13 2 -2
BITMAP
0400
7FC0
7FC0
0400
FFC0
FFC0
0400
0400
7F00
C780
C4C0
7C40
1800
ENDCHAR
STARTCHAR uni307F
ENCODING 12415
SWIDTH 1000 0
DWIDTH 14 0
BBX 12 13 1 -2
BITMAP
3F00
3F00
0600
0600
0460
7FE0
EDE0
D870
98F0
F0C0
E380
0300
0000
ENDCHAR
STARTCHAR uni3080
ENCODING 12416
SWIDTH 1000 0
DWIDTH 14 0
BBX 12 13 1 -2
BITMAP
1000
FE40
FE60
1030
1030
7800
D800
D840
F860
7060
30E0
1FC0
0F00
ENDCHAR
STARTCHAR uni3081
ENCODING 12417
SWIDTH 1000 0
DWIDTH 14 0
BBX 12 13 1 -2
BITMAP
0180
6100
2F80
3FE0
3360
7230
DE30
DE30
CC30
DE70
FCE0
63C0
0100
ENDCHAR
STARTCHAR uni3082
ENCODING 12418
SWIDTH 1000 0
DWIDTH 14 0
BBX 11 13 1 -2
BITMAP
0800
0800
7F00
7F00
1800
9840
FF60
1F60
1020
1860
1860
1FC0
0780
ENDCHAR
STARTCHAR uni3083
ENCODING 12419
SWIDTH 1000 0
DWIDTH 14 0
BBX 11 11 1 -2
BITMAP
0400
2600
33C0
3FE0
7860
7860
0BE0
0D80
0C00
0400
0600
ENDCHAR
STARTCHAR uni3084
ENCODING 12420
SWIDTH 1000 0
DWIDTH 14 0
BBX 12 14 1 -2
BITMAP
0400
2600
62C0
37E0
3C30
F030
F830
9BF0
0FE0
0C00
0C00
0600
0600
0400
ENDCHAR
STARTCHAR uni3085
ENCODING 12421
SWIDTH 1000 0
DWIDTH 14 0
BBX 10 11 2 -2
BITMAP
0600
4600
4F80
FEC0
E6C0
E640
D6C0
5FC0
4F00
0C00
1800
ENDCHAR
STARTCHAR uni3086
ENCODING 12422
SWIDTH 1000 0
DWIDTH 14 0
BBX 12 13 1 -2
BITMAP
0300
6300
4FE0
5B60
7330
6330
6B30
5B30
4FE0
67C0
0600
0C00
0400
ENDCHAR
STARTCHAR uni3087
ENCODING 12423
SWIDTH 1000 0
DWIDTH 14 0
BBX 8 11 3 -2
BITMAP
18
18
1B
1F
18
18
78
DE
9F
FB
70
ENDCHAR
STARTCHAR uni3088
ENCODING 12424
SWIDTH 1000 0
DWIDTH 14 0
BBX 11 13 1 -2
BITMAP
0600
0600
0660
07E0
0600
0600
0600
3E00
7F80
47E0
4660
7E40
3C00
ENDCHAR
STARTCHAR uni3089
ENCODING 12425
SWIDTH 1000 0
DWIDTH 14 0
BBX 10 13 2 -2
BITMAP
3C00
3F00
0300
6000
4000
4F80
7FC0
E0C0
C0C0
00C0
01C0
3F80
3E00
ENDCHAR
STARTCHAR uni308A
ENCODING 12426
SWIDTH 1000 0
DWIDTH 14 0
BBX 8 13 3 -2
BITMAP
CC
FE
E3
E3
C3
C1
83
83
03
06
1E
38
20
ENDCHAR
STARTCHAR uni308B
ENCODING 12427
SWIDTH 1000 0
DWIDTH 14 0
BBX 11 13 1 -2
BITMAP
3F80
3FC0
0300
0600
0C00
1FC0
30E0
E060
5E60
1B60
19E0
1FC0
0700
ENDCHAR
STARTCHAR uni308C
ENCODING 12428
SWIDTH 1000 0
DWIDTH 14 0
BBX 13 12 1 -1
BITMAP
1800
1800
F9C0
F7C0
1C60
3840
7040
70C0
F0C0
F0D0
B0F8
3070
ENDCHAR
STARTCHAR uni308D
ENCODING 12429
SWIDTH 1000 0
DWIDTH 14 0
BBX 11 13 1 -2
BITMAP
2F80
3FC0
0300
0600
0C00
1FC0
38E0
6060
4060
0060
00E0
1FC0
0F00
ENDCHAR
STARTCHAR uni308E
ENCODING 12430
SWIDTH 1000 0
DWIDTH 14 0
BBX 10 10 2 -1
BITMAP
1000
1000
F780
3DC0
3040
7040
7040
F0C0
B380
3300
ENDCHAR
STARTCHAR uni308F
ENCODING 12431
SWIDTH 1000 0
DWIDTH 14 0
BBX 12 12 1 -1
BITMAP
1800
1800
F980
F7E0
1C30
3830
7030
7030
F030
B0E0
B3E0
3180
ENDCHAR
STARTCHAR uni3090
ENCODING 12432
SWIDTH 1000 0
DWIDTH 14 0
BBX 12 13 1 -2
BITMAP
3E00
3E00
0600
0F80
1FE0
3C60
6C30
C830
DBB0
DEF0
F6E0
67C0
0100
ENDCHAR
STARTCHAR uni3091
ENCODING 12433
SWIDTH 1000 0
DWIDTH 14 0
BBX 12 13 1 -2
BITMAP
3F80
0700
0E00
1F80
70C0
6E60
12C0
1FC0
1800
39C0
6F60
C630
0020
ENDCHAR
STARTCHAR uni3092
ENCODING 12434
SWIDTH 1000 0
DWIDTH 14 0
BBX 12 13 1 -2
BITMAP
0C00
7F80
7F80
1800
3E60
73E0
E700
4F00
1B00
1B00
1800
1FC0
07C0
ENDCHAR
STARTCHAR uni3093
ENCODING 12435
SWIDTH 1000 0
DWIDTH 14 0
BBX 12 12 1 -1
BITMAP
0600
0E00
0C00
1800
1800
3600
3E00
7310
6330
6330
C3E0
C1C0
ENDCHAR
STARTCHAR uni30A1
ENCODING 12449
SWIDTH 1000 0
DWIDTH 14 0
BBX 10 10 2 -2
BITMAP
FFC0
FFC0
00C0
0D80
0F00
0800
1800
1800
3000
6000
ENDCHAR
STARTCHAR uni30A2
ENCODING 12450
SWIDTH 1000 0
DWIDTH 14 0
BBX 11 13 2 -2
BITMAP
FFE0
FFE0
00E0
0CC0
0D80
0F00
0C00
1800
1800
3800
7000
6000
0000
ENDCHAR
STARTCHAR uni30A3
ENCODING 12451
SWIDTH 1000 0
DWIDTH 14 0
BBX 10 10 1 -2
BITMAP
00C0
01C0
0380
0F00
3E00
7600
0600
0600
0600
0600
ENDCHAR
STARTCHAR uni30A4
ENCODING 12452
SWIDTH 1000 0
DWIDTH 14 0
BBX 11 12 1 -1
BITMAP
0040
00E0
01C0
0380
0F00
7F00
F300
0300
0300
0300
0300
0300
ENDCHAR
STARTCHAR uni30A5
ENCODING 12453
SWIDTH 1000 0
DWIDTH 14 0
BBX 10 11 2 -2
BITMAP
0C00
0C00
FFC0
FFC0
C0C0
C180
0180
0380
0700
3E00
1800
ENDCHAR
STARTCHAR uni30A6
ENCODING 12454
SWIDTH 1000 0
DWIDTH 14 0
BBX 11 14 2 -2
BITMAP
0C00
0C00
0C00
FFE0
FFC0
80C0
80C0
80C0
0180
0380
0700
1E00
3C00
1000
ENDCHAR
STARTCHAR uni30A7
ENCODING 12455
SWIDTH 1000 0
DWIDTH 14 0
BBX 10 8 2 -1
BITMAP
7F80
7F80
0C00
0C00
0C00
0C00
FFC0
FFC0
ENDCHAR
STARTCHAR uni30A8
ENCODING 12456
SWIDTH 1000 0
DWIDTH 14 0
BBX 12 10 1 0
BITMAP
7FE0
7FE0
0600
0600
0600
0600
0600
0600
FFF0
FFF0
ENDCHAR
STARTCHAR uni30A9
ENCODING 12457
SWIDTH 1000 0
DWIDTH 14 0
BBX 10 11 2 -2
BITMAP
0200
0200
7FC0
7FC0
0600
0E00
1A00
3200
E300
4F00
0E00
ENDCHAR
STARTCHAR uni30AA
ENCODING 12458
SWIDTH 1000 0
DWIDTH 14 0
BBX 12 12 1 -1
BITMAP
0180
0100
7FF0
7FF0
0380
0780
0D80
3980
7180
E180
0780
0700
ENDCHAR
STARTCHAR uni30AB
ENCODING 12459
SWIDTH 1000 0
DWIDTH 14 0
BBX 11 12 1 -1
BITMAP
0C00
0C00
7FE0
7FE0
0C60
0C60
0C60
1860
1860
3060
73C0
63C0
ENDCHAR
STARTCHAR uni30AC
ENCODING 12460
SWIDTH 1000 0
DWIDTH 14 0
BBX 13 13 1 -1
BITMAP
0030
0C50
0C60
FFC0
FFE0
0C60
0C60
1860
1860
3840
30C0
E3C0
43C0
ENDCHAR
STARTCHAR uni30AD
ENCODING 12461
SWIDTH 1000 0
DWIDTH 14 0
BBX 12 12 1 -1
BITMAP
0C00
0C00
0FC0
FFC0
7600
0600
07F0
FFC0
7600
0300
0300
0300
ENDCHAR
STARTCHAR uni30AE
ENCODING 12462
SWIDTH 1000 0
DWIDTH 14 0
BBX 12 13 1 -1
BITMAP
0030
0C50
0C60
0FC0
FFC0
FC00
0600
07E0
FFC0
F600
0600
0300
0300
ENDCHAR
STARTCHAR uni30AF
ENCODING 12463
SWIDTH 1000 0
DWIDTH 14 0
BBX 12 14 1 -2
BITMAP
0400
0E00
0FE0
1FE0
3860
7060
E0C0
40C0
0180
0380
0700
1E00
3800
0000
ENDCHAR
STARTCHAR uni30B0
ENCODING 12464
SWIDTH 1000 0
DWIDTH 14 0
BBX 13 14 1 -2
BITMAP
0010
0E78
0C20
1FE0
3FE0
70C0
E0C0
C1C0
0180
0300
0700
1E00
7800
3000
ENDCHAR
STARTCHAR uni30B1
ENCODING 12465
SWIDTH 1000 0
DWIDTH 14 0
BBX 12 14 1 -2
BITMAP
0000
1800
1800
3FF0
3FF0
6100
E300
C300
0300
0700
0600
1C00
1C00
0000
ENDCHAR
STARTCHAR uni30B2
ENCODING 12466
SWIDTH 1000 0
DWIDTH 14 0
BBX 14 14 0 -2
BITMAP
0018
0C28
0C38
1800
1FF8
3FF8
3180
6180
2180
0380
0300
0700
1E00
0400
ENDCHAR
STARTCHAR uni30B3
ENCODING 12467
SWIDTH 1000 0
DWIDTH 14 0
BBX 10 11 2 -1
BITMAP
FFC0
FFC0
00C0
00C0
00C0
00C0
00C0
00C0
FFC0
FFC0
00C0
ENDCHAR
STARTCHAR uni30B4
ENCODING 12468
SWIDTH 1000 0
DWIDTH 14 0
BBX 11 14 2 -2
BITMAP
00E0
00A0
00C0
FFC0
FFC0
00C0
00C0
00C0
00C0
00C0
00C0
FFC0
FFC0
00C0
ENDCHAR
STARTCHAR uni30B5
ENCODING 12469
SWIDTH 1000 0
DWIDTH 14 0
BBX 12 13 1 -2
BITMAP
30C0
1080
1080
FFF0
FFF0
1080
1080
3180
0180
0380
0700
0E00
0400
ENDCHAR
STARTCHAR uni30B6
ENCODING 12470
SWIDTH 1000 0
DWIDTH 14 0
BBX 13 13 1 -2
BITMAP
31B0
31A8
3180
FFF0
FFF0
3180
3180
3180
0180
0380
0700
0E00
0400
ENDCHAR
STARTCHAR uni30B7
ENCODING 12471
SWIDTH 1000 0
DWIDTH 14 0
BBX 12 12 1 -1
BITMAP
1000
3800
0C00
0400
E030
7070
10E0
01C0
0380
1F00
7C00
7000
ENDCHAR
STARTCHAR uni30B8
ENCODING 12472
SWIDTH 1000 0
DWIDTH 14 0
BBX 12 12 1 -1
BITMAP
1030
38D0
1C40
0000
E020
7070
20E0
01C0
0780
1F00
7C00
6000
ENDCHAR
STARTCHAR uni30B9
ENCODING 12473
SWIDTH 1000 0
DWIDTH 14 0
BBX 12 11 1 -1
BITMAP
7FC0
7FC0
00C0
0180
0180
0300
0780
0DC0
38E0
7070
6020
ENDCHAR
STARTCHAR uni30BA
ENCODING 12474
SWIDTH 1000 0
DWIDTH 14 0
BBX 13 14 1 -2
BITMAP
0050
0058
7FC0
7FC0
01C0
0180
0380
0300
0700
0D80
19C0
70E0
E060
4000
ENDCHAR
STARTCHAR uni30BB
ENCODING 12475
SWIDTH 1000 0
DWIDTH 14 0
BBX 12 12 1 -1
BITMAP
1800
1800
1860
1FE0
FF60
F8C0
18C0
1980
1800
1800
1FE0
0FE0
ENDCHAR
STARTCHAR uni30BC
ENCODING 12476
SWIDTH 1000 0
DWIDTH 14 0
BBX 14 14 0 -2
BITMAP
0008
0C28
0C10
0C00
0DF8
3FF0
7C70
4C60
0CC0
0C00
0C00
0C00
0FF0
07E0
ENDCHAR
STARTCHAR uni30BD
ENCODING 12477
SWIDTH 1000 0
DWIDTH 14 0
BBX 11 11 1 -1
BITMAP
6060
6060
7060
30C0
30C0
01C0
0180
0300
0F00
1C00
1800
ENDCHAR
STARTCHAR uni30BE
ENCODING 12478
SWIDTH 1000 0
DWIDTH 14 0
BBX 13 13 1 -1
BITMAP
0070
0050
4040
E060
60E0
30C0
30C0
0180
0180
0300
0E00
1C00
1800
ENDCHAR
STARTCHAR uni30BF
ENCODING 12479
SWIDTH 1000 0
DWIDTH 14 0
BBX 12 14 1 -2
BITMAP
0400
0E00
0FE0
1FE0
3860
7060
ECC0
4FC0
0380
03C0
0EC0
1C00
3800
0000
ENDCHAR
STARTCHAR uni30C0
ENCODING 12480
SWIDTH 1000 0
DWIDTH 14 0
BBX 14 14 0 -2
BITMAP
0008
0728
0610
0FF0
0FF0
1870
7460
6FE0
03C0
01C0
03E0
0F00
3C00
1800
ENDCHAR
STARTCHAR uni30C1
ENCODING 12481
SWIDTH 1000 0
DWIDTH 14 0
BBX 12 13 1 -2
BITMAP
00C0
7FC0
7E00
0600
FFF0
FFF0
0600
0600
0600
0C00
1C00
3800
1000
ENDCHAR
STARTCHAR uni30C2
ENCODING 12482
SWIDTH 1000 0
DWIDTH 14 0
BBX 13 13 1 -2
BITMAP
0080
7FC0
7E50
0670
0600
FFF0
FFF0
0600
0C00
0C00
1C00
7800
1000
ENDCHAR
STARTCHAR uni30C3
ENCODING 12483
SWIDTH 1000 0
DWIDTH 14 0
BBX 10 10 2 -2
BITMAP
0880
CCC0
6CC0
6980
4180
0300
0700
1E00
3800
1000
ENDCHAR
STARTCHAR uni30C4
ENCODING 12484
SWIDTH 1000 0
DWIDTH 14 0
BBX 12 12 1 -1
BITMAP
0400
4C30
C430
6660
6460
6060
00C0
01C0
0380
0F00
3E00
1800
ENDCHAR
STARTCHAR uni30C5
ENCODING 12485
SWIDTH 1000 0
DWIDTH 14 0
BBX 13 13 1 -1
BITMAP
0030
0050
0C40
CC60
C660
6660
60E0
00C0
01C0
0380
0700
1E00
3800
ENDCHAR
STARTCHAR uni30C6
ENCODING 12486
SWIDTH 1000 0
DWIDTH 14 0
BBX 12 13 1 -2
BITMAP
3FC0
3FC0
0000
0000
FFF0
FFF0
0600
0600
0600
0E00
1C00
3800
1000
ENDCHAR
STARTCHAR uni30C7
ENCODING 12487
SWIDTH 1000 0
DWIDTH 14 0
BBX 13 14 1 -2
BITMAP
0010
3FF8
3F80
0000
0000
FFF0
FFF0
0600
0600
0600
0C00
1C00
3800
1000
ENDCHAR
STARTCHAR uni30C8
ENCODING 12488
SWIDTH 1000 0
DWIDTH 14 0
BBX 8 12 4 -1
BITMAP
C0
C0
C0
C0
F0
FC
DF
C3
C0
C0
C0
C0
ENDCHAR
STARTCHAR uni30C9
ENCODING 12489
SWIDTH 1000 0
DWIDTH 14 0
BBX 9 12 4 -1
BITMAP
C300
C500
C700
C000
E000
FC00
DF00
C200
C000
C000
C000
C000
ENDCHAR
STARTCHAR uni30CA
ENCODING 12490
SWIDTH 1000 0
DWIDTH 14 0
BBX 12 13 1 -2
BITMAP
0600
0600
0600
FFF0
FFF0
0600
0600
0600
0E00
0C00
1C00
3800
0000
ENDCHAR
STARTCHAR uni30CB
ENCODING 12491
SWIDTH 1000 0
DWIDTH 14 0
BBX 12 9 1 0
BITMAP
7FC0
7FC0
0000
0000
0000
0000
0000
FFF0
FFF0
ENDCHAR
STARTCHAR uni30CC
ENCODING 12492
SWIDTH 1000 0
DWIDTH 14 0
BBX 11 12 1 -2
BITMAP
7FE0
7FE0
00C0
10C0
3980
1F80
0700
0780
0FE0
3C40
7000
0000
ENDCHAR
STARTCHAR uni30CD
ENCODING 12493
SWIDTH 1000 0
DWIDTH 14 0
BBX 12 13 1 -2
BITMAP
0600
0600
7FC0
7FE0
01C0
0380
0F00
3EE0
FE70
4630
0600
0600
0600
ENDCHAR
STARTCHAR uni30CE
ENCODING 12494
SWIDTH 1000 0
DWIDTH 14 0
BBX 10 11 2 -1
BITMAP
01C0
0180
0180
0300
0300
0600
0E00
1C00
7800
F000
4000
ENDCHAR
STARTCHAR uni30CF
ENCODING 12495
SWIDTH 1000 0
DWIDTH 14 0
BBX 12 10 1 0
BITMAP
1980
1980
18C0
18C0
3060
3060
7060
6030
E030
C030
ENDCHAR
STARTCHAR uni30D0
ENCODING 12496
SWIDTH 1000 0
DWIDTH 14 0
BBX 14 12 0 -1
BITMAP
0008
003C
0CD0
0CC0
0C60
1860
1870
1830
3030
3038
6018
6010
ENDCHAR
STARTCHAR uni30D1
ENCODING 12497
SWIDTH 1000 0
DWIDTH 14 0
BBX 14 13 0 -1
BITMAP
0018
0024
0064
0CD8
0CC0
0860
1860
1870
1830
3030
3038
6018
6018
ENDCHAR
STARTCHAR uni30D2
ENCODING 12498
SWIDTH 1000 0
DWIDTH 14 0
BBX 9 12 3 -1
BITMAP
C000
C000
C100
CF80
FE00
F000
C000
C000
C000
C000
FF80
7F80
ENDCHAR
STARTCHAR uni30D3
ENCODING 12499
SWIDTH 1000 0
DWIDTH 14 0
BBX 11 13 2 -1
BITMAP
0040
C0A0
C080
C080
C780
FF00
F800
C000
C000
C000
C000
FFC0
7FC0
ENDCHAR
STARTCHAR uni30D4
ENCODING 12500
SWIDTH 1000 0
DWIDTH 14 0
BBX 11 13 2 -1
BITMAP
0060
C0A0
C0A0
C0E0
C380
FF00
F800
C000
C000
C000
C000
FFC0
7FC0
ENDCHAR
STARTCHAR uni30D5
ENCODING 12501
SWIDTH 1000 0
DWIDTH 14 0
BBX 10 11 2 -1
BITMAP
FFC0
FFC0
00C0
00C0
0180
0180
0300
0700
0E00
7C00
3000
ENDCHAR
STARTCHAR uni30D6
ENCODING 12502
SWIDTH 1000 0
DWIDTH 14 0
BBX 13 14 1 -2
BITMAP
0050
0058
FFC0
FFE0
0060
00C0
00C0
01C0
0180
0380
0700
3E00
3800
0000
ENDCHAR
STARTCHAR uni30D7
ENCODING 12503
SWIDTH 1000 0
DWIDTH 14 0
BBX 13 14 1 -2
BITMAP
0030
0048
FFC8
FFF0
0060
00C0
00C0
01C0
0180
0380
0700
3E00
3800
0000
ENDCHAR
STARTCHAR uni30D8
ENCODING 12504
SWIDTH 1000 0
DWIDTH 14 0
BBX 13 10 1 0
BITMAP
0000
0C00
1E00
3300
7380
E1C0
C0E0
4070
0030
0030
ENDCHAR
STARTCHAR uni30D9
ENCODING 12505
SWIDTH 1000 0
DWIDTH 14 0
BBX 13 12 0 -1
BITMAP
0000
0050
0678
0F20
1B80
39C0
70E0
6060
2030
0038
0018
0000
ENDCHAR
STARTCHAR uni30DA
ENCODING 12506
SWIDTH 1000 0
DWIDTH 14 0
BBX 13 11 0 -1
BITMAP
0030
0048
0E30
0F00
1980
31C0
60E0
2070
0038
0018
0000
ENDCHAR
STARTCHAR uni30DB
ENCODING 12507
SWIDTH 1000 0
DWIDTH 14 0
BBX 12 12 1 -1
BITMAP
0600
0600
FFF0
FFF0
0600
2600
3660
6660
C630
C630
1E00
1E00
ENDCHAR
STARTCHAR uni30DC
ENCODING 12508
SWIDTH 1000 0
DWIDTH 14 0
BBX 13 14 1 -2
BITMAP
0010
0650
0670
FFF0
FFF0
0600
0600
36E0
6660
E630
C630
0620
1E00
1C00
ENDCHAR
STARTCHAR uni30DD
ENCODING 12509
SWIDTH 1000 0
DWIDTH 14 0
BBX 12 14 1 -2
BITMAP
0070
0650
0670
0600
FFF0
FFF0
0600
2640
6660
6660
C630
0620
1E00
1C00
ENDCHAR
STARTCHAR uni30DE
ENCODING 12510
SWIDTH 1000 0
DWIDTH 14 0
BBX 12 12 1 -2
BITMAP
FFE0
FFF0
0060
00E0
10C0
3980
1F00
0E00
0700
0380
0180
0100
ENDCHAR
STARTCHAR uni30DF
ENCODING 12511
SWIDTH 1000 0
DWIDTH 14 0
BBX 10 12 2 -1
BITMAP
2000
3F00
0F80
0080
6000
7F00
0F00
0000
E000
FE00
1F80
0180
ENDCHAR
STARTCHAR uni30E0
ENCODING 12512
SWIDTH 1000 0
DWIDTH 14 0
BBX 12 13 1 -2
BITMAP
0E00
0C00
0C00
0C00
1800
1800
18C0
18C0
3060
33E0
FFF0
F830
0020
ENDCHAR
STARTCHAR uni30E1
ENCODING 12513
SWIDTH 1000 0
DWIDTH 14 0
BBX 12 12 1 -1
BITMAP
0000
00E0
00C0
38C0
1D80
0F80
0380
07C0
0CE0
3860
7020
6000
ENDCHAR
STARTCHAR uni30E2
ENCODING 12514
SWIDTH 1000 0
DWIDTH 14 0
BBX 12 11 1 -1
BITMAP
7FE0
7FE0
0C00
0C00
FFF0
FFF0
0C00
0C00
0C00
0FE0
07E0
ENDCHAR
STARTCHAR uni30E3
ENCODING 12515
SWIDTH 1000 0
DWIDTH 14 0
BBX 10 10 2 -2
BITMAP
3000
31C0
3FC0
F980
1980
1B00
0800
0C00
0C00
0C00
ENDCHAR
STARTCHAR uni30E4
ENCODING 12516
SWIDTH 1000 0
DWIDTH 14 0
BBX 12 12 1 -1
BITMAP
3000
3000
19F0
3FF0
FC60
98C0
0DC0
0C80
0C00
0600
0600
0600
ENDCHAR
STARTCHAR uni30E5
ENCODING 12517
SWIDTH 1000 0
DWIDTH 14 0
BBX 10 8 2 -1
BITMAP
7F80
7F00
0300
0300
0300
0300
FFC0
FFC0
ENDCHAR
STARTCHAR uni30E6
ENCODING 12518
SWIDTH 1000 0
DWIDTH 14 0
BBX 12 10 1 0
BITMAP
3FC0
3FC0
00C0
00C0
00C0
00C0
0180
0180
FFF0
FFF0
ENDCHAR
STARTCHAR uni30E7
ENCODING 12519
SWIDTH 1000 0
DWIDTH 14 0
BBX 8 10 3 -2
BITMAP
FF
FF
03
03
FF
FF
03
FF
FF
03
ENDCHAR
STARTCHAR uni30E8
ENCODING 12520
SWIDTH 1000 0
DWIDTH 14 0
BBX 10 11 2 -1
BITMAP
FFC0
FFC0
00C0
00C0
7FC0
7FC0
00C0
00C0
00C0
FFC0
FFC0
ENDCHAR
STARTCHAR uni30E9
ENCODING 12521
SWIDTH 1000 0
DWIDTH 14 0
BBX 11 13 2 -2
BITMAP
7F80
7F80
0000
0000
FFC0
FFC0
00C0
01C0
0180
0700
1E00
3C00
1000
ENDCHAR
STARTCHAR uni30EA
ENCODING 12522
SWIDTH 1000 0
DWIDTH 14 0
BBX 8 12 3 -1
BITMAP
C3
C3
C3
C3
C3
C3
C3
C3
07
0E
3C
10
ENDCHAR
STARTCHAR uni30EB
ENCODING 12523
SWIDTH 1000 0
DWIDTH 14 0
BBX 13 11 1 -1
BITMAP
3300
3300
3300
3300
3300
3310
3330
3370
63E0
E3C0
4100
ENDCHAR
STARTCHAR uni30EC
ENCODING 12524
SWIDTH 1000 0
DWIDTH 14 0
BBX 10 11 3 -1
BITMAP
C000
C000
C000
C000
C080
C0C0
C380
C700
FE00
F800
C000
ENDCHAR
STARTCHAR uni30ED
ENCODING 12525
SWIDTH 1000 0
DWIDTH 14 0
BBX 10 11 2 -1
BITMAP
FFC0
FFC0
C0C0
C0C0
C0C0
C0C0
C0C0
C0C0
FFC0
FFC0
C0C0
ENDCHAR
STARTCHAR uni30EE
ENCODING 12526
SWIDTH 1000 0
DWIDTH 14 0
BBX 10 10 2 -2
BITMAP
FF80
FFC0
C0C0
C180
C180
0180
0300
0700
1E00
1800
ENDCHAR
STARTCHAR uni30EF
ENCODING 12527
SWIDTH 1000 0
DWIDTH 14 0
BBX 11 12 2 -2
BITMAP
FFC0
FFC0
C0C0
C0C0
C0C0
01C0
0180
0380
0700
1E00
3800
0000
ENDCHAR
STARTCHAR uni30F0
ENCODING 12528
SWIDTH 1000 0
DWIDTH 14 0
BBX 12 12 1 -1
BITMAP
0180
0180
7FF0
7FF0
1980
1980
1980
FFF0
FFF0
0180
0180
0180
ENDCHAR
STARTCHAR uni30F1
ENCODING 12529
SWIDTH 1000 0
DWIDTH 14 0
BBX 12 10 1 0
BITMAP
7FE0
7FF0
0060
06C0
06C0
0600
0600
0600
FFF0
FFF0
ENDCHAR
STARTCHAR uni30F2
ENCODING 12530
SWIDTH 1000 0
DWIDTH 14 0
BBX 11 12 2 -2
BITMAP
FFC0
FFC0
00C0
00C0
FFC0
FF80
0180
0300
0700
1E00
3800
0000
ENDCHAR
STARTCHAR uni30F3
ENCODING 12531
SWIDTH 1000 0
DWIDTH 14 0
BBX 11 11 2 -1
BITMAP
4000
F000
3840
1060
00E0
01C0
0380
0700
3E00
F800
E000
ENDCHAR
STARTCHAR uni30F4
ENCODING 12532
SWIDTH 1000 0
DWIDTH 14 0
BBX 13 14 1 -2
BITMAP
0070
0650
0660
FFE0
FFE0
C060
C060
C0E0
00C0
01C0
0380
0F00
1E00
0800
ENDCHAR
STARTCHAR uni30F5
ENCODING 12533
SWIDTH 1000 0
DWIDTH 14 0
BBX 9 11 2 -2
BITMAP
0800
0800
FF80
FF80
1880
1880
1880
3180
7180
E780
4700
ENDCHAR
STARTCHAR uni30F6
ENCODING 12534
SWIDTH 1000 0
DWIDTH 14 0
BBX 11 11 1 -2
BITMAP
1800
1800
1FE0
3FE0
7300
6300
0300
0600
0600
1C00
0800
ENDCHAR
STARTCHAR uni30FB
ENCODING 12539
SWIDTH 1000 0
DWIDTH 14 0
BBX 4 4 5 3
BITMAP
60
F0
F0
60
ENDCHAR
STARTCHAR uni3105
ENCODING 12549
SWIDTH 1000 0
DWIDTH 14 0
BBX 10 14 2 -2
BITMAP
4000
6000
6000
4000
FFC0
7FC0
00C0
0080
0080
0180
0180
0180
0F00
0E00
ENDCHAR
STARTCHAR uni3106
ENCODING 12550
SWIDTH 1000 0
DWIDTH 14 0
BBX 11 14 1 -2
BITMAP
1000
3000
3000
3FC0
3FC0
00C0
18C0
1D80
0F00
0700
1F80
79C0
F0C0
4000
ENDCHAR
STARTCHAR uni3107
ENCODING 12551
SWIDTH 1000 0
DWIDTH 14 0
BBX 10 12 2 -1
BITMAP
FFC0
FFC0
C0C0
C0C0
C0C0
C0C0
C0C0
C0C0
C0C0
C0C0
C0C0
C0C0
ENDCHAR
STARTCHAR uni3108
ENCODING 12552
SWIDTH 1000 0
DWIDTH 14 0
BBX 11 12 2 -1
BITMAP
FFC0
FFC0
8000
8000
8000
8000
8000
8000
8000
C000
FFE0
7FE0
ENDCHAR
STARTCHAR uni3109
ENCODING 12553
SWIDTH 1000 0
DWIDTH 14 0
BBX 11 14 1 -2
BITMAP
2000
3000
3000
2000
7FE0
3FE0
0460
0C60
0C60
0C60
1860
30C0
E3C0
4380
ENDCHAR
STARTCHAR uni310A
ENCODING 12554
SWIDTH 1000 0
DWIDTH 14 0
BBX 12 14 1 -2
BITMAP
0600
0600
0600
FFF0
FFF0
0C00
0800
1880
1980
30C0
33E0
7FE0
7C30
0020
ENDCHAR
STARTCHAR uni310B
ENCODING 12555
SWIDTH 1000 0
DWIDTH 14 0
BBX 11 13 2 -2
BITMAP
FE00
FF00
0600
0C00
1FE0
1FC0
0040
00C0
00C0
00C0
0180
0F80
0F00
ENDCHAR
STARTCHAR uni310C
ENCODING 12556
SWIDTH 1000 0
DWIDTH 14 0
BBX 11 14 1 -2
BITMAP
0300
3200
2200
6600
7FE0
7FE0
0660
0C60
0C60
1860
1860
7040
E3C0
4380
ENDCHAR
STARTCHAR uni310D
ENCODING 12557
SWIDTH 1000 0
DWIDTH 14 0
BBX 10 12 2 -1
BITMAP
1880
3180
3180
6300
E600
C600
C600
6300
7380
3180
18C0
18C0
ENDCHAR
STARTCHAR uni310E
ENCODING 12558
SWIDTH 1000 0
DWIDTH 14 0
BBX 12 13 1 -2
BITMAP
FFF0
FFF0
1800
1800
3FC0
3FC0
00C0
00C0
00C0
00C0
0180
0F80
0E00
ENDCHAR
STARTCHAR uni310F
ENCODING 12559
SWIDTH 1000 0
DWIDTH 14 0
BBX 13 12 0 -2
BITMAP
3FF8
3FF8
3000
3000
3000
3000
3000
3000
2000
6000
6000
0000
ENDCHAR
STARTCHAR uni3110
ENCODING 12560
SWIDTH 1000 0
DWIDTH 14 0
BBX 9 12 2 -1
BITMAP
0180
6180
6180
6180
6180
6180
6180
7F80
7D80
4180
0180
0180
ENDCHAR
STARTCHAR uni3111
ENCODING 12561
SWIDTH 1000 0
DWIDTH 14 0
BBX 8 12 3 -1
BITMAP
04
0E
1C
38
30
60
60
30
18
0C
0E
07
ENDCHAR
STARTCHAR uni3112
ENCODING 12562
SWIDTH 1000 0
DWIDTH 14 0
BBX 12 12 1 -1
BITMAP
FFF0
FFF0
0600
0600
0600
0600
0600
0600
0600
0600
0600
0600
ENDCHAR
STARTCHAR uni3113
ENCODING 12563
SWIDTH 1000 0
DWIDTH 14 0
BBX 12 12 1 -1
BITMAP
0600
6660
6660
6660
6660
6660
7FE0
7FE0
0600
0600
FFF0
FFF0
ENDCHAR
STARTCHAR uni3114
ENCODING 12564
SWIDTH 1000 0
DWIDTH 14 0
BBX 11 13 1 -1
BITMAP
0100
0380
0700
1C60
79C0
2380
0700
1E00
7A00
4200
0200
0200
0200
ENDCHAR
STARTCHAR uni3115
ENCODING 12565
SWIDTH 1000 0
DWIDTH 14 0
BBX 12 13 0 -2
BITMAP
3FF0
3FF0
0010
0010
1FF0
1FF0
1000
3000
3000
3000
6000
6000
4000
ENDCHAR
STARTCHAR uni3116
ENCODING 12566
SWIDTH 1000 0
DWIDTH 14 0
BBX 11 12 1 -1
BITMAP
7FE0
7FE0
6060
6460
6C60
6660
6660
6360
6060
6060
FFE0
7FE0
ENDCHAR
STARTCHAR uni3117
ENCODING 12567
SWIDTH 1000 0
DWIDTH 14 0
BBX 11 13 2 -2
BITMAP
FFE0
FFC0
1840
1840
1840
18C0
18C0
1BC0
1B80
1800
1800
1800
1800
ENDCHAR
STARTCHAR uni3118
ENCODING 12568
SWIDTH 1000 0
DWIDTH 14 0
BBX 12 14 1 -2
BITMAP
0400
0400
0C00
FFF0
FFF0
1800
1800
3FC0
1FC0
00C0
0180
0180
0300
0100
ENDCHAR
STARTCHAR uni3119
ENCODING 12569
SWIDTH 1000 0
DWIDTH 14 0
BBX 12 12 1 -1
BITMAP
0400
0C00
0C00
0C00
1800
1800
30C0
30C0
6060
7FE0
7E30
0020
ENDCHAR
STARTCHAR uni311A
ENCODING 12570
SWIDTH 1000 0
DWIDTH 14 0
BBX 12 12 1 -1
BITMAP
4020
6060
38C0
1D80
0F00
0600
0600
0600
0600
0600
0600
0600
ENDCHAR
STARTCHAR uni311B
ENCODING 12571
SWIDTH 1000 0
DWIDTH 14 0
BBX 12 11 1 -1
BITMAP
FFF0
FFF0
0600
0600
1E00
7800
6000
4000
6060
7FC0
1F80
ENDCHAR
STARTCHAR uni311C
ENCODING 12572
SWIDTH 1000 0
DWIDTH 14 0
BBX 12 12 1 -1
BITMAP
0600
FFF0
FFF0
0600
0600
1E00
7000
6000
4000
6060
3FC0
1F80
ENDCHAR
STARTCHAR uni311D
ENCODING 12573
SWIDTH 1000 0
DWIDTH 14 0
BBX 12 12 1 -1
BITMAP
3080
3080
3080
FFF0
FFF0
3180
3180
3180
3100
1000
1FE0
1FE0
ENDCHAR
STARTCHAR uni311E
ENCODING 12574
SWIDTH 1000 0
DWIDTH 14 0
BBX 12 13 1 -2
BITMAP
FFF0
FFF0
2200
6600
6600
7FE0
7FE0
0C60
1860
3860
70C0
60C0
0000
ENDCHAR
STARTCHAR uni311F
ENCODING 12575
SWIDTH 1000 0
DWIDTH 14 0
BBX 12 11 1 -1
BITMAP
1800
3C00
EC00
4400
0600
0700
0300
0180
00C0
00F0
0020
ENDCHAR
STARTCHAR uni3120
ENCODING 12576
SWIDTH 1000 0
DWIDTH 14 0
BBX 11 12 2 -1
BITMAP
0800
0C00
1800
3180
6380
FF00
FE00
0D80
18C0
73C0
FFE0
E060
ENDCHAR
STARTCHAR uni3121
ENCODING 12577
SWIDTH 1000 0
DWIDTH 14 0
BBX 11 12 1 -2
BITMAP
7FE0
7FE0
0060
18C0
1DC0
0F80
0700
0780
1DC0
78E0
F060
4000
ENDCHAR
STARTCHAR uni3122
ENCODING 12578
SWIDTH 1000 0
DWIDTH 14 0
BBX 11 13 2 -2
BITMAP
FF80
FF80
2180
6180
6180
6100
FFC0
7FC0
00C0
00C0
0180
0180
0000
ENDCHAR
STARTCHAR uni3123
ENCODING 12579
SWIDTH 1000 0
DWIDTH 14 0
BBX 11 13 2 -2
BITMAP
3000
6000
6000
6000
FFC0
FFC0
00C0
00C0
00C0
0080
0180
0180
0000
ENDCHAR
STARTCHAR uni3124
ENCODING 12580
SWIDTH 1000 0
DWIDTH 14 0
BBX 12 13 1 -2
BITMAP
0400
0400
FFF0
FFF0
0400
0E00
0E00
0A00
1A00
3200
63F0
C3F0
0000
ENDCHAR
STARTCHAR uni3125
ENCODING 12581
SWIDTH 1000 0
DWIDTH 14 0
BBX 12 12 1 -1
BITMAP
0600
0600
0600
0C00
0C00
1800
1800
3000
3000
6000
FFF0
7FF0
ENDCHAR
STARTCHAR uni3126
ENCODING 12582
SWIDTH 1000 0
DWIDTH 14 0
BBX 12 13 1 -2
BITMAP
1900
1900
1900
1900
1900
1900
1900
1900
3100
3100
61F0
C1F0
0000
ENDCHAR
STARTCHAR uni3127
ENCODING 12583
SWIDTH 1000 0
DWIDTH 14 0
BBX 10 2 2 4
BITMAP
FFC0
FFC0
ENDCHAR
STARTCHAR uni3128
ENCODING 12584
SWIDTH 1000 0
DWIDTH 14 0
BBX 12 12 1 -1
BITMAP
0040
20C0
70C0
3980
0D80
0700
0700
0F80
1DC0
38E0
F070
4020
ENDCHAR
STARTCHAR uni3129
ENCODING 12585
SWIDTH 1000 0
DWIDTH 14 0
BBX 11 13 1 -2
BITMAP
6060
6060
6060
6060
6060
6060
6060
6060
6060
6060
FFE0
7FE0
0060
ENDCHAR
STARTCHAR uni3220
ENCODING 12832
SWIDTH 1000 0
DWIDTH 14 0
BBX 14 14 0 -2
BITMAP
2010
4008
4008
4008
4008
C00C
DFEC
DFEC
C00C
4008
4008
4008
4008
2010
ENDCHAR
STARTCHAR uni3221
ENCODING 12833
SWIDTH 1000 0
DWIDTH 14 0
BBX 14 14 0 -2
BITMAP
2010
4008
4008
4FC8
4FC8
C00C
C00C
C00C
C00C
5FE8
5FE8
4008
4008
2010
ENDCHAR
STARTCHAR uni3222
ENCODING 12834
SWIDTH 1000 0
DWIDTH 14 0
BBX 14 14 0 -2
BITMAP
2010
4008
5FE8
5FE8
4008
C00C
C00C
CFCC
C00C
4008
5FE8
5FE8
4008
2010
ENDCHAR
STARTCHAR uni3223
ENCODING 12835
SWIDTH 1000 0
DWIDTH 14 0
BBX 14 14 0 -2
BITMAP
2010
6018
4008
5FE8
57A8
55A8
D5AC
DCEC
D028
5028
5FE8
5028
4008
2010
ENDCHAR
STARTCHAR uni3224
ENCODING 12836
SWIDTH 1000 0
DWIDTH 14 0
BBX 14 14 0 -2
BITMAP
2010
4008
5FE8
5FE8
4208
C60C
CFCC
CFCC
C64C
4448
5FE8
5FE8
4008
2010
ENDCHAR
STARTCHAR uni3225
ENCODING 12837
SWIDTH 1000 0
DWIDTH 14 0
BBX 14 14 0 -2
BITMAP
2010
4308
4308
5FE8
5FE8
C008
C48C
CCCC
4C48
5868
5868
5028
4018
2010
ENDCHAR
STARTCHAR uni3226
ENCODING 12838
SWIDTH 1000 0
DWIDTH 14 0
BBX 14 14 0 -2
BITMAP
2010
4008
4408
4408
4428
C7EC
FF8C
F40C
C40C
4468
4468
47E8
43C8
2010
ENDCHAR
STARTCHAR uni3227
ENCODING 12839
SWIDTH 1000 0
DWIDTH 14 0
BBX 14 13 0 -1
BITMAP
2010
4488
4488
4488
4488
CCCC
CCCC
CCCC
4848
5868
5028
4008
2010
ENDCHAR
STARTCHAR uni3228
ENCODING 12840
SWIDTH 1000 0
DWIDTH 14 0
BBX 14 14 0 -2
BITMAP
2010
4608
4608
4608
5F88
DF8C
C48C
C48C
C48C
4CA8
58B8
58E8
4048
2010
ENDCHAR
STARTCHAR uni3229
ENCODING 12841
SWIDTH 1000 0
DWIDTH 14 0
BBX 14 14 0 -2
BITMAP
2010
4008
4308
4308
4308
DFFC
9FF4
8304
C30C
4308
4308
4308
4308
2010
ENDCHAR
STARTCHAR uni4E00
ENCODING 19968
SWIDTH 1000 0
DWIDTH 14 0
BBX 12 2 1 4
BITMAP
FFF0
FFF0
ENDCHAR
STARTCHAR uni4E01
ENCODING 19969
SWIDTH 1000 0
DWIDTH 14 0
BBX 12 13 1 -2
BITMAP
FFF0
FFF0
0600
0600
0600
0600
0600
0600
0600
0600
0600
3E00
1E00
ENDCHAR
STARTCHAR uni4E03
ENCODING 19971
SWIDTH 1000 0
DWIDTH 14 0
BBX 13 14 1 -2
BITMAP
0800
0800
0800
0800
08F0
3FF8
FE00
8800
0800
0830
0830
0830
0FF0
07E0
ENDCHAR
STARTCHAR uni4E07
ENCODING 19975
SWIDTH 1000 0
DWIDTH 14 0
BBX 13 13 0 -2
BITMAP
7FF8
7FF8
0C00
0C00
0FF0
0FF0
0830
1830
1830
1830
3030
61E0
41E0
ENDCHAR
STARTCHAR uni4E08
ENCODING 19976
SWIDTH 1000 0
DWIDTH 14 0
BBX 12 14 1 -2
BITMAP
0100
0100
0100
FFF0
FFF0
6300
2300
3300
1300
1E00
0E00
3F80
F3F0
4070
ENDCHAR
STARTCHAR uni4E09
ENCODING 19977
SWIDTH 1000 0
DWIDTH 14 0
BBX 12 12 1 -1
BITMAP
7FE0
7FE0
0000
0000
0000
3FC0
3FC0
0000
0000
0000
FFF0
FFF0
ENDCHAR
STARTCHAR uni4E0A
ENCODING 19978
SWIDTH 1000 0
DWIDTH 14 0
BBX 12 13 1 -1
BITMAP
0400
0400
0400
0400
07E0
07E0
0400
0400
0400
0400
0400
FFF0
FFF0
ENDCHAR
STARTCHAR uni4E0B
ENCODING 19979
SWIDTH 1000 0
DWIDTH 14 0
BBX 12 13 1 -2
BITMAP
FFF0
FFF0
0600
0600
0700
07C0
06E0
0660
0600
0600
0600
0600
0600
ENDCHAR
STARTCHAR uni4E0C
ENCODING 19980
SWIDTH 1000 0
DWIDTH 14 0
BBX 13 13 0 -2
BITMAP
7FF8
7FF8
0860
0860
0860
1860
1860
1860
1860
3860
3060
6060
6060
ENDCHAR
STARTCHAR uni4E0D
ENCODING 19981
SWIDTH 1000 0
DWIDTH 14 0
BBX 14 13 0 -2
BITMAP
7FF8
7FF8
0300
0700
07C0
0FE0
3B70
7318
6308
0300
0300
0300
0300
ENDCHAR
STARTCHAR uni4E0E
ENCODING 19982
SWIDTH 1000 0
DWIDTH 14 0
BBX 12 14 1 -2
BITMAP
3000
3000
3FE0
3FE0
3000
3FF0
7FF0
0030
0020
FF20
FF60
0060
03E0
0380
ENDCHAR
STARTCHAR uni4E10
ENCODING 19984
SWIDTH 1000 0
DWIDTH 14 0
BBX 12 13 1 -2
BITMAP
FFF0
FFF0
0600
67E0
67E0
6600
6600
7FF0
7FF0
0030
0030
07E0
03E0
ENDCHAR
STARTCHAR uni4E11
ENCODING 19985
SWIDTH 1000 0
DWIDTH 14 0
BBX 12 13 1 -2
BITMAP
7FE0
7FE0
0860
0860
0860
7FE0
7FE0
1860
1840
1840
1840
FFF0
FFF0
ENDCHAR
STARTCHAR uni4E13
ENCODING 19987
SWIDTH 1000 0
DWIDTH 14 0
BBX 12 14 1 -2
BITMAP
0C00
7FE0
7FE0
0800
FFF0
FFF0
1800
1FC0
3FE0
00C0
1980
1F00
03C0
00C0
ENDCHAR
STARTCHAR uni4E14
ENCODING 19988
SWIDTH 1000 0
DWIDTH 14 0
BBX 12 13 1 -2
BITMAP
3FC0
3FC0
2040
3FC0
3FC0
2040
2040
3FC0
3FC0
2040
2040
FFF0
FFF0
ENDCHAR
STARTCHAR uni4E15
ENCODING 19989
SWIDTH 1000 0
DWIDTH 14 0
BBX 13 13 0 -2
BITMAP
7FF8
7FF8
0300
0700
0FC0
1F70
7B38
6318
0300
0300
0300
7FF8
7FF8
ENDCHAR
STARTCHAR uni4E16
ENCODING 19990
SWIDTH 1000 0
DWIDTH 14 0
BBX 12 13 1 -1
BITMAP
2660
2660
2660
FFF0
FFF0
2660
2660
2660
27E0
27E0
2000
3FF0
3FF0
ENDCHAR
STARTCHAR uni4E18
ENCODING 19992
SWIDTH 1000 0
DWIDTH 14 0
BBX 12 13 1 -1
BITMAP
0040
1FC0
3F00
2000
2000
3FF0
3FF0
20C0
20C0
20C0
20C0
FFF0
FFF0
ENDCHAR
STARTCHAR uni4E19
ENCODING 19993
SWIDTH 1000 0
DWIDTH 14 0
BBX 12 13 1 -2
BITMAP
FFF0
FFF0
0600
FFF0
FFF0
C630
C630
CFB0
D9F0
F8B0
C030
C0F0
C0E0
ENDCHAR
STARTCHAR uni4E1A
ENCODING 19994
SWIDTH 1000 0
DWIDTH 14 0
BBX 12 13 1 -1
BITMAP
1980
1980
1980
D980
D9B0
59B0
79E0
79E0
79C0
1980
1980
FFF0
FFF0
ENDCHAR
STARTCHAR uni4E1B
ENCODING 19995
SWIDTH 1000 0
DWIDTH 14 0
BBX 12 14 1 -2
BITMAP
30C0
30C0
3080
3080
3180
39C0
2DC0
6D60
6360
C730
C630
0000
FFF0
FFF0
ENDCHAR
STARTCHAR uni4E1C
ENCODING 19996
SWIDTH 1000 0
DWIDTH 14 0
BBX 12 14 1 -2
BITMAP
0C00
0C00
FFF0
FFF0
3300
3300
7FE0
7FE0
0300
33C0
6360
6330
CE10
0C00
ENDCHAR
STARTCHAR uni4E1D
ENCODING 19997
SWIDTH 1000 0
DWIDTH 14 0
BBX 12 13 1 -1
BITMAP
1040
30C0
2080
6DB0
4D30
FBE0
F2C0
30C0
6180
FFF0
0200
FFF0
FFF0
ENDCHAR
STARTCHAR uni4E1E
ENCODING 19998
SWIDTH 1000 0
DWIDTH 14 0
BBX 13 14 0 -2
BITMAP
0000
3FE0
00C0
0390
7FD8
0BF0
1B60
1B60
3330
6338
6F18
0000
7FF8
7FF8
ENDCHAR
STARTCHAR uni4E22
ENCODING 20002
SWIDTH 1000 0
DWIDTH 14 0
BBX 12 14 1 -2
BITMAP
00E0
FFE0
6600
0600
7FE0
7FE0
0600
FFF0
FFF0
18C0
30C0
7FE0
7FF0
0020
ENDCHAR
STARTCHAR uni4E24
ENCODING 20004
SWIDTH 1000 0
DWIDTH 14 0
BBX 12 13 1 -2
BITMAP
FFF0
FFF0
1980
FFF0
FFF0
D9B0
D9B0
DDB0
DFF0
F370
F230
C0F0
C0E0
ENDCHAR
STARTCHAR uni4E25
ENCODING 20005
SWIDTH 1000 0
DWIDTH 14 0
BBX 13 13 0 -2
BITMAP
7FF8
34B0
34B0
14A0
0480
7FF8
6000
6000
6000
6000
6000
C000
4000
ENDCHAR
STARTCHAR uni4E27
ENCODING 20007
SWIDTH 1000 0
DWIDTH 14 0
BBX 13 14 1 -2
BITMAP
0600
FFF0
FFF0
6640
26C0
36C0
FFF0
FFF0
3620
3360
33C0
3DC0
7CF0
2030
ENDCHAR
STARTCHAR uni4E28
ENCODING 20008
SWIDTH 1000 0
DWIDTH 14 0
BBX 2 13 6 -2
BITMAP
C0
C0
C0
C0
C0
C0
C0
C0
C0
C0
C0
C0
C0
ENDCHAR
STARTCHAR uni4E2A
ENCODING 20010
SWIDTH 1000 0
DWIDTH 14 0
BBX 14 13 0 -1
BITMAP
0100
0300
0780
0CE0
3870
7338
4308
0300
0300
0300
0300
0300
0300
ENDCHAR
STARTCHAR uni4E2B
ENCODING 20011
SWIDTH 1000 0
DWIDTH 14 0
BBX 10 13 2 -2
BITMAP
C0C0
E1C0
7380
1700
0E00
0C00
0C00
0C00
0C00
0C00
0C00
0C00
0C00
ENDCHAR
STARTCHAR uni4E2C
ENCODING 20012
SWIDTH 1000 0
DWIDTH 14 0
BBX 5 13 3 -2
BITMAP
08
08
68
68
28
08
08
18
78
68
08
08
08
ENDCHAR
STARTCHAR uni4E2D
ENCODING 20013
SWIDTH 1000 0
DWIDTH 14 0
BBX 12 14 1 -2
BITMAP
0600
0600
FFF0
FFF0
C630
C630
C630
FFF0
FFF0
C630
0600
0600
0600
0600
ENDCHAR
STARTCHAR uni4E30
ENCODING 20016
SWIDTH 1000 0
DWIDTH 14 0
BBX 12 14 1 -2
BITMAP
0600
0600
FFF0
FFF0
0600
7FE0
7FE0
0600
0600
FFF0
FFF0
0600
0600
0600
ENDCHAR
STARTCHAR uni4E32
ENCODING 20018
SWIDTH 1000 0
DWIDTH 14 0
BBX 12 14 1 -2
BITMAP
0600
0600
7FE0
6660
6660
7FE0
0600
FFF0
FFF0
C630
FFF0
FFF0
0600
0600
ENDCHAR
STARTCHAR uni4E34
ENCODING 20020
SWIDTH 1000 0
DWIDTH 14 0
BBX 12 14 1 -2
BITMAP
3300
B3F0
B7F0
B680
BDC0
BCE0
B040
B7F0
B7F0
B6B0
B6B0
B7F0
37F0
3630
ENDCHAR
STARTCHAR uni4E36
ENCODING 20022
SWIDTH 1000 0
DWIDTH 14 0
BBX 7 6 3 2
BITMAP
60
70
38
1C
0E
04
ENDCHAR
STARTCHAR uni4E38
ENCODING 20024
SWIDTH 1000 0
DWIDTH 14 0
BBX 14 14 0 -2
BITMAP
0600
0600
0600
7FE0
7FE0
0660
3460
3C60
1C60
0F60
1B6C
306C
F078
4038
ENDCHAR
STARTCHAR uni4E39
ENCODING 20025
SWIDTH 1000 0
DWIDTH 14 0
BBX 13 14 0 -2
BITMAP
1FF0
1FF0
1030
1630
1330
1130
7FF8
7FF8
3030
3030
3030
6030
61F0
40E0
ENDCHAR
STARTCHAR uni4E3A
ENCODING 20026
SWIDTH 1000 0
DWIDTH 14 0
BBX 12 14 1 -2
BITMAP
2C00
6C00
3C00
FFF0
FFF0
0C30
0C30
1B30
1930
3930
3020
6060
C1E0
01C0
ENDCHAR
STARTCHAR uni4E3B
ENCODING 20027
SWIDTH 1000 0
DWIDTH 14 0
BBX 12 14 1 -2
BITMAP
0400
0E00
0700
FFF0
FFF0
0600
0600
7FE0
7FE0
0600
0600
0600
FFF0
FFF0
ENDCHAR
STARTCHAR uni4E3D
ENCODING 20029
SWIDTH 1000 0
DWIDTH 14 0
BBX 12 13 1 -2
BITMAP
FFF0
FFF0
FFF0
FFF0
CF30
EF30
EFF0
FFF0
DF70
CF30
CF30
DF70
DB60
ENDCHAR
STARTCHAR uni4E3E
ENCODING 20030
SWIDTH 1000 0
DWIDTH 14 0
BBX 14 14 0 -2
BITMAP
0220
3330
1B60
7FF8
7FF8
1B60
3338
FFF8
5FE8
0300
7FF8
7FF8
0300
0300
ENDCHAR
STARTCHAR uni4E3F
ENCODING 20031
SWIDTH 1000 0
DWIDTH 14 0
BBX 5 13 3 -2
BITMAP
08
08
08
08
08
08
18
18
18
30
70
E0
00
ENDCHAR
STARTCHAR uni4E43
ENCODING 20035
SWIDTH 1000 0
DWIDTH 14 0
BBX 13 13 0 -2
BITMAP
7FE0
7FC0
18C0
18C0
18C0
18F8
19F8
1018
3018
3018
6030
E1F0
40E0
ENDCHAR
STARTCHAR uni4E45
ENCODING 20037
SWIDTH 1000 0
DWIDTH 14 0
BBX 14 14 0 -2
BITMAP
0C00
0C00
0F80
1FC0
38C0
3180
6180
6380
07C0
06C0
0C60
3870
703C
6008
ENDCHAR
STARTCHAR uni4E47
ENCODING 20039
SWIDTH 1000 0
DWIDTH 14 0
BBX 13 14 1 -2
BITMAP
00C0
07E0
FF00
FC00
0C00
0C00
0FF8
FFF8
FC00
0C00
0C00
0C10
0FF0
07F0
ENDCHAR
STARTCHAR uni4E48
ENCODING 20040
SWIDTH 1000 0
DWIDTH 14 0
BBX 12 13 1 -1
BITMAP
0400
0C00
1800
38C0
7180
E300
C700
0E40
1CC0
3860
7FF0
7FF0
0010
ENDCHAR
STARTCHAR uni4E49
ENCODING 20041
SWIDTH 1000 0
DWIDTH 14 0
BBX 14 13 0 -1
BITMAP
0600
0310
3330
3130
1820
1860
0CC0
0FC0
0780
0780
1FE0
7878
6018
ENDCHAR
STARTCHAR uni4E4B
ENCODING 20043
SWIDTH 1000 0
DWIDTH 14 0
BBX 13 14 1 -2
BITMAP
0400
0600
0300
FFE0
FFE0
00C0
01C0
0380
0700
0E00
3800
F000
DFF0
83E0
ENDCHAR
STARTCHAR uni4E4C
ENCODING 20044
SWIDTH 1000 0
DWIDTH 14 0
BBX 12 14 1 -2
BITMAP
0400
0C00
3FE0
2060
2060
21C0
2000
3FF0
0030
0030
FFB0
0030
0130
00E0
ENDCHAR
STARTCHAR uni4E4D
ENCODING 20045
SWIDTH 1000 0
DWIDTH 14 0
BBX 13 14 0 -2
BITMAP
0C00
1800
1FF8
3FF8
3600
6600
67F0
07F0
0600
07F8
07F8
0600
0600
0600
ENDCHAR
STARTCHAR uni4E4E
ENCODING 20046
SWIDTH 1000 0
DWIDTH 14 0
BBX 12 14 1 -2
BITMAP
0060
FFE0
7F00
2660
6660
2640
2640
FFF0
FFF0
0600
0600
0600
3E00
1E00
ENDCHAR
STARTCHAR uni4E4F
ENCODING 20047
SWIDTH 1000 0
DWIDTH 14 0
BBX 14 14 0 -2
BITMAP
0030
7FF8
3F80
0600
0300
3FF0
3FF0
0060
01C0
0380
3E00
7C00
4FF8
41F0
ENDCHAR
STARTCHAR uni4E50
ENCODING 20048
SWIDTH 1000 0
DWIDTH 14 0
BBX 14 14 0 -2
BITMAP
0070
3FF0
3000
3300
3300
2300
7FF8
3FF8
0300
1330
3330
6318
4F08
0700
ENDCHAR
STARTCHAR uni4E52
ENCODING 20050
SWIDTH 1000 0
DWIDTH 14 0
BBX 12 14 1 -2
BITMAP
00C0
3FE0
3000
3000
3FF0
3FF0
3080
3080
FFF0
FFF0
1000
3800
E000
C000
ENDCHAR
STARTCHAR uni4E53
ENCODING 20051
SWIDTH 1000 0
DWIDTH 14 0
BBX 12 14 1 -2
BITMAP
00C0
3FE0
3000
3000
3FF0
3FF0
3080
3080
FFF0
FFF0
0080
01C0
0070
0020
ENDCHAR
STARTCHAR uni4E54
ENCODING 20052
SWIDTH 1000 0
DWIDTH 14 0
BBX 14 14 0 -2
BITMAP
0070
3FF0
0600
7FF8
7FF8
1CE0
3870
FCF8
4CC8
08C0
18C0
18C0
30C0
20C0
ENDCHAR
STARTCHAR uni4E56
ENCODING 20054
SWIDTH 1000 0
DWIDTH 14 0
BBX 13 14 1 -2
BITMAP
03C0
7FE0
0600
FFF0
FFF0
1680
16B0
F6F0
16C0
7698
D6F0
1600
0600
0600
ENDCHAR
STARTCHAR uni4E58
ENCODING 20056
SWIDTH 1000 0
DWIDTH 14 0
BBX 14 14 0 -2
BITMAP
0070
3FF0
0300
7FF8
7FF8
0B40
7B78
0B40
7B48
4FF8
0FC0
3B70
7338
4308
ENDCHAR
STARTCHAR uni4E59
ENCODING 20057
SWIDTH 1000 0
DWIDTH 14 0
BBX 12 12 1 -1
BITMAP
FFC0
FFC0
0380
0700
0C00
1800
3000
6000
C010
C030
FFF0
7FE0
ENDCHAR
STARTCHAR uni4E5C
ENCODING 20060
SWIDTH 1000 0
DWIDTH 14 0
BBX 13 14 0 -2
BITMAP
1800
1800
1820
18F0
1FF0
3E30
7830
1820
18E0
1880
1808
1818
1FF8
03C0
ENDCHAR
STARTCHAR uni4E5D
ENCODING 20061
SWIDTH 1000 0
DWIDTH 14 0
BBX 14 14 0 -2
BITMAP
0400
0400
0400
0C00
7FC0
7FC0
0C40
0C40
0C40
1840
184C
304C
E078
4038
ENDCHAR
STARTCHAR uni4E5E
ENCODING 20062
SWIDTH 1000 0
DWIDTH 14 0
BBX 13 14 0 -2
BITMAP
0800
1800
1FF8
3FF8
6000
5FE0
1FC0
0780
0E00
1C00
3008
3018
3FF8
0FF0
ENDCHAR
STARTCHAR uni4E5F
ENCODING 20063
SWIDTH 1000 0
DWIDTH 14 0
BBX 13 14 0 -2
BITMAP
0100
1100
1110
11F0
1790
3D10
F110
5110
1130
1160
1008
1808
1FF8
03C0
ENDCHAR
STARTCHAR uni4E60
ENCODING 20064
SWIDTH 1000 0
DWIDTH 14 0
BBX 12 13 1 -2
BITMAP
FFF0
FFF0
0030
3830
1C30
0C30
00B0
07B0
3E20
F820
4060
01E0
0180
ENDCHAR
STARTCHAR uni4E61
ENCODING 20065
SWIDTH 1000 0
DWIDTH 14 0
BBX 12 14 1 -2
BITMAP
0600
0E00
1C40
31C0
7F80
0700
1C30
7FE0
7FE0
01C0
0380
1F00
FC00
6000
ENDCHAR
STARTCHAR uni4E66
ENCODING 20070
SWIDTH 1000 0
DWIDTH 14 0
BBX 12 14 1 -2
BITMAP
0C40
0C60
7FF0
7FD0
0C40
0C40
FFF0
FFF0
0C10
0C30
0C30
0CF0
0CC0
0C00
ENDCHAR
STARTCHAR uni4E69
ENCODING 20073
SWIDTH 1000 0
DWIDTH 14 0
BBX 13 14 1 -2
BITMAP
3180
3180
3180
3F80
3180
3180
3180
FD80
8580
8598
8590
FD90
FDF0
84E0
ENDCHAR
STARTCHAR uni4E70
ENCODING 20080
SWIDTH 1000 0
DWIDTH 14 0
BBX 12 14 1 -2
BITMAP
FFE0
FFF0
0030
3360
1B20
4B00
7200
2200
FFF0
FFF0
0D00
1DC0
F070
C030
ENDCHAR
STARTCHAR uni4E71
ENCODING 20081
SWIDTH 1000 0
DWIDTH 14 0
BBX 14 14 0 -2
BITMAP
06C0
7EC0
58C0
18C0
FFC0
FFC0
18C0
18C0
7EC0
62C0
62CC
62C8
7EF8
6078
ENDCHAR
STARTCHAR uni4E73
ENCODING 20083
SWIDTH 1000 0
DWIDTH 14 0
BBX 13 14 1 -2
BITMAP
0E80
FE80
1680
F680
5480
8080
FE80
0C80
1880
FE90
F090
1090
10F0
7060
ENDCHAR
STARTCHAR uni4E7E
ENCODING 20094
SWIDTH 1000 0
DWIDTH 14 0
BBX 13 14 1 -2
BITMAP
3180
3180
FDF0
33F0
FF00
8E00
FDE0
8C60
FCC0
3180
FD10
FF18
33F0
30E0
ENDCHAR
STARTCHAR uni4E86
ENCODING 20102
SWIDTH 1000 0
DWIDTH 14 0
BBX 12 13 1 -2
BITMAP
FFE0
FFE0
01C0
0380
0700
0600
0600
0600
0600
0600
0600
3E00
1C00
ENDCHAR
STARTCHAR uni4E88
ENCODING 20104
SWIDTH 1000 0
DWIDTH 14 0
BBX 12 13 1 -2
BITMAP
7FE0
7FC0
0980
1F00
0780
FFF0
FFF0
0660
0660
0600
0600
1E00
1E00
ENDCHAR
STARTCHAR uni4E89
ENCODING 20105
SWIDTH 1000 0
DWIDTH 14 0
BBX 14 14 0 -2
BITMAP
0C00
1FC0
18C0
30C0
7FF0
0330
FFFC
FFFC
0330
3FF0
3FF0
0300
0F00
0E00
ENDCHAR
STARTCHAR uni4E8B
ENCODING 20107
SWIDTH 1000 0
DWIDTH 14 0
BBX 12 14 1 -2
BITMAP
0600
FFF0
0600
7FE0
6660
7FE0
0600
7FE0
0660
FFF0
0660
7FE0
0660
1C00
ENDCHAR
STARTCHAR uni4E8C
ENCODING 20108
SWIDTH 1000 0
DWIDTH 14 0
BBX 12 11 1 -1
BITMAP
7FE0
7FE0
0000
0000
0000
0000
0000
0000
0000
FFF0
FFF0
ENDCHAR
STARTCHAR uni4E8D
ENCODING 20109
SWIDTH 1000 0
DWIDTH 14 0
BBX 12 13 1 -2
BITMAP
7FE0
7FE0
0000
0000
FFF0
FFF0
0600
0600
0600
0600
0600
1E00
1E00
ENDCHAR
STARTCHAR uni4E8E
ENCODING 20110
SWIDTH 1000 0
DWIDTH 14 0
BBX 12 13 1 -2
BITMAP
7FE0
7FE0
0600
0600
0600
FFF0
FFF0
0600
0600
0600
0600
1E00
1C00
ENDCHAR
STARTCHAR uni4E8F
ENCODING 20111
SWIDTH 1000 0
DWIDTH 14 0
BBX 12 13 1 -2
BITMAP
7FE0
7FE0
0000
FFF0
FFF0
1800
1000
3FE0
3FE0
0060
0060
06C0
07C0
ENDCHAR
STARTCHAR uni4E91
ENCODING 20113
SWIDTH 1000 0
DWIDTH 14 0
BBX 12 13 1 -2
BITMAP
7FE0
7FE0
0000
0000
FFF0
FFF0
1C00
1880
30C0
7060
FFE0
7FF0
0020
ENDCHAR
STARTCHAR uni4E92
ENCODING 20114
SWIDTH 1000 0
DWIDTH 14 0
BBX 12 14 1 -2
BITMAP
FFF0
FFF0
1800
1800
1FC0
3FC0
30C0
30C0
3FC0
3FC0
0080
0180
FFF0
FFF0
ENDCHAR
STARTCHAR uni4E93
ENCODING 20115
SWIDTH 1000 0
DWIDTH 14 0
BBX 12 13 1 -2
BITMAP
7FE0
7FE0
0000
0000
FFF0
FFF0
1880
1880
1080
3080
7080
E080
4080
ENDCHAR
STARTCHAR uni4E94
ENCODING 20116
SWIDTH 1000 0
DWIDTH 14 0
BBX 12 12 1 -1
BITMAP
7FE0
7FE0
0C00
0C00
0C00
7FC0
7FC0
08C0
18C0
18C0
FFF0
FFF0
ENDCHAR
STARTCHAR uni4E95
ENCODING 20117
SWIDTH 1000 0
DWIDTH 14 0
BBX 12 14 1 -2
BITMAP
1880
1880
1880
FFF0
FFF0
1880
1880
FFF0
FFF0
3080
3080
6080
E080
4080
ENDCHAR
STARTCHAR uni4E98
ENCODING 20120
SWIDTH 1000 0
DWIDTH 14 0
BBX 12 13 1 -2
BITMAP
FFF0
FFF0
0000
3FC0
2040
2040
3FC0
2040
3FC0
0000
0000
FFF0
FFF0
ENDCHAR
STARTCHAR uni4E9A
ENCODING 20122
SWIDTH 1000 0
DWIDTH 14 0
BBX 13 12 0 -1
BITMAP
7FF8
7FF8
0CC0
2CD0
6CD8
2CD0
3CF0
3CF0
1CE0
0CC0
FFF8
FFF8
ENDCHAR
STARTCHAR uni4E9B
ENCODING 20123
SWIDTH 1000 0
DWIDTH 14 0
BBX 13 14 0 -2
BITMAP
0880
0880
68B0
6EF0
6880
6888
6EF8
7EF8
0000
3FF0
3FF0
0000
7FF8
7FF8
ENDCHAR
STARTCHAR uni4E9F
ENCODING 20127
SWIDTH 1000 0
DWIDTH 14 0
BBX 12 14 1 -2
BITMAP
0040
7FE0
0380
0700
F7F0
D630
D7A0
D6E0
F660
06F0
1FA0
0000
FFF0
FFF0
ENDCHAR
STARTCHAR uni4EA0
ENCODING 20128
SWIDTH 1000 0
DWIDTH 14 0
BBX 12 5 1 7
BITMAP
0400
0600
0600
FFF0
FFF0
ENDCHAR
STARTCHAR uni4EA1
ENCODING 20129
SWIDTH 1000 0
DWIDTH 14 0
BBX 12 13 1 -1
BITMAP
0600
0600
0700
FFF0
FFF0
6000
6000
6000
6000
6000
6000
7FE0
7FE0
ENDCHAR
STARTCHAR uni4EA2
ENCODING 20130
SWIDTH 1000 0
DWIDTH 14 0
BBX 14 14 0 -2
BITMAP
0300
0300
7FF8
7FF8
0000
0FC0
0FC0
0840
0840
1840
1848
384C
707C
6078
ENDCHAR
STARTCHAR uni4EA4
ENCODING 20132
SWIDTH 1000 0
DWIDTH 14 0
BBX 12 14 1 -2
BITMAP
0600
0600
FFF0
FFF0
18C0
70E0
E070
59A0
1980
0F00
0600
1F80
F9F0
C030
ENDCHAR
STARTCHAR uni4EA5
ENCODING 20133
SWIDTH 1000 0
DWIDTH 14 0
BBX 12 14 1 -2
BITMAP
0600
0600
FFF0
FFF0
1880
7F80
7F20
0E60
7CC0
F180
0780
3FE0
F870
C020
ENDCHAR
STARTCHAR uni4EA6
ENCODING 20134
SWIDTH 1000 0
DWIDTH 14 0
BBX 13 14 0 -2
BITMAP
0300
0300
7FF8
7FF8
04C0
24C0
34F0
24D0
6CD8
6CD8
0CC8
18C0
3BC0
3380
ENDCHAR
STARTCHAR uni4EA7
ENCODING 20135
SWIDTH 1000 0
DWIDTH 14 0
BBX 13 14 0 -2
BITMAP
0300
7FF8
7FF8
0860
0C60
0C40
3FF8
3FF8
2000
2000
6000
6000
6000
4000
ENDCHAR
STARTCHAR uni4EA8
ENCODING 20136
SWIDTH 1000 0
DWIDTH 14 0
BBX 12 14 1 -2
BITMAP
0600
FFF0
0000
0000
3FC0
2040
3FC0
0000
FFE0
03C0
0700
0600
0600
1E00
ENDCHAR
STARTCHAR uni4EA9
ENCODING 20137
SWIDTH 1000 0
DWIDTH 14 0
BBX 12 14 1 -2
BITMAP
0600
0600
FFF0
FFF0
0000
7FE0
7FE0
4620
7FE0
7FE0
4620
7FE0
7FE0
4020
ENDCHAR
STARTCHAR uni4EAB
ENCODING 20139
SWIDTH 1000 0
DWIDTH 14 0
BBX 12 14 1 -2
BITMAP
0600
FFF0
0000
3FE0
2060
3FE0
0000
7FE0
01C0
0780
FFF0
0600
0600
1E00
ENDCHAR
STARTCHAR uni4EAC
ENCODING 20140
SWIDTH 1000 0
DWIDTH 14 0
BBX 12 14 1 -2
BITMAP
0600
FFF0
FFF0
0000
7FE0
6060
6060
6060
7FE0
0600
76C0
6660
DE30
1E00
ENDCHAR
STARTCHAR uni4EAD
ENCODING 20141
SWIDTH 1000 0
DWIDTH 14 0
BBX 12 14 1 -2
BITMAP
0600
FFF0
0000
3FC0
2040
3FC0
0000
FFF0
8010
BFD0
0600
0600
1600
1E00
ENDCHAR
STARTCHAR uni4EAE
ENCODING 20142
SWIDTH 1000 0
DWIDTH 14 0
BBX 12 14 1 -2
BITMAP
0600
FFF0
0000
3FC0
2040
3FC0
0000
FFF0
8030
9FB0
1180
3190
E1F0
C000
ENDCHAR
STARTCHAR uni4EB2
ENCODING 20146
SWIDTH 1000 0
DWIDTH 14 0
BBX 12 14 1 -2
BITMAP
0600
0600
7FF0
30C0
1880
FFF0
0600
0600
FFF0
0600
36C0
6660
C670
0E00
ENDCHAR
STARTCHAR uni4EB3
ENCODING 20147
SWIDTH 1000 0
DWIDTH 14 0
BBX 12 14 1 -2
BITMAP
0600
FFF0
0000
3FE0
2060
3FE0
0000
FFF0
8390
BF00
0FF0
FC00
0C10
07F0
ENDCHAR
STARTCHAR uni4EB5
ENCODING 20149
SWIDTH 1000 0
DWIDTH 14 0
BBX 13 14 0 -2
BITMAP
0300
7FF8
10C0
7FF0
10B0
7F90
79D8
1358
3700
1D30
79C0
09E0
1F38
1808
ENDCHAR
STARTCHAR uni4EBA
ENCODING 20154
SWIDTH 1000 0
DWIDTH 14 0
BBX 14 13 0 -1
BITMAP
0300
0300
0300
0300
0300
0700
0780
0780
0CC0
1CE0
3870
703C
6008
ENDCHAR
STARTCHAR uni4EBB
ENCODING 20155
SWIDTH 1000 0
DWIDTH 14 0
BBX 7 13 0 -1
BITMAP
06
06
0C
18
18
38
68
48
08
08
08
08
08
ENDCHAR
STARTCHAR uni4EBF
ENCODING 20159
SWIDTH 1000 0
DWIDTH 14 0
BBX 13 14 0 -2
BITMAP
1800
1FF0
37F8
3030
7060
F0C0
7180
3180
3300
3200
3608
3608
37F8
31F0
ENDCHAR
STARTCHAR uni4EC0
ENCODING 20160
SWIDTH 1000 0
DWIDTH 14 0
BBX 13 14 0 -2
BITMAP
18C0
18C0
10C0
30C0
70C0
77F8
77F8
30C0
30C0
30C0
30C0
30C0
30C0
30C0
ENDCHAR
STARTCHAR uni4EC1
ENCODING 20161
SWIDTH 1000 0
DWIDTH 14 0
BBX 14 14 0 -2
BITMAP
0800
1800
1BF8
33F8
7000
F000
7000
3000
3000
3000
3000
37FC
37FC
3000
ENDCHAR
STARTCHAR uni4EC2
ENCODING 20162
SWIDTH 1000 0
DWIDTH 14 0
BBX 13 14 0 -2
BITMAP
1980
1980
3180
37F8
77F8
F198
7198
3198
3118
3318
3318
3618
3678
3470
ENDCHAR
STARTCHAR uni4EC3
ENCODING 20163
SWIDTH 1000 0
DWIDTH 14 0
BBX 14 14 0 -2
BITMAP
1000
1FFC
37FC
3060
7060
7060
7060
3060
3060
3060
3060
3060
31E0
31C0
ENDCHAR
STARTCHAR uni4EC4
ENCODING 20164
SWIDTH 1000 0
DWIDTH 14 0
BBX 14 13 0 -2
BITMAP
3FF8
3FF8
2180
2180
2180
2180
2180
61C0
63C0
6360
6630
5C18
4808
ENDCHAR
STARTCHAR uni4EC5
ENCODING 20165
SWIDTH 1000 0
DWIDTH 14 0
BBX 14 14 0 -2
BITMAP
0800
1FF0
1FF8
3218
7218
F310
7330
31B0
31E0
30C0
31E0
33F0
3F3C
3408
ENDCHAR
STARTCHAR uni4EC6
ENCODING 20166
SWIDTH 1000 0
DWIDTH 14 0
BBX 14 13 0 -2
BITMAP
0980
1980
1180
3180
71E0
F1F0
71B8
3198
3180
3180
3180
3180
3180
ENDCHAR
STARTCHAR uni4EC7
ENCODING 20167
SWIDTH 1000 0
DWIDTH 14 0
BBX 14 14 0 -2
BITMAP
1B00
1B00
3300
3FE0
7FE0
F320
7320
3320
3320
3220
362C
362C
3C38
3010
ENDCHAR
STARTCHAR uni4EC9
ENCODING 20169
SWIDTH 1000 0
DWIDTH 14 0
BBX 14 14 0 -2
BITMAP
1000
1BE0
33E0
3220
7220
F220
7220
3220
3220
3620
362C
3628
3C38
3410
ENDCHAR
STARTCHAR uni4ECA
ENCODING 20170
SWIDTH 1000 0
DWIDTH 14 0
BBX 14 14 0 -2
BITMAP
0300
0300
07C0
1CE0
3A70
7338
4180
3FF0
3FF0
0060
00E0
01C0
0180
0100
ENDCHAR
STARTCHAR uni4ECB
ENCODING 20171
SWIDTH 1000 0
DWIDTH 14 0
BBX 14 13 0 -1
BITMAP
0100
0300
0780
1CE0
7878
6018
0860
0860
0860
1860
1860
3060
6060
ENDCHAR
STARTCHAR uni4ECD
ENCODING 20173
SWIDTH 1000 0
DWIDTH 14 0
BBX 13 14 0 -2
BITMAP
1000
37E0
37E0
2360
6360
E378
6278
2218
2618
2618
2618
2418
2C78
2870
ENDCHAR
STARTCHAR uni4ECE
ENCODING 20174
SWIDTH 1000 0
DWIDTH 14 0
BBX 14 13 0 -2
BITMAP
1860
1840
1840
18C0
18C0
1CC0
1CE0
36E0
33A0
31B0
6398
6718
0000
ENDCHAR
STARTCHAR uni4ED1
ENCODING 20177
SWIDTH 1000 0
DWIDTH 14 0
BBX 14 14 0 -2
BITMAP
0100
0300
0780
0CE0
3870
7038
5848
19E0
1F80
1C00
1810
1830
1FF0
07C0
ENDCHAR
STARTCHAR uni4ED3
ENCODING 20179
SWIDTH 1000 0
DWIDTH 14 0
BBX 14 14 0 -2
BITMAP
0300
0300
0780
0CC0
3870
FFFC
7FE8
1860
1860
19C0
1810
1830
1FF0
0FE0
ENDCHAR
STARTCHAR uni4ED4
ENCODING 20180
SWIDTH 1000 0
DWIDTH 14 0
BBX 14 14 0 -2
BITMAP
1800
1FF8
37F8
3070
70E0
F0C0
7FFC
3FFC
30C0
30C0
30C0
30C0
33C0
33C0
ENDCHAR
STARTCHAR uni4ED5
ENCODING 20181
SWIDTH 1000 0
DWIDTH 14 0
BBX 14 14 0 -2
BITMAP
08C0
18C0
18C0
30C0
77FC
F7FC
70C0
30C0
30C0
30C0
30C0
30C0
37F8
37F8
ENDCHAR
STARTCHAR uni4ED6
ENCODING 20182
SWIDTH 1000 0
DWIDTH 14 0
BBX 14 14 0 -2
BITMAP
18C0
18C0
36C8
36F8
77F8
F7D8
7ED8
36D8
36F8
36C0
3608
3208
33F8
30E0
ENDCHAR
STARTCHAR uni4ED7
ENCODING 20183
SWIDTH 1000 0
DWIDTH 14 0
BBX 14 14 0 -2
BITMAP
0860
1860
1860
37F8
77F8
F660
7260
3360
33C0
31C0
31C0
33E0
3F7C
3618
ENDCHAR
STARTCHAR uni4ED8
ENCODING 20184
SWIDTH 1000 0
DWIDTH 14 0
BBX 14 14 0 -2
BITMAP
0830
1830
1830
37FC
77FC
7030
7230
7330
3330
31B0
3030
3030
31F0
30E0
ENDCHAR
STARTCHAR uni4ED9
ENCODING 20185
SWIDTH 1000 0
DWIDTH 14 0
BBX 13 14 0 -2
BITMAP
18C0
18C0
30C0
36D8
76D8
F6D8
76D8
36D8
36D8
36D8
36D8
37F8
37F8
3018
ENDCHAR
STARTCHAR uni4EDD
ENCODING 20189
SWIDTH 1000 0
DWIDTH 14 0
BBX 14 14 0 -2
BITMAP
0100
0300
0780
0CC0
3870
F038
5FF8
1FE0
0300
0300
0300
0300
7FF8
7FF8
ENDCHAR
STARTCHAR uni4EDE
ENCODING 20190
SWIDTH 1000 0
DWIDTH 14 0
BBX 13 14 0 -2
BITMAP
1000
1FF8
37F8
30C8
70C8
F6C8
7698
3498
3598
3198
3318
3318
3E78
3470
ENDCHAR
STARTCHAR uni4EDF
ENCODING 20191
SWIDTH 1000 0
DWIDTH 14 0
BBX 14 14 0 -2
BITMAP
1800
18F8
37E0
34C0
70C0
F0C0
7FFC
3FFC
30C0
30C0
30C0
30C0
30C0
30C0
ENDCHAR
STARTCHAR uni4EE1
ENCODING 20193
SWIDTH 1000 0
DWIDTH 14 0
BBX 13 14 0 -2
BITMAP
1900
1B00
33F8
37F8
7C00
F7E0
73F0
30E0
3180
3300
3608
3608
37F8
31F0
ENDCHAR
STARTCHAR uni4EE3
ENCODING 20195
SWIDTH 1000 0
DWIDTH 14 0
BBX 14 13 0 -2
BITMAP
09B0
1998
1988
3080
73F8
F7C0
50C0
10C0
10C0
10C8
106C
1078
1038
ENDCHAR
STARTCHAR uni4EE4
ENCODING 20196
SWIDTH 1000 0
DWIDTH 14 0
BBX 14 14 0 -2
BITMAP
0100
0300
0FC0
1CE0
7A78
6318
0100
3FF0
3FF0
00E0
0FC0
0780
01C0
0080
ENDCHAR
STARTCHAR uni4EE5
ENCODING 20197
SWIDTH 1000 0
DWIDTH 14 0
BBX 13 13 1 -2
BITMAP
6060
6C60
6660
6660
6260
6040
60C0
6CC0
7DC0
71E0
C730
0E10
0000
ENDCHAR
STARTCHAR uni4EE8
ENCODING 20200
SWIDTH 1000 0
DWIDTH 14 0
BBX 14 14 0 -2
BITMAP
0800
1800
1FF8
37F8
7000
7000
73F8
33F8
3000
3000
3000
37FC
37FC
3000
ENDCHAR
STARTCHAR uni4EEA
ENCODING 20202
SWIDTH 1000 0
DWIDTH 14 0
BBX 14 13 0 -2
BITMAP
1880
1ED8
36D8
3610
7210
F330
3320
31E0
31C0
30C0
33F0
3F3C
3418
ENDCHAR
STARTCHAR uni4EEB
ENCODING 20203
SWIDTH 1000 0
DWIDTH 14 0
BBX 13 13 0 -2
BITMAP
0900
1980
1B00
3360
7660
FEC0
70C0
31B0
31B0
3318
37F8
37F8
3008
ENDCHAR
STARTCHAR uni4EEC
ENCODING 20204
SWIDTH 1000 0
DWIDTH 14 0
BBX 13 14 0 -2
BITMAP
1600
32F8
3318
2C18
6C18
EC18
6C18
2C18
2C18
2C18
2C18
2C18
2C58
2C38
ENDCHAR
STARTCHAR uni4EF0
ENCODING 20208
SWIDTH 1000 0
DWIDTH 14 0
BBX 13 14 0 -2
BITMAP
1100
1780
36F8
24D8
64D8
E4D8
64D8
24D8
24D8
27D8
2FF8
20D0
20C0
20C0
ENDCHAR
STARTCHAR uni4EF2
ENCODING 20210
SWIDTH 1000 0
DWIDTH 14 0
BBX 13 14 0 -2
BITMAP
18C0
18C0
30C0
37F8
77F8
F4D8
74D8
37F8
37F8
34D8
30C0
30C0
30C0
30C0
ENDCHAR
STARTCHAR uni4EF3
ENCODING 20211
SWIDTH 1000 0
DWIDTH 14 0
BBX 14 14 0 -2
BITMAP
1E60
1660
3660
3660
7668
7778
F770
3660
3660
3660
3668
37E8
3778
3430
ENDCHAR
STARTCHAR uni4EF5
ENCODING 20213
SWIDTH 1000 0
DWIDTH 14 0
BBX 14 14 0 -2
BITMAP
1B00
1B00
33F8
37F8
76C0
FCC0
70C0
37FC
37FC
30C0
30C0
30C0
30C0
30C0
ENDCHAR
STARTCHAR uni4EF6
ENCODING 20214
SWIDTH 1000 0
DWIDTH 14 0
BBX 13 14 0 -2
BITMAP
18C0
1AC0
36C0
37F8
77F8
FCC0
74C0
3FF8
3FF8
30C0
30C0
30C0
30C0
30C0
ENDCHAR
STARTCHAR uni4EF7
ENCODING 20215
SWIDTH 1000 0
DWIDTH 14 0
BBX 14 13 0 -2
BITMAP
18C0
19C0
31E0
3330
7E18
7F38
7330
3330
3330
3230
3630
3E30
3430
ENDCHAR
STARTCHAR uni4EFB
ENCODING 20219
SWIDTH 1000 0
DWIDTH 14 0
BBX 13 14 0 -2
BITMAP
0810
19F8
1FE0
30C0
70C0
70C0
7FF8
3FF8
30C0
30C0
30C0
30C0
37F8
37F8
ENDCHAR
STARTCHAR uni4EFD
ENCODING 20221
SWIDTH 1000 0
DWIDTH 14 0
BBX 14 14 0 -2
BITMAP
1820
1B20
3320
3330
7630
7E18
7FF8
33F0
3130
3130
3330
3330
36B0
34E0
ENDCHAR
STARTCHAR uni4EFF
ENCODING 20223
SWIDTH 1000 0
DWIDTH 14 0
BBX 14 14 0 -2
BITMAP
18C0
18C0
37FC
37FC
7100
F100
71F8
33F8
3318
3318
3318
3610
3EB0
3C70
ENDCHAR
STARTCHAR uni4F01
ENCODING 20225
SWIDTH 1000 0
DWIDTH 14 0
BBX 14 14 0 -2
BITMAP
0300
0300
0F80
1CE0
7B78
6318
4300
1300
13F0
1300
1300
1300
7FF8
7FF8
ENDCHAR
STARTCHAR uni4F09
ENCODING 20233
SWIDTH 1000 0
DWIDTH 14 0
BBX 14 14 0 -2
BITMAP
1980
18C0
37F8
37F8
7000
F3E0
73E0
3320
3320
3220
3228
362C
3E2C
3C38
ENDCHAR
STARTCHAR uni4F0A
ENCODING 20234
SWIDTH 1000 0
DWIDTH 14 0
BBX 14 14 0 -2
BITMAP
1800
1FF8
37F8
3198
7FFC
FFFC
7198
3198
37F8
37F8
3100
3300
3600
3400
ENDCHAR
STARTCHAR uni4F0D
ENCODING 20237
SWIDTH 1000 0
DWIDTH 14 0
BBX 14 14 0 -2
BITMAP
1800
1FF8
37F8
3180
7180
7180
77F0
37F0
3110
3110
3330
3330
3FFC
3FFC
ENDCHAR
STARTCHAR uni4F0E
ENCODING 20238
SWIDTH 1000 0
DWIDTH 14 0
BBX 14 14 0 -2
BITMAP
18C0
18C0
37F8
37F8
70C0
F7F0
77F8
3610
3330
31E0
31E0
33E0
3F78
3418
ENDCHAR
STARTCHAR uni4F0F
ENCODING 20239
SWIDTH 1000 0
DWIDTH 14 0
BBX 14 14 0 -2
BITMAP
1890
18B0
1098
3090
7FF8
7FF8
70C0
31C0
31C0
31E0
3330
3330
3618
3408
ENDCHAR
STARTCHAR uni4F10
ENCODING 20240
SWIDTH 1000 0
DWIDTH 14 0
BBX 14 14 0 -2
BITMAP
09A0
19B0
1990
3198
7FF8
7780
7098
30B0
30F0
30E0
31C8
33EC
3678
3038
ENDCHAR
STARTCHAR uni4F11
ENCODING 20241
SWIDTH 1000 0
DWIDTH 14 0
BBX 14 14 0 -2
BITMAP
08C0
18C0
18C0
3FF8
7FF8
F1E0
71E0
33F0
33F0
36D8
3CDC
34C8
30C0
30C0
ENDCHAR
STARTCHAR uni4F17
ENCODING 20247
SWIDTH 1000 0
DWIDTH 14 0
BBX 13 13 1 -1
BITMAP
0600
0600
0F00
1980
70E0
F1F0
3180
3180
3980
6FC0
6360
C670
C620
ENDCHAR
STARTCHAR uni4F18
ENCODING 20248
SWIDTH 1000 0
DWIDTH 14 0
BBX 14 14 0 -2
BITMAP
1980
19B0
3198
3FF8
7FF8
F100
7140
3140
3340
3340
364C
3648
3C78
3030
ENDCHAR
STARTCHAR uni4F19
ENCODING 20249
SWIDTH 1000 0
DWIDTH 14 0
BBX 14 13 0 -2
BITMAP
18C0
18C0
34C0
36D8
76D8
F6D8
74D0
30C0
31E0
31E0
3330
3E1C
3408
ENDCHAR
STARTCHAR uni4F1A
ENCODING 20250
SWIDTH 1000 0
DWIDTH 14 0
BBX 14 14 0 -2
BITMAP
0300
0300
0F80
1CE0
7FF8
6FD8
0000
7FF8
7FF8
0E40
1C60
3FF0
3FF8
2010
ENDCHAR
STARTCHAR uni4F1B
ENCODING 20251
SWIDTH 1000 0
DWIDTH 14 0
BBX 14 14 0 -2
BITMAP
1800
1FF8
37F8
3610
7790
76F0
7660
3660
36F0
37D8
3790
3600
37FC
37FC
ENDCHAR
STARTCHAR uni4F1E
ENCODING 20254
SWIDTH 1000 0
DWIDTH 14 0
BBX 14 14 0 -2
BITMAP
0300
0780
0FC0
3870
7338
5328
1B20
1B60
0B40
7FF8
7FF8
0300
0300
0300
ENDCHAR
STARTCHAR uni4F1F
ENCODING 20255
SWIDTH 1000 0
DWIDTH 14 0
BBX 13 14 0 -2
BITMAP
18C0
18C0
37F8
37F8
77F8
F7F8
70C0
3FF8
3FF8
30C8
30C8
30D8
30D8
30C0
ENDCHAR
STARTCHAR uni4F20
ENCODING 20256
SWIDTH 1000 0
DWIDTH 14 0
BBX 13 14 0 -2
BITMAP
1880
1FF8
37F8
3180
7FF8
FFF8
7300
33F0
33F8
3030
3160
31C0
30E0
3020
ENDCHAR
STARTCHAR uni4F22
ENCODING 20258
SWIDTH 1000 0
DWIDTH 14 0
BBX 14 14 0 -2
BITMAP
1FF8
1FF8
3030
3230
7230
F7FC
77FC
30F0
31F0
31B0
3730
3E30
3CF0
30E0
ENDCHAR
STARTCHAR uni4F24
ENCODING 20260
SWIDTH 1000 0
DWIDTH 14 0
BBX 13 14 0 -2
BITMAP
1B00
1B00
33F8
37F8
7C80
F480
77F8
37F8
3198
3198
3118
3318
3618
3470
ENDCHAR
STARTCHAR uni4F25
ENCODING 20261
SWIDTH 1000 0
DWIDTH 14 0
BBX 14 14 0 -2
BITMAP
1A00
1A38
3230
32E0
72C0
FFF8
7FF8
3240
3260
3260
3270
33D8
3798
3208
ENDCHAR
STARTCHAR uni4F26
ENCODING 20262
SWIDTH 1000 0
DWIDTH 14 0
BBX 14 14 0 -2
BITMAP
18C0
19C0
31E0
3330
7638
FC18
7A20
3270
33C0
3300
3218
3218
33F8
30E0
ENDCHAR
STARTCHAR uni4F27
ENCODING 20263
SWIDTH 1000 0
DWIDTH 14 0
BBX 14 14 0 -2
BITMAP
18C0
19C0
31E0
3370
7638
7FF8
77F0
3630
3630
36E0
3608
3618
33F8
31F0
ENDCHAR
STARTCHAR uni4F2A
ENCODING 20266
SWIDTH 1000 0
DWIDTH 14 0
BBX 13 14 0 -2
BITMAP
1980
1D80
3780
3180
77F8
F7F8
7198
31D8
3178
3378
3318
3618
3E78
3C70
ENDCHAR
STARTCHAR uni4F2B
ENCODING 20267
SWIDTH 1000 0
DWIDTH 14 0
BBX 14 14 0 -2
BITMAP
0880
18C0
1860
37F8
77F8
7608
7000
3000
3000
3000
3000
37FC
37FC
3000
ENDCHAR
STARTCHAR uni4F2F
ENCODING 20271
SWIDTH 1000 0
DWIDTH 14 0
BBX 13 14 0 -2
BITMAP
18C0
18C0
17F8
37F8
3618
7618
F618
77F8
37F8
3618
3618
37F8
37F8
3618
ENDCHAR
STARTCHAR uni4F30
ENCODING 20272
SWIDTH 1000 0
DWIDTH 14 0
BBX 14 14 0 -2
BITMAP
18C0
18C0
30C0
37FC
77FC
F0C0
70C0
37F8
37F8
3618
3618
3618
37F8
37F8
ENDCHAR
STARTCHAR uni4F32
ENCODING 20274
SWIDTH 1000 0
DWIDTH 14 0
BBX 13 14 0 -2
BITMAP
1000
1FF8
37F8
3618
77F8
F7F8
7680
3698
36F0
34C0
3480
3C88
3C88
38F8
ENDCHAR
STARTCHAR uni4F34
ENCODING 20276
SWIDTH 1000 0
DWIDTH 14 0
BBX 14 14 0 -2
BITMAP
18C0
1ED8
16D8
32D0
72D0
77F8
77F8
30C0
3FFC
3FFC
30C0
30C0
30C0
30C0
ENDCHAR
STARTCHAR uni4F36
ENCODING 20278
SWIDTH 1000 0
DWIDTH 14 0
BBX 14 14 0 -2
BITMAP
18C0
19C0
31E0
3370
76B8
FCD8
7080
37F8
37F0
3070
33E0
31C0
30E0
3040
ENDCHAR
STARTCHAR uni4F38
ENCODING 20280
SWIDTH 1000 0
DWIDTH 14 0
BBX 13 14 0 -2
BITMAP
18C0
18C0
37F8
37F8
74C8
F4C8
77F8
34C8
37F8
37F8
34C8
30C0
30C0
30C0
ENDCHAR
STARTCHAR uni4F3A
ENCODING 20282
SWIDTH 1000 0
DWIDTH 14 0
BBX 13 14 0 -2
BITMAP
1000
1FF8
37F8
3018
77F8
F018
77D8
3658
3658
3658
37D8
3618
3078
3038
ENDCHAR
STARTCHAR uni4F3C
ENCODING 20284
SWIDTH 1000 0
DWIDTH 14 0
BBX 14 13 0 -2
BITMAP
1010
3710
3790
6790
6690
E6F0
6630
2630
27B0
27F8
2E78
24CC
2080
ENDCHAR
STARTCHAR uni4F3D
ENCODING 20285
SWIDTH 1000 0
DWIDTH 14 0
BBX 13 14 0 -2
BITMAP
1400
3400
3478
2FE8
65E8
E5E8
65E8
25E8
25E8
25E8
2DE8
2DF8
2968
2B60
ENDCHAR
STARTCHAR uni4F43
ENCODING 20291
SWIDTH 1000 0
DWIDTH 14 0
BBX 13 14 0 -2
BITMAP
1000
1FF8
37F8
34D8
74D8
F4D8
77F8
37F8
34D8
34D8
34D8
37F8
37F8
3418
ENDCHAR
STARTCHAR uni4F46
ENCODING 20294
SWIDTH 1000 0
DWIDTH 14 0
BBX 14 14 0 -2
BITMAP
1800
1FF8
37F8
3618
7618
77F8
77F8
3618
3618
37F8
37F8
3000
3FFC
3FFC
ENDCHAR
STARTCHAR uni4F4D
ENCODING 20301
SWIDTH 1000 0
DWIDTH 14 0
BBX 13 14 0 -2
BITMAP
18C0
18C0
17F8
37F8
7000
F330
7330
3330
3330
3130
3120
3020
37F8
37F8
ENDCHAR
STARTCHAR uni4F4E
ENCODING 20302
SWIDTH 1000 0
DWIDTH 14 0
BBX 14 14 0 -2
BITMAP
1830
1BF8
37E0
3660
7660
77F8
77F8
3660
3620
3620
36A8
36FC
3778
3658
ENDCHAR
STARTCHAR uni4F4F
ENCODING 20303
SWIDTH 1000 0
DWIDTH 14 0
BBX 14 14 0 -2
BITMAP
1880
18C0
10C0
37F8
77F8
F0C0
70C0
37F8
37F8
30C0
30C0
30C0
37FC
37FC
ENDCHAR
STARTCHAR uni4F50
ENCODING 20304
SWIDTH 1000 0
DWIDTH 14 0
BBX 14 14 0 -2
BITMAP
1980
1980
3180
3FFC
7FFC
F300
7300
33F8
37F8
3660
3C60
3C60
33FC
33FC
ENDCHAR
STARTCHAR uni4F51
ENCODING 20305
SWIDTH 1000 0
DWIDTH 14 0
BBX 14 14 0 -2
BITMAP
18C0
1880
3080
3FFC
7FFC
F100
7300
33F8
37F8
3F18
3718
33F8
33F8
3318
ENDCHAR
STARTCHAR uni4F53
ENCODING 20307
SWIDTH 1000 0
DWIDTH 14 0
BBX 14 14 0 -2
BITMAP
10C0
10C0
30C0
3FF8
7FF8
71E0
73E0
32F0
36F0
36D8
3FEC
33E8
30C0
30C0
ENDCHAR
STARTCHAR uni4F55
ENCODING 20309
SWIDTH 1000 0
DWIDTH 14 0
BBX 14 14 0 -2
BITMAP
1800
1FFC
37FC
3018
7018
F7D8
76D8
36D8
36D8
37D8
3618
3018
3078
3070
ENDCHAR
STARTCHAR uni4F57
ENCODING 20311
SWIDTH 1000 0
DWIDTH 14 0
BBX 13 14 0 -2
BITMAP
10C0
18C0
17F8
37F8
7408
7700
7310
3370
33C0
3300
3308
3308
33F8
30F0
ENDCHAR
STARTCHAR uni4F58
ENCODING 20312
SWIDTH 1000 0
DWIDTH 14 0
BBX 14 14 0 -2
BITMAP
0300
0700
0FC0
1C60
7038
6FD8
0000
0000
3FF0
0300
1B60
3330
6318
0700
ENDCHAR
STARTCHAR uni4F59
ENCODING 20313
SWIDTH 1000 0
DWIDTH 14 0
BBX 14 14 0 -2
BITMAP
0300
0780
0FC0
1CE0
7038
7FF8
0300
7FF8
7FF8
0300
1B60
3330
6F18
0600
ENDCHAR
STARTCHAR uni4F5A
ENCODING 20314
SWIDTH 1000 0
DWIDTH 14 0
BBX 14 14 0 -2
BITMAP
18C0
1AC0
37F8
37F8
74C0
F4C0
7FF8
3FF8
30C0
31E0
31E0
3330
3E1C
3408
ENDCHAR
STARTCHAR uni4F5B
ENCODING 20315
SWIDTH 1000 0
DWIDTH 14 0
BBX 13 14 0 -2
BITMAP
1960
1960
3FF8
3178
7178
F7F8
7D60
3D60
3FF8
3368
3368
3368
3678
3C60
ENDCHAR
STARTCHAR uni4F5C
ENCODING 20316
SWIDTH 1000 0
DWIDTH 14 0
BBX 14 14 0 -2
BITMAP
1980
1980
33FC
33FC
76C0
76C0
74F8
30F8
30C0
30F8
30F8
30C0
30C0
30C0
ENDCHAR
STARTCHAR uni4F5D
ENCODING 20317
SWIDTH 1000 0
DWIDTH 14 0
BBX 13 14 0 -2
BITMAP
1B00
1B00
33F8
37F8
7C08
7C08
73C8
3248
3258
33D8
3218
3018
30F8
3070
ENDCHAR
STARTCHAR uni4F5E
ENCODING 20318
SWIDTH 1000 0
DWIDTH 14 0
BBX 13 14 0 -2
BITMAP
1000
17F8
3000
3000
6FF8
6180
6180
2FF8
2330
2620
23E0
20E0
2FB8
2E08
ENDCHAR
STARTCHAR uni4F5F
ENCODING 20319
SWIDTH 1000 0
DWIDTH 14 0
BBX 14 14 0 -2
BITMAP
1900
1B00
33F8
3630
7F60
F1C0
73F0
3F38
3D08
33E0
3020
3780
31F0
3030
ENDCHAR
STARTCHAR uni4F60
ENCODING 20320
SWIDTH 1000 0
DWIDTH 14 0
BBX 14 14 0 -2
BITMAP
1300
1B00
3200
37F8
77F8
FCC8
74C0
32D0
32D8
36D8
36D8
34C8
31C0
3180
ENDCHAR
STARTCHAR uni4F63
ENCODING 20323
SWIDTH 1000 0
DWIDTH 14 0
BBX 13 14 0 -2
BITMAP
1800
1FF8
37F8
36C8
76C8
F7F8
74C8
34C8
37F8
34C8
34C8
3CC8
3CC8
38F8
ENDCHAR
STARTCHAR uni4F64
ENCODING 20324
SWIDTH 1000 0
DWIDTH 14 0
BBX 14 14 0 -2
BITMAP
1800
1FF8
37F8
3200
73F0
F230
72B0
33B0
32F0
3670
3638
36B4
37BC
3418
ENDCHAR
STARTCHAR uni4F65
ENCODING 20325
SWIDTH 1000 0
DWIDTH 14 0
BBX 14 14 0 -2
BITMAP
0300
0300
0F80
1CE0
703C
6FD8
0000
3230
3320
1B60
1960
0040
7FF8
7FF8
ENDCHAR
STARTCHAR uni4F67
ENCODING 20327
SWIDTH 1000 0
DWIDTH 14 0
BBX 14 14 0 -2
BITMAP
1980
1980
31F8
3180
7180
FFFC
7FFC
3180
3180
31F0
31B8
3188
3180
3180
ENDCHAR
STARTCHAR uni4F69
ENCODING 20329
SWIDTH 1000 0
DWIDTH 14 0
BBX 14 14 0 -2
BITMAP
1000
3FF0
2C10
6FD0
6C90
6C90
6FD0
2ED0
2ED0
2ED0
2AD0
2AD4
289C
2888
ENDCHAR
STARTCHAR uni4F6C
ENCODING 20332
SWIDTH 1000 0
DWIDTH 14 0
BBX 14 14 0 -2
BITMAP
1980
1198
37F8
31B0
71B0
7FFC
7FFC
3180
3730
3FE0
3B80
3308
31F8
30F0
ENDCHAR
STARTCHAR uni4F6F
ENCODING 20335
SWIDTH 1000 0
DWIDTH 14 0
BBX 14 14 0 -2
BITMAP
1218
1330
3130
37F8
77F8
70C0
77F8
37F8
30C0
3FFC
3FFC
30C0
30C0
30C0
ENDCHAR
STARTCHAR uni4F70
ENCODING 20336
SWIDTH 1000 0
DWIDTH 14 0
BBX 13 14 0 -2
BITMAP
1800
1FF8
17F8
3080
37F8
77F8
F618
7618
37F8
37F8
3618
37F8
37F8
3618
ENDCHAR
STARTCHAR uni4F73
ENCODING 20339
SWIDTH 1000 0
DWIDTH 14 0
BBX 14 14 0 -2
BITMAP
18C0
1FF8
37F8
30C0
70C0
77F8
77F8
30C0
37F8
37F8
30C0
30C0
3FFC
3FFC
ENDCHAR
STARTCHAR uni4F74
ENCODING 20340
SWIDTH 1000 0
DWIDTH 14 0
BBX 14 14 0 -2
BITMAP
1800
1FF8
37F8
3310
73F0
F310
7310
33F0
3310
3318
37FC
3790
3010
3010
ENDCHAR
STARTCHAR uni4F76
ENCODING 20342
SWIDTH 1000 0
DWIDTH 14 0
BBX 13 14 0 -2
BITMAP
18C0
18C0
3FF8
3FF8
70C0
77F8
77F8
3000
37F0
37F0
3610
3610
37F0
37F0
ENDCHAR
STARTCHAR uni4F7B
ENCODING 20347
SWIDTH 1000 0
DWIDTH 14 0
BBX 14 14 0 -2
BITMAP
1960
1960
3568
3D78
7770
F570
7160
3770
3F7C
3B68
3360
366C
3E78
3400
ENDCHAR
STARTCHAR uni4F7C
ENCODING 20348
SWIDTH 1000 0
DWIDTH 14 0
BBX 14 14 0 -2
BITMAP
18C0
18C0
37FC
37FC
7330
F618
7E3C
3738
31E0
31E0
30C0
33F0
3F3C
3418
ENDCHAR
STARTCHAR uni4F7E
ENCODING 20350
SWIDTH 1000 0
DWIDTH 14 0
BBX 14 14 0 -2
BITMAP
1820
1B60
3220
3630
7C18
7FF8
7E30
37F0
3630
3630
37F0
3630
3630
3670
ENDCHAR
STARTCHAR uni4F7F
ENCODING 20351
SWIDTH 1000 0
DWIDTH 14 0
BBX 14 14 0 -2
BITMAP
18C0
1FFC
37FC
30C0
77F8
F4C8
74C8
37F8
30C0
36C0
3380
33C0
3FFC
3418
ENDCHAR
STARTCHAR uni4F83
ENCODING 20355
SWIDTH 1000 0
DWIDTH 14 0
BBX 14 14 0 -2
BITMAP
1000
1FF0
37F0
3610
7610
F7F0
77F0
36B0
36B0
36B0
36B0
36B4
3CBC
3C98
ENDCHAR
STARTCHAR uni4F84
ENCODING 20356
SWIDTH 1000 0
DWIDTH 14 0
BBX 14 14 0 -2
BITMAP
1000
1FF8
37F8
3330
7310
77F8
7708
30C0
30C0
37F8
30C0
30C0
3FFC
3FFC
ENDCHAR
STARTCHAR uni4F88
ENCODING 20360
SWIDTH 1000 0
DWIDTH 14 0
BBX 14 14 0 -2
BITMAP
10C0
1980
13F8
3E30
77E0
71C0
FFC0
35FC
3398
36B8
34F0
30E0
3780
3600
ENDCHAR
STARTCHAR uni4F89
ENCODING 20361
SWIDTH 1000 0
DWIDTH 14 0
BBX 14 14 0 -2
BITMAP
1180
1980
3FF8
3360
7630
FFF8
7800
37F8
3300
3300
33F0
3030
3030
31E0
ENDCHAR
STARTCHAR uni4F8B
ENCODING 20363
SWIDTH 1000 0
DWIDTH 14 0
BBX 13 14 0 -2
BITMAP
2008
3FE8
2FE8
6668
67E8
EFE8
6DE8
2968
2F68
2368
2308
2608
2C78
2438
ENDCHAR
STARTCHAR uni4F8D
ENCODING 20365
SWIDTH 1000 0
DWIDTH 14 0
BBX 14 14 0 -2
BITMAP
10C0
18C0
37F8
37F8
7FFC
FFFC
7030
3FF8
3FF8
3230
3330
3330
30F0
30E0
ENDCHAR
STARTCHAR uni4F8F
ENCODING 20367
SWIDTH 1000 0
DWIDTH 14 0
BBX 14 14 0 -2
BITMAP
18C0
1AC0
37F8
37F8
7CC0
F4C0
7FF8
3FF8
31E0
33F0
36D8
3EDC
34C8
30C0
ENDCHAR
STARTCHAR uni4F91
ENCODING 20369
SWIDTH 1000 0
DWIDTH 14 0
BBX 13 14 0 -2
BITMAP
1980
1980
17F8
37F8
7300
73F8
7718
3FF8
3318
3318
33F8
3318
3358
3330
ENDCHAR
STARTCHAR uni4F94
ENCODING 20372
SWIDTH 1000 0
DWIDTH 14 0
BBX 13 14 0 -2
BITMAP
1980
19A0
3330
37F8
7798
72C0
76C0
37F8
3CC0
30C0
3FF8
30C0
30C0
30C0
ENDCHAR
STARTCHAR uni4F97
ENCODING 20375
SWIDTH 1000 0
DWIDTH 14 0
BBX 13 14 0 -2
BITMAP
1000
3FF8
3C18
2DF8
6C18
EC18
6DF8
2D78
2D78
2DF8
2D18
2C18
2C38
2C38
ENDCHAR
STARTCHAR uni4F9B
ENCODING 20379
SWIDTH 1000 0
DWIDTH 14 0
BBX 14 14 0 -2
BITMAP
1B30
1B30
3330
37F8
77F8
F330
7330
3FFC
3FFC
3000
3330
3618
3E18
3408
ENDCHAR
STARTCHAR uni4F9D
ENCODING 20381
SWIDTH 1000 0
DWIDTH 14 0
BBX 14 14 0 -2
BITMAP
1880
18C0
3FF8
3FF8
7180
F3C0
76D8
3E70
3A60
3220
3230
3398
3798
3608
ENDCHAR
STARTCHAR uni4FA0
ENCODING 20384
SWIDTH 1000 0
DWIDTH 14 0
BBX 14 14 0 -2
BITMAP
18C0
18C0
37F8
37F8
76D8
F2D0
72D0
3FF8
3FF8
31C0
31E0
3330
3E1C
3408
ENDCHAR
STARTCHAR uni4FA3
ENCODING 20387
SWIDTH 1000 0
DWIDTH 14 0
BBX 13 14 0 -2
BITMAP
1800
17F0
3610
3610
7610
77F0
7000
3000
37F8
3418
3418
37F8
37F8
3418
ENDCHAR
STARTCHAR uni4FA5
ENCODING 20389
SWIDTH 1000 0
DWIDTH 14 0
BBX 14 14 0 -2
BITMAP
1B00
3178
3FF8
2998
61F0
E3C8
6F78
2010
2FF8
2360
2360
2268
2E6C
2C78
ENDCHAR
STARTCHAR uni4FA6
ENCODING 20390
SWIDTH 1000 0
DWIDTH 14 0
BBX 14 14 0 -2
BITMAP
1880
18F8
30F8
3080
77F8
F418
74D8
34D8
34D8
3498
3180
33F0
3F18
3408
ENDCHAR
STARTCHAR uni4FA7
ENCODING 20391
SWIDTH 1000 0
DWIDTH 14 0
BBX 13 14 0 -2
BITMAP
3008
2FA8
28A8
6AA8
6AA8
6AA8
6AA8
2AA8
2AA8
2AA8
2AA8
2708
2D88
28B8
ENDCHAR
STARTCHAR uni4FA8
ENCODING 20392
SWIDTH 1000 0
DWIDTH 14 0
BBX 14 14 0 -2
BITMAP
1830
17F8
3080
3180
6FF8
EFF8
6730
2E18
2F28
2320
2220
2620
2620
2420
ENDCHAR
STARTCHAR uni4FA9
ENCODING 20393
SWIDTH 1000 0
DWIDTH 14 0
BBX 14 14 0 -2
BITMAP
18C0
19C0
31E0
3370
7638
7FF8
7800
3000
37F8
3300
3330
3670
3FF8
3010
ENDCHAR
STARTCHAR uni4FAA
ENCODING 20394
SWIDTH 1000 0
DWIDTH 14 0
BBX 14 14 0 -2
BITMAP
1180
30C0
3FF8
2330
63E0
E1C0
6FFC
2E18
2330
2330
2330
2630
2630
2C30
ENDCHAR
STARTCHAR uni4FAC
ENCODING 20396
SWIDTH 1000 0
DWIDTH 14 0
BBX 14 14 0 -2
BITMAP
18C0
3080
3FF8
2DC8
6DC8
E340
6358
2678
2E60
3A20
2230
23D8
2798
2008
ENDCHAR
STARTCHAR uni4FAE
ENCODING 20398
SWIDTH 1000 0
DWIDTH 14 0
BBX 14 14 0 -2
BITMAP
1300
3200
37F8
2C00
6FF8
E298
6258
2FFC
2FFC
26D0
27F8
2010
2030
2070
ENDCHAR
STARTCHAR uni4FAF
ENCODING 20399
SWIDTH 1000 0
DWIDTH 14 0
BBX 14 14 0 -2
BITMAP
1800
17E0
3020
3020
7FF8
7200
77F8
3C80
3080
3FF8
31C0
33E0
373C
3C18
ENDCHAR
STARTCHAR uni4FB5
ENCODING 20405
SWIDTH 1000 0
DWIDTH 14 0
BBX 13 14 0 -2
BITMAP
1000
1FF8
1018
33F8
7018
77F8
7000
7FF8
3FF8
33F0
3320
31E0
37F0
3638
ENDCHAR
STARTCHAR uni4FBF
ENCODING 20415
SWIDTH 1000 0
DWIDTH 14 0
BBX 14 14 0 -2
BITMAP
1000
1FF8
30C0
37F8
74D8
74D8
77F8
34D8
37F8
30C0
3780
3380
3FFC
3C38
ENDCHAR
STARTCHAR uni4FC3
ENCODING 20419
SWIDTH 1000 0
DWIDTH 14 0
BBX 14 14 0 -2
BITMAP
1000
37F8
3618
3618
7618
F7F8
70C0
36C0
36F8
36F8
36C0
3FC0
3DF8
3838
ENDCHAR
STARTCHAR uni4FC4
ENCODING 20420
SWIDTH 1000 0
DWIDTH 14 0
BBX 14 14 0 -2
BITMAP
1060
17F8
3E68
2268
6260
EFF8
6260
22F8
2FF8
2E30
2238
227C
2EF8
2E98
ENDCHAR
STARTCHAR uni4FC5
ENCODING 20421
SWIDTH 1000 0
DWIDTH 14 0
BBX 14 14 0 -2
BITMAP
18D0
18D8
37F8
37F8
70C0
F6D8
72D0
32F0
31E0
33F0
36D8
3CD8
33C8
3180
ENDCHAR
STARTCHAR uni4FCA
ENCODING 20426
SWIDTH 1000 0
DWIDTH 14 0
BBX 13 14 0 -2
BITMAP
1980
1B20
3670
37F8
7020
F330
7F18
3508
33F0
3F30
35E0
31C0
3FF8
3E18
ENDCHAR
STARTCHAR uni4FCE
ENCODING 20430
SWIDTH 1000 0
DWIDTH 14 0
BBX 14 13 0 -2
BITMAP
11F8
11F8
3918
2D18
65F8
5918
1118
31F8
3918
6D18
6518
43FC
03FC
ENDCHAR
STARTCHAR uni4FCF
ENCODING 20431
SWIDTH 1000 0
DWIDTH 14 0
BBX 13 14 0 -2
BITMAP
18C0
1ED8
32D8
32C0
77F8
F7F8
7618
37F8
3618
3618
37F8
3618
3678
3638
ENDCHAR
STARTCHAR uni4FD0
ENCODING 20432
SWIDTH 1000 0
DWIDTH 14 0
BBX 13 14 0 -2
BITMAP
1008
1788
3E68
2268
6268
EFE8
6668
2768
27E8
2EE8
2A68
2A08
2218
2238
ENDCHAR
STARTCHAR uni4FD1
ENCODING 20433
SWIDTH 1000 0
DWIDTH 14 0
BBX 13 14 0 -2
BITMAP
1000
17F0
3070
23C0
60E0
E7F8
64D8
27F8
24D8
24D8
27F8
24D8
24D8
24F8
ENDCHAR
STARTCHAR uni4FD7
ENCODING 20439
SWIDTH 1000 0
DWIDTH 14 0
BBX 14 14 0 -2
BITMAP
1920
1B70
3630
3E98
75C8
71E0
7370
3E3C
3C18
37F0
3630
3630
37F0
3630
ENDCHAR
STARTCHAR uni4FD8
ENCODING 20440
SWIDTH 1000 0
DWIDTH 14 0
BBX 13 14 0 -2
BITMAP
1830
17F8
3098
3690
76F0
7410
77F0
3060
30C0
3FF8
3FF8
30C0
30C0
31C0
ENDCHAR
STARTCHAR uni4FDA
ENCODING 20442
SWIDTH 1000 0
DWIDTH 14 0
BBX 13 14 0 -2
BITMAP
1800
17F8
36D8
36D8
77F8
76D8
77F8
30C0
30C0
37F8
30C0
30C0
3FF8
3FF8
ENDCHAR
STARTCHAR uni4FDC
ENCODING 20444
SWIDTH 1000 0
DWIDTH 14 0
BBX 14 14 0 -2
BITMAP
18C0
17F8
36D8
37F8
76D8
76D8
77F8
7000
3FFC
3200
33F8
3010
3030
3070
ENDCHAR
STARTCHAR uni4FDD
ENCODING 20445
SWIDTH 1000 0
DWIDTH 14 0
BBX 14 14 0 -2
BITMAP
1800
1FF8
3618
3618
7618
77F8
70C0
3FF8
3FF8
31E0
33F0
36D8
3CC8
30C0
ENDCHAR
STARTCHAR uni4FDE
ENCODING 20446
SWIDTH 1000 0
DWIDTH 14 0
BBX 14 14 0 -2
BITMAP
0300
0780
0CC0
3878
6FD8
0000
3ED0
22D0
3ED0
22D0
22D0
3ED0
2210
2670
ENDCHAR
STARTCHAR uni4FDF
ENCODING 20447
SWIDTH 1000 0
DWIDTH 14 0
BBX 14 14 0 -2
BITMAP
1980
1B20
3330
37F8
7600
F200
77F8
3CC0
30C0
3FF8
31C0
33E0
3F3C
3C18
ENDCHAR
STARTCHAR uni4FE1
ENCODING 20449
SWIDTH 1000 0
DWIDTH 14 0
BBX 13 14 0 -2
BITMAP
1080
18C0
3080
3FF8
7000
77F0
7000
37F0
3000
37F8
3618
3618
37F8
3618
ENDCHAR
STARTCHAR uni4FE3
ENCODING 20451
SWIDTH 1000 0
DWIDTH 14 0
BBX 14 14 0 -2
BITMAP
1800
1FF8
3618
3618
77F8
F000
77F8
30C0
30C0
3FF8
3FF8
31E0
3F38
3C18
ENDCHAR
STARTCHAR uni4FE6
ENCODING 20454
SWIDTH 1000 0
DWIDTH 14 0
BBX 14 14 0 -2
BITMAP
1880
17F8
3180
3180
77F8
F180
7FFC
3310
33F8
3610
3790
3CD0
3030
3070
ENDCHAR
STARTCHAR uni4FE8
ENCODING 20456
SWIDTH 1000 0
DWIDTH 14 0
BBX 13 14 0 -2
BITMAP
1800
1FF8
31E0
35F8
77F8
F1E0
77F8
3400
3400
3400
3400
3C00
3C00
3000
ENDCHAR
STARTCHAR uni4FE9
ENCODING 20457
SWIDTH 1000 0
DWIDTH 14 0
BBX 13 14 0 -2
BITMAP
1000
3FF8
3FF8
6160
6FF8
ED68
6D68
2D68
2FE8
2F78
2EE8
2E88
2C08
2C38
ENDCHAR
STARTCHAR uni4FEA
ENCODING 20458
SWIDTH 1000 0
DWIDTH 14 0
BBX 13 14 0 -2
BITMAP
1000
3FF8
3000
2000
6F78
6D48
6D48
2F68
2F68
2F58
2D48
2D48
2D48
2F58
ENDCHAR
STARTCHAR uni4FED
ENCODING 20461
SWIDTH 1000 0
DWIDTH 14 0
BBX 14 14 0 -2
BITMAP
1080
11C0
3360
2630
6C1C
FBE8
6000
2498
2690
26F0
2220
2020
2FF8
2FF8
ENDCHAR
STARTCHAR uni4FEE
ENCODING 20462
SWIDTH 1000 0
DWIDTH 14 0
BBX 14 14 0 -2
BITMAP
1080
1180
31F8
2390
6EF0
6CE0
6FB8
2E68
2DC0
2C70
2DC8
2D38
21E0
2380
ENDCHAR
STARTCHAR uni4FEF
ENCODING 20463
SWIDTH 1000 0
DWIDTH 14 0
BBX 14 14 0 -2
BITMAP
10C0
30C0
3FFC
2D90
6D10
EDF8
6F10
2F50
2D50
2D70
2D50
2910
2910
2930
ENDCHAR
STARTCHAR uni4FF1
ENCODING 20465
SWIDTH 1000 0
DWIDTH 14 0
BBX 14 14 0 -2
BITMAP
1000
1FF0
3610
37F0
7610
F7F0
7610
37F0
3610
3FF8
3220
3330
3E18
3408
ENDCHAR
STARTCHAR uni4FF3
ENCODING 20467
SWIDTH 1000 0
DWIDTH 14 0
BBX 14 14 0 -2
BITMAP
1960
1960
3778
3778
7160
F160
7778
3160
3160
3F7C
3F7C
3160
3160
3160
ENDCHAR
STARTCHAR uni4FF8
ENCODING 20472
SWIDTH 1000 0
DWIDTH 14 0
BBX 14 14 0 -2
BITMAP
1880
1FF8
3180
37F8
7100
FFFC
7230
36D8
3FF8
38C8
30C0
37F8
30C0
30C0
ENDCHAR
STARTCHAR uni4FFA
ENCODING 20474
SWIDTH 1000 0
DWIDTH 14 0
BBX 14 14 0 -2
BITMAP
1180
1980
3FFC
3320
7630
7698
7FFC
3E98
37F0
3690
37F0
3688
3088
30F8
ENDCHAR
STARTCHAR uni4FFE
ENCODING 20478
SWIDTH 1000 0
DWIDTH 14 0
BBX 14 14 0 -2
BITMAP
10C0
18C0
37F8
34D8
77F8
F4D8
77F8
3180
33E0
3360
3FFC
3FFC
3060
3060
ENDCHAR
STARTCHAR uni500C
ENCODING 20492
SWIDTH 1000 0
DWIDTH 14 0
BBX 13 14 0 -2
BITMAP
18C0
18C0
37F8
3408
77F0
F610
7610
37F0
3600
37F8
3618
3618
37F8
3618
ENDCHAR
STARTCHAR uni500D
ENCODING 20493
SWIDTH 1000 0
DWIDTH 14 0
BBX 13 14 0 -2
BITMAP
18C0
18C0
37F8
3230
7330
7320
7FF8
3FF8
3000
37F0
3610
3610
37F0
3610
ENDCHAR
STARTCHAR uni500F
ENCODING 20495
SWIDTH 1000 0
DWIDTH 14 0
BBX 14 14 0 -2
BITMAP
1080
10C0
3DF8
3F90
6EF0
6CF0
EFB8
2E58
2C48
2FF8
2CE0
21F0
2798
2208
ENDCHAR
STARTCHAR uni5012
ENCODING 20498
SWIDTH 1000 0
DWIDTH 14 0
BBX 13 14 0 -2
BITMAP
1008
3FA8
3628
25A8
6FA8
EFA8
60E8
2228
2FA8
2228
2208
2F88
2F08
2038
ENDCHAR
STARTCHAR uni5014
ENCODING 20500
SWIDTH 1000 0
DWIDTH 14 0
BBX 13 14 0 -2
BITMAP
1000
17F8
3418
3418
77F8
7460
7568
3568
35F8
3460
3568
3D68
3DF8
3008
ENDCHAR
STARTCHAR uni5018
ENCODING 20504
SWIDTH 1000 0
DWIDTH 14 0
BBX 13 14 0 -2
BITMAP
1490
1498
36B0
32A0
6080
6FF8
6C18
2DF8
2D78
2D78
2DF8
2D18
2C18
2C38
ENDCHAR
STARTCHAR uni5019
ENCODING 20505
SWIDTH 1000 0
DWIDTH 14 0
BBX 14 14 0 -2
BITMAP
1000
11F0
3010
3C10
6FF8
6D80
6DF8
2F60
2E60
2FF8
2C60
20F0
23BC
2308
ENDCHAR
STARTCHAR uni501A
ENCODING 20506
SWIDTH 1000 0
DWIDTH 14 0
BBX 14 14 0 -2
BITMAP
10C0
18C0
37F8
31C0
77F0
F618
7FFC
3010
37D0
34D0
34D0
37D0
3410
3070
ENDCHAR
STARTCHAR uni501C
ENCODING 20508
SWIDTH 1000 0
DWIDTH 14 0
BBX 13 14 0 -2
BITMAP
1000
1FF8
34C8
25E8
64C8
E4C8
65E8
2408
25E8
2568
2D68
2DE8
2918
2838
ENDCHAR
STARTCHAR uni501F
ENCODING 20511
SWIDTH 1000 0
DWIDTH 14 0
BBX 14 14 0 -2
BITMAP
1330
1B30
37F8
3330
7330
7FFC
7FFC
37F8
3618
3618
37F8
3618
37F8
3618
ENDCHAR
STARTCHAR uni5021
ENCODING 20513
SWIDTH 1000 0
DWIDTH 14 0
BBX 13 14 0 -2
BITMAP
1000
1FF0
3610
37F0
7610
F7F0
7000
37F8
3418
3418
37F8
3418
37F8
3418
ENDCHAR
STARTCHAR uni5025
ENCODING 20517
SWIDTH 1000 0
DWIDTH 14 0
BBX 14 14 0 -2
BITMAP
18C0
18C0
37F8
3408
71B0
F718
7608
3400
33F0
30C0
30C0
30C0
37FC
3000
ENDCHAR
STARTCHAR uni5026
ENCODING 20518
SWIDTH 1000 0
DWIDTH 14 0
BBX 13 14 0 -2
BITMAP
18C0
1EF0
32B0
37F0
7180
7180
7FF8
3330
3FF8
3628
3260
3218
3318
33F0
ENDCHAR
STARTCHAR uni5028
ENCODING 20520
SWIDTH 1000 0
DWIDTH 14 0
BBX 13 14 0 -2
BITMAP
1800
1FF8
3618
3618
77F8
7660
7660
37F8
3660
35F8
3518
3D18
3DF8
3118
ENDCHAR
STARTCHAR uni5029
ENCODING 20521
SWIDTH 1000 0
DWIDTH 14 0
BBX 14 14 0 -2
BITMAP
18C0
37F8
30C0
27F8
60C0
EFFC
E000
27F8
2618
27F8
2618
27F8
2618
2630
ENDCHAR
STARTCHAR uni502A
ENCODING 20522
SWIDTH 1000 0
DWIDTH 14 0
BBX 14 14 0 -2
BITMAP
1900
1BF8
3618
3618
77F8
F618
7618
37F8
3360
3360
3360
336C
3678
3C78
ENDCHAR
STARTCHAR uni502C
ENCODING 20524
SWIDTH 1000 0
DWIDTH 14 0
BBX 14 14 0 -2
BITMAP
18C0
18F8
30C0
30C0
77F8
F418
77F8
3418
37F8
30C0
30C0
3FFC
30C0
30C0
ENDCHAR
STARTCHAR uni502D
ENCODING 20525
SWIDTH 1000 0
DWIDTH 14 0
BBX 14 14 0 -2
BITMAP
1830
1FF0
30C0
3FF8
71E0
F7F0
7ED8
3180
3FFC
3330
3320
31E0
33F8
3710
ENDCHAR
STARTCHAR uni502E
ENCODING 20526
SWIDTH 1000 0
DWIDTH 14 0
BBX 14 14 0 -2
BITMAP
1000
1FF8
36D8
37F8
76D8
F7F8
70C0
30C0
3FF8
31E0
33F0
36D8
3CC8
30C0
ENDCHAR
STARTCHAR uni503A
ENCODING 20538
SWIDTH 1000 0
DWIDTH 14 0
BBX 13 14 0 -2
BITMAP
1880
37F8
3080
37F0
7080
FFF8
7000
37F8
3418
3498
3498
31A0
3738
3C08
ENDCHAR
STARTCHAR uni503C
ENCODING 20540
SWIDTH 1000 0
DWIDTH 14 0
BBX 14 14 0 -2
BITMAP
10C0
18C0
37F8
3080
77F0
F610
77F0
3610
37F0
3610
37F0
3610
3FFC
3000
ENDCHAR
STARTCHAR uni503E
ENCODING 20542
SWIDTH 1000 0
DWIDTH 14 0
BBX 14 14 0 -2
BITMAP
1000
31FC
3C60
6C60
6DF8
EFB8
6DB8
2DB8
2DB8
2FF8
2DF8
2870
21D8
2108
ENDCHAR
STARTCHAR uni5043
ENCODING 20547
SWIDTH 1000 0
DWIDTH 14 0
BBX 14 14 0 -2
BITMAP
1000
17F8
3400
25F8
65F8
E518
64E0
25F8
2490
25F0
25F0
2590
27FC
2000
ENDCHAR
STARTCHAR uni5047
ENCODING 20551
SWIDTH 1000 0
DWIDTH 14 0
BBX 14 14 0 -2
BITMAP
1000
3F78
3D18
2D18
6F78
EC00
6C00
2FF8
2C58
2C50
2F70
2C70
2CD8
2C88
ENDCHAR
STARTCHAR uni5048
ENCODING 20552
SWIDTH 1000 0
DWIDTH 14 0
BBX 13 14 0 -2
BITMAP
1000
1FF0
3610
37F0
7610
77F0
7200
37F8
3CC8
36D8
3738
37F8
3018
3030
ENDCHAR
STARTCHAR uni504C
ENCODING 20556
SWIDTH 1000 0
DWIDTH 14 0
BBX 14 14 0 -2
BITMAP
1B30
1B30
37F8
3330
7180
FFFC
7FFC
3300
3300
37F8
3F18
3718
33F8
3318
ENDCHAR
STARTCHAR uni504E
ENCODING 20558
SWIDTH 1000 0
DWIDTH 14 0
BBX 14 14 0 -2
BITMAP
1000
1FF8
36D8
37F8
76D8
F7F8
7000
3FFC
32C0
3258
3270
3230
37B8
3608
ENDCHAR
STARTCHAR uni504F
ENCODING 20559
SWIDTH 1000 0
DWIDTH 14 0
BBX 13 14 0 -2
BITMAP
1880
18C0
37F8
3418
7418
77F8
7400
37F8
37A8
37A8
3FF8
3FA8
3BA8
33B8
ENDCHAR
STARTCHAR uni5055
ENCODING 20565
SWIDTH 1000 0
DWIDTH 14 0
BBX 14 14 0 -2
BITMAP
1E60
1E68
37F8
3660
76EC
F7F8
7480
3080
37F8
3618
37F8
3618
37F8
3618
ENDCHAR
STARTCHAR uni505A
ENCODING 20570
SWIDTH 1000 0
DWIDTH 14 0
BBX 14 14 0 -2
BITMAP
1220
1260
3260
2FFC
6FD8
62D8
E2D8
2F70
2D30
2D30
2D30
2F70
2CD8
2088
ENDCHAR
STARTCHAR uni505C
ENCODING 20572
SWIDTH 1000 0
DWIDTH 14 0
BBX 13 14 0 -2
BITMAP
18C0
17F8
3000
37F0
6610
E7F0
6000
2FF8
2C08
2FF8
20C0
20C0
20C0
21C0
ENDCHAR
STARTCHAR uni5065
ENCODING 20581
SWIDTH 1000 0
DWIDTH 14 0
BBX 14 14 0 -2
BITMAP
3040
3EF8
2658
65FC
6C58
EEF8
6240
22F8
2E40
2FF8
2C40
2E40
2BF8
3000
ENDCHAR
STARTCHAR uni506C
ENCODING 20588
SWIDTH 1000 0
DWIDTH 14 0
BBX 13 14 0 -2
BITMAP
1200
1600
37F8
2DE8
7B68
E2F8
66D8
25B0
2080
2ED0
2AD8
2A28
2A38
23E0
ENDCHAR
STARTCHAR uni5076
ENCODING 20598
SWIDTH 1000 0
DWIDTH 14 0
BBX 13 14 0 -2
BITMAP
1000
1FF8
36D8
37F8
76D8
F7F8
70C0
30C0
37F8
34E8
34F8
37F8
3408
3438
ENDCHAR
STARTCHAR uni5077
ENCODING 20599
SWIDTH 1000 0
DWIDTH 14 0
BBX 14 14 0 -2
BITMAP
10C0
11C0
3770
3E18
63E8
6018
67F8
25F8
27F8
25F8
27F8
25F8
2598
25B8
ENDCHAR
STARTCHAR uni507B
ENCODING 20603
SWIDTH 1000 0
DWIDTH 14 0
BBX 14 14 0 -2
BITMAP
1AD0
1AD0
32D0
37F8
71E0
73F0
76D8
3180
3FF8
3330
3330
33E0
37F8
3618
ENDCHAR
STARTCHAR uni507E
ENCODING 20606
SWIDTH 1000 0
DWIDTH 14 0
BBX 14 14 0 -2
BITMAP
18C0
17F8
30C0
3230
7FF8
F230
77F0
3610
3690
3690
3690
31A0
3F3C
3408
ENDCHAR
STARTCHAR uni507F
ENCODING 20607
SWIDTH 1000 0
DWIDTH 14 0
BBX 14 14 0 -2
BITMAP
10D0
16D8
32D0
3FF8
6C08
E7F0
67F0
2FFC
2FFC
2330
2330
27F8
27F8
2008
ENDCHAR
STARTCHAR uni5080
ENCODING 20608
SWIDTH 1000 0
DWIDTH 14 0
BBX 14 14 0 -2
BITMAP
10C0
1880
37F8
34D8
77F8
7498
7498
37F8
31D0
31F8
33E8
33F8
36CC
3C78
ENDCHAR
STARTCHAR uni5085
ENCODING 20613
SWIDTH 1000 0
DWIDTH 14 0
BBX 14 14 0 -2
BITMAP
18F0
17F8
30C0
37F8
76D8
F7F8
76D8
37F8
36D8
3030
3FFC
3230
3330
3070
ENDCHAR
STARTCHAR uni5088
ENCODING 20616
SWIDTH 1000 0
DWIDTH 14 0
BBX 14 14 0 -2
BITMAP
1000
1FF8
3160
37F8
7568
F568
77F8
3000
30C0
3FF8
31E0
37F0
3EDC
30C8
ENDCHAR
STARTCHAR uni508D
ENCODING 20621
SWIDTH 1000 0
DWIDTH 14 0
BBX 13 14 0 -2
BITMAP
10C0
18C0
37F8
3330
77F8
F408
74C8
37F8
3100
3100
33F8
3310
3630
3C70
ENDCHAR
STARTCHAR uni50A3
ENCODING 20643
SWIDTH 1000 0
DWIDTH 14 0
BBX 14 14 0 -2
BITMAP
18C0
1780
31F8
3180
77F8
7100
7FF8
3630
3C9C
3EB8
33E0
37B0
3C98
3180
ENDCHAR
STARTCHAR uni50A5
ENCODING 20645
SWIDTH 1000 0
DWIDTH 14 0
BBX 14 14 0 -2
BITMAP
1090
3690
36B0
2FF8
6C08
6C08
EFF8
6630
2630
27F0
2160
236C
2668
2C78
ENDCHAR
STARTCHAR uni50A7
ENCODING 20647
SWIDTH 1000 0
DWIDTH 14 0
BBX 14 14 0 -2
BITMAP
10C0
18C0
37F8
3418
73F0
7200
7200
33F8
3260
3260
3FF8
3330
3618
3408
ENDCHAR
STARTCHAR uni50A8
ENCODING 20648
SWIDTH 1000 0
DWIDTH 14 0
BBX 14 14 0 -2
BITMAP
30C8
3CC8
25F8
64D0
60F0
FFFC
7CC0
25F8
2588
2488
24F8
2688
2CF8
2088
ENDCHAR
STARTCHAR uni50A9
ENCODING 20649
SWIDTH 1000 0
DWIDTH 14 0
BBX 14 14 0 -2
BITMAP
3040
3050
2ED8
62F8
6390
7B90
6EF8
2E90
2690
26F8
2E90
2B90
28FC
2080
ENDCHAR
STARTCHAR uni50AC
ENCODING 20652
SWIDTH 1000 0
DWIDTH 14 0
BBX 14 14 0 -2
BITMAP
10C0
34D8
34D8
37F8
76C0
F660
77F8
3C40
3FF8
3C40
37F8
3440
37FC
3400
ENDCHAR
STARTCHAR uni50B2
ENCODING 20658
SWIDTH 1000 0
DWIDTH 14 0
BBX 14 14 0 -2
BITMAP
1220
1220
3FA0
227C
6FC8
62F8
6278
2FB8
2430
27B0
25B0
2DB8
2DF8
3B48
ENDCHAR
STARTCHAR uni50BA
ENCODING 20666
SWIDTH 1000 0
DWIDTH 14 0
BBX 14 14 0 -2
BITMAP
12C0
37F8
3DD8
3BF0
6730
E630
6FF8
2808
2000
27F8
20D0
26D0
2CD8
2180
ENDCHAR
STARTCHAR uni50BB
ENCODING 20667
SWIDTH 1000 0
DWIDTH 14 0
BBX 14 14 0 -2
BITMAP
18C0
17F8
3578
35D8
7778
F7F8
7320
3E38
3588
33F0
3F30
31E0
33F0
3E18
ENDCHAR
STARTCHAR uni50CF
ENCODING 20687
SWIDTH 1000 0
DWIDTH 14 0
BBX 14 14 0 -2
BITMAP
1B00
13E0
3660
3FF8
7CD8
7498
77F8
3380
3EB8
33F0
3ED0
3358
3EC8
31C0
ENDCHAR
STARTCHAR uni50D6
ENCODING 20694
SWIDTH 1000 0
DWIDTH 14 0
BBX 14 14 0 -2
BITMAP
18C0
1FF8
30C0
37F8
7000
77F8
F618
37F8
3120
3FFC
3000
37F8
3618
37F8
ENDCHAR
STARTCHAR uni50DA
ENCODING 20698
SWIDTH 1000 0
DWIDTH 14 0
BBX 14 14 0 -2
BITMAP
1180
1180
3FF8
3728
6E38
E7F8
6E3C
2FF8
2630
27F0
24D0
26D8
2CD8
2180
ENDCHAR
STARTCHAR uni50E6
ENCODING 20710
SWIDTH 1000 0
DWIDTH 14 0
BBX 14 14 0 -2
BITMAP
1220
3228
3FA8
2020
6F78
ED78
6D30
2F30
2230
2B70
2BF0
2A7C
32FC
2698
ENDCHAR
STARTCHAR uni50E7
ENCODING 20711
SWIDTH 1000 0
DWIDTH 14 0
BBX 13 14 0 -2
BITMAP
1A30
1B30
37F8
3498
77B8
F5B8
77F8
3000
37F0
3610
37F0
3610
37F0
3610
ENDCHAR
STARTCHAR uni50EC
ENCODING 20716
SWIDTH 1000 0
DWIDTH 14 0
BBX 14 14 0 -2
BITMAP
1A40
1A60
1640
37F8
7C40
7FF8
7C40
37F8
3440
37F8
3808
3578
35E8
3DAC
ENDCHAR
STARTCHAR uni50ED
ENCODING 20717
SWIDTH 1000 0
DWIDTH 14 0
BBX 14 14 0 -2
BITMAP
0000
3F78
3A50
2A50
6FF8
6730
6DB4
2858
27F8
2418
27F8
2418
27F8
2418
ENDCHAR
STARTCHAR uni50EE
ENCODING 20718
SWIDTH 1000 0
DWIDTH 14 0
BBX 14 14 0 -2
BITMAP
1080
37F8
3330
2FF8
6000
E7F8
6698
27F8
2698
27F8
20C0
27F8
20C0
2FFC
ENDCHAR
STARTCHAR uni50F3
ENCODING 20723
SWIDTH 1000 0
DWIDTH 14 0
BBX 14 14 0 -2
BITMAP
1000
17F8
3160
27F8
6568
6568
67F8
22D0
22D0
2FF8
21E0
23F0
2EDC
24C8
ENDCHAR
STARTCHAR uni50F5
ENCODING 20725
SWIDTH 1000 0
DWIDTH 14 0
BBX 13 14 0 -2
BITMAP
1000
1FF8
37F8
26D8
67F8
67F8
6FF8
2000
27F8
26D8
27F8
27F8
2000
2FF8
ENDCHAR
STARTCHAR uni50FB
ENCODING 20731
SWIDTH 1000 0
DWIDTH 14 0
BBX 14 14 0 -2
BITMAP
1030
3F30
3D78
2D48
6D58
6F70
6CFC
2FB0
2DB0
2DF8
2DB0
3DB0
37B0
2430
ENDCHAR
STARTCHAR uni5106
ENCODING 20742
SWIDTH 1000 0
DWIDTH 14 0
BBX 14 14 0 -2
BITMAP
3D20
3FA0
2D20
6D7C
6C48
EFE8
79F8
3FB8
3BB0
2BB0
2FB0
2930
2178
2348
ENDCHAR
STARTCHAR uni5107
ENCODING 20743
SWIDTH 1000 0
DWIDTH 14 0
BBX 14 14 0 -2
BITMAP
1000
17F8
3568
27F8
6000
6FF8
E000
67F8
2618
27F8
23E8
2F30
23F8
2708
ENDCHAR
STARTCHAR uni510B
ENCODING 20747
SWIDTH 1000 0
DWIDTH 14 0
BBX 13 14 0 -2
BITMAP
1B00
1BF0
3660
3FF8
7EF0
F768
77F8
3400
35F8
35F8
3400
3DF8
3DF8
3918
ENDCHAR
STARTCHAR uni5112
ENCODING 20754
SWIDTH 1000 0
DWIDTH 14 0
BBX 13 14 0 -2
BITMAP
17F8
1080
3FF8
2888
66B0
E0B0
6680
2FF8
2080
27F8
2558
2558
2558
2558
ENDCHAR
STARTCHAR uni5121
ENCODING 20769
SWIDTH 1000 0
DWIDTH 14 0
BBX 13 14 0 -2
BITMAP
1000
37F0
3690
27F0
6690
E7F0
6000
2F78
2B58
2B58
2F78
2B58
2F78
2948
ENDCHAR
STARTCHAR uni513F
ENCODING 20799
SWIDTH 1000 0
DWIDTH 14 0
BBX 14 13 0 -2
BITMAP
18C0
18C0
18C0
18C0
18C0
18C0
18C0
18C0
18C8
30CC
30C8
E078
4070
ENDCHAR
STARTCHAR uni5140
ENCODING 20800
SWIDTH 1000 0
DWIDTH 14 0
BBX 14 13 0 -2
BITMAP
7FF8
7FF8
0CC0
0CC0
0CC0
0CC0
08C0
18C0
18C0
18CC
30C8
60F8
4078
ENDCHAR
STARTCHAR uni5141
ENCODING 20801
SWIDTH 1000 0
DWIDTH 14 0
BBX 14 14 0 -2
BITMAP
0600
0600
0CC0
1860
1870
3FF0
3F98
0C80
0C80
0C80
188C
3888
F0F8
6070
ENDCHAR
STARTCHAR uni5143
ENCODING 20803
SWIDTH 1000 0
DWIDTH 14 0
BBX 14 13 0 -2
BITMAP
3FF0
3FF0
0000
0000
7FF8
7FF8
0CC0
0CC0
18C0
18CC
30C8
70F8
4070
ENDCHAR
STARTCHAR uni5144
ENCODING 20804
SWIDTH 1000 0
DWIDTH 14 0
BBX 14 13 0 -2
BITMAP
3FF0
3FF0
3030
3030
3FF0
3FF0
0C80
0C80
0C80
188C
3888
70F8
4070
ENDCHAR
STARTCHAR uni5145
ENCODING 20805
SWIDTH 1000 0
DWIDTH 14 0
BBX 13 14 1 -2
BITMAP
0600
0600
FFF0
FFF0
1880
30C0
6FE0
7FB0
1980
1980
1998
3198
E1F0
C0E0
ENDCHAR
STARTCHAR uni5146
ENCODING 20806
SWIDTH 1000 0
DWIDTH 14 0
BBX 14 14 0 -2
BITMAP
0C80
0C90
6C98
3CB0
3CA0
0CA0
0CE0
3CF0
7C98
4C88
1880
3888
70F8
6070
ENDCHAR
STARTCHAR uni5148
ENCODING 20808
SWIDTH 1000 0
DWIDTH 14 0
BBX 12 14 1 -2
BITMAP
2600
2600
7FE0
7FE0
4600
4600
FFF0
FFF0
1980
1980
3190
7190
E1F0
C0E0
ENDCHAR
STARTCHAR uni5149
ENCODING 20809
SWIDTH 1000 0
DWIDTH 14 0
BBX 14 14 0 -2
BITMAP
0300
3330
3330
1B20
1320
7FF8
7FF8
0CC0
0CC0
0CC0
18C8
38C8
70F8
60F8
ENDCHAR
STARTCHAR uni514B
ENCODING 20811
SWIDTH 1000 0
DWIDTH 14 0
BBX 14 14 0 -2
BITMAP
0300
7FF8
7FF8
0300
3FF0
3030
3030
3030
3FF0
0C80
0C88
1888
70F8
6070
ENDCHAR
STARTCHAR uni514D
ENCODING 20813
SWIDTH 1000 0
DWIDTH 14 0
BBX 14 14 0 -2
BITMAP
0C00
1FC0
1980
3180
7FF0
7310
3310
3310
3FF0
0680
0E80
1C88
70F8
4030
ENDCHAR
STARTCHAR uni5151
ENCODING 20817
SWIDTH 1000 0
DWIDTH 14 0
BBX 13 14 1 -2
BITMAP
30C0
30C0
1980
7FE0
6060
6060
6060
7FE0
1900
1900
1900
3110
E1F0
C0E0
ENDCHAR
STARTCHAR uni5154
ENCODING 20820
SWIDTH 1000 0
DWIDTH 14 0
BBX 14 14 0 -2
BITMAP
0C00
1FC0
1980
3180
7FF0
7310
3310
3310
3FF0
07A0
0FB0
1D98
7998
60F8
ENDCHAR
STARTCHAR uni5155
ENCODING 20821
SWIDTH 1000 0
DWIDTH 14 0
BBX 14 14 0 -2
BITMAP
3CF0
3CF0
24B0
27B0
27B0
2030
3FF0
3FF0
0C80
0C80
0C8C
1888
70F8
6070
ENDCHAR
STARTCHAR uni5156
ENCODING 20822
SWIDTH 1000 0
DWIDTH 14 0
BBX 13 14 1 -2
BITMAP
0600
FFF0
FFF0
19C0
74F0
EC30
1980
71C0
7FE0
1980
1980
3998
F1F0
C0E0
ENDCHAR
STARTCHAR uni515A
ENCODING 20826
SWIDTH 1000 0
DWIDTH 14 0
BBX 13 14 0 -2
BITMAP
1330
1B30
1360
7FF8
4008
5FE8
1860
1860
1FE0
0480
0C80
1C88
78F8
60F8
ENDCHAR
STARTCHAR uni515C
ENCODING 20828
SWIDTH 1000 0
DWIDTH 14 0
BBX 13 14 1 -2
BITMAP
0600
7670
EF70
C930
CF30
C930
F970
EF70
8180
1980
1990
3190
F1F0
C0E0
ENDCHAR
STARTCHAR uni5162
ENCODING 20834
SWIDTH 1000 0
DWIDTH 14 0
BBX 14 14 0 -2
BITMAP
1860
1860
7FF8
1860
7DF8
4598
4598
7DF8
2CF0
2CB0
2EB0
6FBC
E9BC
4118
ENDCHAR
STARTCHAR uni5165
ENCODING 20837
SWIDTH 1000 0
DWIDTH 14 0
BBX 14 13 0 -1
BITMAP
0000
0C00
0600
0300
0380
0780
06C0
06C0
0C60
1C70
3838
7018
2008
ENDCHAR
STARTCHAR uni5168
ENCODING 20840
SWIDTH 1000 0
DWIDTH 14 0
BBX 14 14 0 -2
BITMAP
0300
0300
0780
1CE0
3870
F03C
5FE8
0300
0300
1FE0
0300
0300
7FF8
7FF8
ENDCHAR
STARTCHAR uni516B
ENCODING 20843
SWIDTH 1000 0
DWIDTH 14 0
BBX 14 12 0 -1
BITMAP
0CC0
0CC0
0CC0
08C0
1840
1860
1860
1060
3030
3030
6018
4008
ENDCHAR
STARTCHAR uni516C
ENCODING 20844
SWIDTH 1000 0
DWIDTH 14 0
BBX 13 13 1 -2
BITMAP
1980
19C0
30C0
7060
E470
CE30
0C00
1880
38C0
30E0
7FE0
7E30
0020
ENDCHAR
STARTCHAR uni516D
ENCODING 20845
SWIDTH 1000 0
DWIDTH 14 0
BBX 12 14 1 -2
BITMAP
0400
0600
0600
0600
FFF0
FFF0
0000
1180
39C0
30C0
6060
E070
C030
0020
ENDCHAR
STARTCHAR uni516E
ENCODING 20846
SWIDTH 1000 0
DWIDTH 14 0
BBX 14 14 0 -2
BITMAP
0CC0
0CC0
1860
3070
3FF8
FFF8
4C08
0C00
0FE0
1FE0
0060
0060
06E0
03C0
ENDCHAR
STARTCHAR uni5170
ENCODING 20848
SWIDTH 1000 0
DWIDTH 14 0
BBX 12 14 1 -2
BITMAP
30C0
30C0
1880
FFF0
FFF0
0000
0000
7FE0
7FE0
0000
0000
0000
FFF0
FFF0
ENDCHAR
STARTCHAR uni5171
ENCODING 20849
SWIDTH 1000 0
DWIDTH 14 0
BBX 12 14 1 -2
BITMAP
1080
1080
1080
FFF0
FFF0
1080
1080
FFF0
FFF0
0000
39C0
70E0
E070
4020
ENDCHAR
STARTCHAR uni5173
ENCODING 20851
SWIDTH 1000 0
DWIDTH 14 0
BBX 14 14 0 -2
BITMAP
1860
1860
0C40
3FF0
3FF0
0300
0300
7FF8
7FF8
0780
0EC0
1CF0
7838
6018
ENDCHAR
STARTCHAR uni5174
ENCODING 20852
SWIDTH 1000 0
DWIDTH 14 0
BBX 13 14 0 -2
BITMAP
0610
4618
6218
2330
3330
3060
0020
7FF8
7FF8
0840
1860
3030
7018
6018
ENDCHAR
STARTCHAR uni5175
ENCODING 20853
SWIDTH 1000 0
DWIDTH 14 0
BBX 12 14 1 -2
BITMAP
00C0
3FE0
3000
3000
3FF0
3FF0
3080
3080
FFF0
FFF0
1080
39E0
E070
C020
ENDCHAR
STARTCHAR uni5176
ENCODING 20854
SWIDTH 1000 0
DWIDTH 14 0
BBX 12 14 1 -2
BITMAP
30C0
FFF0
FFF0
30C0
3FC0
30C0
30C0
3FC0
30C0
FFF0
FFF0
39C0
F0F0
C020
ENDCHAR
STARTCHAR uni5177
ENCODING 20855
SWIDTH 1000 0
DWIDTH 14 0
BBX 14 13 0 -2
BITMAP
1FE0
1020
1FE0
1020
1FE0
1020
1FE0
1020
7FF8
7FF8
1CF0
7038
6008
ENDCHAR
STARTCHAR uni5178
ENCODING 20856
SWIDTH 1000 0
DWIDTH 14 0
BBX 14 14 0 -2
BITMAP
0480
0480
3FF0
3FF0
2490
3FF0
3FF0
2490
2490
FFFC
FFFC
1CE0
7838
6010
ENDCHAR
STARTCHAR uni5179
ENCODING 20857
SWIDTH 1000 0
DWIDTH 14 0
BBX 13 14 1 -2
BITMAP
30C0
30C0
FFF0
FFF0
30C0
6180
4F20
FBE0
F3C0
30A0
69B0
FFF0
FFD0
0010
ENDCHAR
STARTCHAR uni517B
ENCODING 20859
SWIDTH 1000 0
DWIDTH 14 0
BBX 14 14 0 -2
BITMAP
1860
08C0
7FF8
0300
3FF0
0600
7FF8
1CC0
7870
6CD8
0CC0
18C0
38C0
30C0
ENDCHAR
STARTCHAR uni517C
ENCODING 20860
SWIDTH 1000 0
DWIDTH 14 0
BBX 14 14 0 -2
BITMAP
1860
1C60
7FF8
0480
3FF0
04B0
04B0
7FF8
04B0
3FF0
0CC0
3CF0
74B8
4488
ENDCHAR
STARTCHAR uni517D
ENCODING 20861
SWIDTH 1000 0
DWIDTH 14 0
BBX 12 14 1 -2
BITMAP
30C0
1880
7FE0
4620
7FE0
4620
7FE0
0000
FFF0
0000
7FE0
6060
7FE0
6060
ENDCHAR
STARTCHAR uni5180
ENCODING 20864
SWIDTH 1000 0
DWIDTH 14 0
BBX 12 14 1 -2
BITMAP
FB20
1BE0
1B10
F9F0
7FE0
6660
7FE0
6660
7FE0
FFF0
1080
FFF0
39E0
E030
ENDCHAR
STARTCHAR uni5181
ENCODING 20865
SWIDTH 1000 0
DWIDTH 14 0
BBX 14 14 0 -2
BITMAP
6800
29F8
7D08
55F8
5550
7D50
55F8
5550
7FF8
13E0
FFD8
12D0
16FC
1288
ENDCHAR
STARTCHAR uni5182
ENCODING 20866
SWIDTH 1000 0
DWIDTH 14 0
BBX 12 13 1 -2
BITMAP
FFF0
FFF0
C030
C030
C030
C030
C030
C030
C030
C030
C030
C0F0
C0E0
ENDCHAR
STARTCHAR uni5185
ENCODING 20869
SWIDTH 1000 0
DWIDTH 14 0
BBX 12 14 1 -2
BITMAP
0600
0600
FFF0
FFF0
C630
C630
C630
CF30
CDB0
F8F0
D0B0
C030
C0F0
C0E0
ENDCHAR
STARTCHAR uni5188
ENCODING 20872
SWIDTH 1000 0
DWIDTH 14 0
BBX 12 13 1 -2
BITMAP
FFF0
FFF0
C0B0
D1B0
D930
CF30
C630
C730
CDB0
D9F0
D0B0
C1F0
C0E0
ENDCHAR
STARTCHAR uni5189
ENCODING 20873
SWIDTH 1000 0
DWIDTH 14 0
BBX 12 14 1 -2
BITMAP
0600
0600
7FE0
7FE0
6660
7FE0
7FE0
6660
FFF0
FFF0
6060
6060
61E0
60E0
ENDCHAR
STARTCHAR uni518C
ENCODING 20876
SWIDTH 1000 0
DWIDTH 14 0
BBX 13 13 0 -2
BITMAP
3DF0
3DF0
3590
3590
3590
7FF8
7FF8
2590
2590
2590
6590
6770
4D70
ENDCHAR
STARTCHAR uni518D
ENCODING 20877
SWIDTH 1000 0
DWIDTH 14 0
BBX 14 13 0 -2
BITMAP
7FF8
7FF8
0300
3FF0
3330
3FF0
3330
3330
FFFC
FFFC
3030
30F0
30F0
ENDCHAR
STARTCHAR uni5192
ENCODING 20882
SWIDTH 1000 0
DWIDTH 14 0
BBX 10 13 2 -2
BITMAP
FFC0
8040
BF40
8040
BF40
FFC0
C0C0
FFC0
C0C0
FFC0
C0C0
FFC0
C0C0
ENDCHAR
STARTCHAR uni5195
ENCODING 20885
SWIDTH 1000 0
DWIDTH 14 0
BBX 14 14 0 -2
BITMAP
3FF0
2010
2FD0
2010
2FD0
0FC0
18C0
7FF0
3330
3FF0
0680
0E88
3C88
70F8
ENDCHAR
STARTCHAR uni5196
ENCODING 20886
SWIDTH 1000 0
DWIDTH 14 0
BBX 12 4 1 4
BITMAP
FFF0
FFF0
C030
C030
ENDCHAR
STARTCHAR uni5197
ENCODING 20887
SWIDTH 1000 0
DWIDTH 14 0
BBX 14 13 0 -2
BITMAP
7FF8
7FF8
6018
6018
0FC0
0FC0
0CC0
0CC0
08C0
18CC
38C8
70F8
4070
ENDCHAR
STARTCHAR uni5199
ENCODING 20889
SWIDTH 1000 0
DWIDTH 14 0
BBX 12 13 1 -2
BITMAP
FFF0
FFF0
D830
1FC0
3000
3000
3FE0
0060
FF60
FF40
0040
04C0
03C0
ENDCHAR
STARTCHAR uni519B
ENCODING 20891
SWIDTH 1000 0
DWIDTH 14 0
BBX 12 13 1 -2
BITMAP
FFF0
C830
C830
3FC0
1800
3200
3200
3FE0
0200
FFF0
FFF0
0200
0200
ENDCHAR
STARTCHAR uni519C
ENCODING 20892
SWIDTH 1000 0
DWIDTH 14 0
BBX 14 14 0 -2
BITMAP
0180
0300
7FF8
7FF8
6718
0700
0DB0
39F0
F8C0
78C0
1860
1F38
1F18
1000
ENDCHAR
STARTCHAR uni51A0
ENCODING 20896
SWIDTH 1000 0
DWIDTH 14 0
BBX 14 14 0 -2
BITMAP
7FF8
7FF8
6018
7E30
3E30
01F8
7E30
7EB0
34F0
24B0
2478
640C
E7F8
4000
ENDCHAR
STARTCHAR uni51A2
ENCODING 20898
SWIDTH 1000 0
DWIDTH 14 0
BBX 12 13 1 -2
BITMAP
FFF0
C030
FFF0
0C00
7C20
E6E0
7F80
73C0
DF40
1B60
7330
CE10
0E00
ENDCHAR
STARTCHAR uni51A4
ENCODING 20900
SWIDTH 1000 0
DWIDTH 14 0
BBX 14 13 0 -2
BITMAP
7FF8
6C18
6F98
1980
7180
7FF0
3330
3FF0
07A0
07E0
1DBC
798C
60F8
ENDCHAR
STARTCHAR uni51A5
ENCODING 20901
SWIDTH 1000 0
DWIDTH 14 0
BBX 12 13 1 -2
BITMAP
FFF0
C030
FFF0
6060
7FE0
6060
7FE0
0600
FFF0
0000
39C0
F070
4020
ENDCHAR
STARTCHAR uni51AB
ENCODING 20907
SWIDTH 1000 0
DWIDTH 14 0
BBX 5 11 1 -1
BITMAP
E0
60
30
00
00
10
30
30
60
E0
40
ENDCHAR
STARTCHAR uni51AC
ENCODING 20908
SWIDTH 1000 0
DWIDTH 14 0
BBX 13 14 1 -2
BITMAP
0C00
1800
3FC0
30C0
F980
4F00
1F80
F9F0
CC30
0F80
0180
3C00
0FC0
0180
ENDCHAR
STARTCHAR uni51AF
ENCODING 20911
SWIDTH 1000 0
DWIDTH 14 0
BBX 13 13 0 -2
BITMAP
4FF0
6FF0
2630
3630
2630
07F8
27F8
3018
2FF8
6FF8
6018
C0B0
00F0
ENDCHAR
STARTCHAR uni51B0
ENCODING 20912
SWIDTH 1000 0
DWIDTH 14 0
BBX 14 14 0 -2
BITMAP
00C0
40C0
60C0
30C8
0FD8
0EF0
02E0
26E0
36E0
6CF0
6CD8
58C8
03C0
0380
ENDCHAR
STARTCHAR uni51B1
ENCODING 20913
SWIDTH 1000 0
DWIDTH 14 0
BBX 13 13 0 -2
BITMAP
4FF8
6FF8
3300
3300
23F0
0230
2630
37F0
37F0
6020
6020
CFF8
0FF8
ENDCHAR
STARTCHAR uni51B2
ENCODING 20914
SWIDTH 1000 0
DWIDTH 14 0
BBX 13 14 0 -2
BITMAP
00C0
60C0
70C0
37F8
07F8
04D8
04D8
17F8
37F8
64D8
60C0
40C0
00C0
00C0
ENDCHAR
STARTCHAR uni51B3
ENCODING 20915
SWIDTH 1000 0
DWIDTH 14 0
BBX 14 14 0 -2
BITMAP
0080
4080
67F0
37F0
2090
0090
0090
0FFC
3FFC
31C0
6360
6730
4E3C
0C08
ENDCHAR
STARTCHAR uni51B5
ENCODING 20917
SWIDTH 1000 0
DWIDTH 14 0
BBX 14 13 0 -2
BITMAP
07F8
77F8
3618
0618
07F8
17F8
1360
3360
6360
6368
466C
0E68
0C78
ENDCHAR
STARTCHAR uni51B6
ENCODING 20918
SWIDTH 1000 0
DWIDTH 14 0
BBX 13 14 0 -2
BITMAP
0180
6180
6360
3330
0610
0FF8
0788
0000
17F0
37F0
2610
6610
C7F0
07F0
ENDCHAR
STARTCHAR uni51B7
ENCODING 20919
SWIDTH 1000 0
DWIDTH 14 0
BBX 14 14 0 -2
BITMAP
00C0
41C0
61E0
3360
26B8
1CD8
0888
27F0
37F0
2070
6360
61C0
C0E0
0040
ENDCHAR
STARTCHAR uni51BB
ENCODING 20923
SWIDTH 1000 0
DWIDTH 14 0
BBX 14 14 0 -2
BITMAP
0180
4300
6FF8
6FF8
22C0
06C0
04C0
07F8
30C0
26D0
66D8
6CD8
CFCC
0180
ENDCHAR
STARTCHAR uni51BC
ENCODING 20924
SWIDTH 1000 0
DWIDTH 14 0
BBX 14 14 0 -2
BITMAP
06C0
66C0
77F8
37F8
0CC0
08C0
0FF8
1FF8
3360
6360
6368
466C
1C78
0800
ENDCHAR
STARTCHAR uni51BD
ENCODING 20925
SWIDTH 1000 0
DWIDTH 14 0
BBX 13 14 0 -2
BITMAP
0008
4FE8
6FE8
6468
27E8
0FE8
09E8
2968
2768
6368
6208
6608
CC78
0838
ENDCHAR
STARTCHAR uni51C0
ENCODING 20928
SWIDTH 1000 0
DWIDTH 14 0
BBX 14 14 0 -2
BITMAP
0300
4300
67E0
3E60
2FF0
0090
0090
0FFC
3090
37F0
6090
6080
6380
0380
ENDCHAR
STARTCHAR uni51C4
ENCODING 20932
SWIDTH 1000 0
DWIDTH 14 0
BBX 13 14 0 -2
BITMAP
0180
4FF8
6180
2FF0
2190
1FF8
0190
0FF0
2100
6FF8
6660
47C0
CFF0
0C18
ENDCHAR
STARTCHAR uni51C6
ENCODING 20934
SWIDTH 1000 0
DWIDTH 14 0
BBX 14 14 0 -2
BITMAP
0340
6260
6640
37F8
2C60
1C60
1FF8
0460
3460
37F8
6460
6460
67FC
0400
ENDCHAR
STARTCHAR uni51C7
ENCODING 20935
SWIDTH 1000 0
DWIDTH 14 0
BBX 14 14 0 -2
BITMAP
0450
44D0
64D8
3FD8
1F98
0FA8
0EE8
0D60
3E40
7450
64D8
44D8
C4F8
0488
ENDCHAR
STARTCHAR uni51C9
ENCODING 20937
SWIDTH 1000 0
DWIDTH 14 0
BBX 13 14 0 -2
BITMAP
0180
4FF8
6FF8
2000
37F0
0410
0410
27F0
3080
26B0
6C90
6C98
DA88
0380
ENDCHAR
STARTCHAR uni51CB
ENCODING 20939
SWIDTH 1000 0
DWIDTH 14 0
BBX 13 13 0 -2
BITMAP
6FF8
7C18
3C98
0DF8
0C98
0FF8
3C18
3DF8
6D78
6DF8
4918
1838
1038
ENDCHAR
STARTCHAR uni51CC
ENCODING 20940
SWIDTH 1000 0
DWIDTH 14 0
BBX 14 14 0 -2
BITMAP
00C0
67F0
60C0
30C0
2FF8
0220
0738
2D88
33F0
2730
6F60
61C0
CFFC
0C18
ENDCHAR
STARTCHAR uni51CF
ENCODING 20943
SWIDTH 1000 0
DWIDTH 14 0
BBX 14 14 0 -2
BITMAP
0070
4078
4070
6FF8
2860
0BE8
0868
0BB8
2AB0
6AB0
7BEC
5A7C
D8D8
1098
ENDCHAR
STARTCHAR uni51D1
ENCODING 20945
SWIDTH 1000 0
DWIDTH 14 0
BBX 14 14 0 -2
BITMAP
0180
6FF8
6180
37F0
2300
0300
0FF8
0630
2FF8
3888
67F0
6360
CE78
0C08
ENDCHAR
STARTCHAR uni51DB
ENCODING 20955
SWIDTH 1000 0
DWIDTH 14 0
BBX 13 14 0 -2
BITMAP
0180
0FF8
6000
37F8
25D8
0558
07F8
1000
37F0
6000
6FF8
4690
0CB8
0988
ENDCHAR
STARTCHAR uni51DD
ENCODING 20957
SWIDTH 1000 0
DWIDTH 14 0
BBX 14 14 0 -2
BITMAP
0800
4BF8
6E58
3970
0F30
0C10
0FF8
3E38
26F0
6FB8
66F0
47F0
4EF0
18B8
ENDCHAR
STARTCHAR uni51E0
ENCODING 20960
SWIDTH 1000 0
DWIDTH 14 0
BBX 14 13 0 -2
BITMAP
1FC0
1FC0
1840
1840
1840
1840
1840
1840
1840
304C
3048
6078
4030
ENDCHAR
STARTCHAR uni51E1
ENCODING 20961
SWIDTH 1000 0
DWIDTH 14 0
BBX 14 13 0 -2
BITMAP
1FE0
1FE0
1860
1860
1E60
1E60
1B60
1960
1060
306C
306C
6078
4038
ENDCHAR
STARTCHAR uni51E4
ENCODING 20964
SWIDTH 1000 0
DWIDTH 14 0
BBX 14 14 0 -2
BITMAP
3FF0
3FF0
3030
3FB0
3FF0
20F0
24B0
27B0
2330
2390
67D0
6CD4
681C
4008
ENDCHAR
STARTCHAR uni51EB
ENCODING 20971
SWIDTH 1000 0
DWIDTH 14 0
BBX 14 14 0 -2
BITMAP
0200
0600
3FF0
3430
3760
3100
3FF8
3FF8
1F98
18B8
1880
188C
F0F8
6000
ENDCHAR
STARTCHAR uni51ED
ENCODING 20973
SWIDTH 1000 0
DWIDTH 14 0
BBX 14 14 0 -2
BITMAP
1830
17F0
30C0
7FF8
70C0
30C0
37F8
3000
0000
1FC0
1840
384C
7078
4030
ENDCHAR
STARTCHAR uni51EF
ENCODING 20975
SWIDTH 1000 0
DWIDTH 14 0
BBX 13 14 1 -2
BITMAP
3000
BDE0
BD60
FD60
0160
0160
FD60
0D60
0D60
FF60
C370
FA78
E630
0200
ENDCHAR
STARTCHAR uni51F0
ENCODING 20976
SWIDTH 1000 0
DWIDTH 14 0
BBX 14 13 0 -2
BITMAP
3FF0
2310
2FD0
28D0
2FD0
2FD0
2FD0
2FD0
2310
6FD0
6314
5FFC
4008
ENDCHAR
STARTCHAR uni51F3
ENCODING 20979
SWIDTH 1000 0
DWIDTH 14 0
BBX 14 14 0 -2
BITMAP
0020
7FE0
2CD8
3FF0
7FF8
5868
1FE0
0CC0
7FF8
0000
0FC0
1848
3848
7078
ENDCHAR
STARTCHAR uni51F5
ENCODING 20981
SWIDTH 1000 0
DWIDTH 14 0
BBX 12 13 1 -2
BITMAP
C030
C030
C030
C030
C030
C030
C030
C030
C030
C030
FFF0
FFF0
0030
ENDCHAR
STARTCHAR uni51F6
ENCODING 20982
SWIDTH 1000 0
DWIDTH 14 0
BBX 12 13 1 -2
BITMAP
00C0
3080
D9B0
CF30
C730
C730
CFB0
DDF0
F8F0
C030
FFF0
FFF0
0030
ENDCHAR
STARTCHAR uni51F8
ENCODING 20984
SWIDTH 1000 0
DWIDTH 14 0
BBX 12 13 1 -2
BITMAP
1F80
1F80
1980
1980
F9F0
F9F0
C030
C030
C030
C030
FFF0
FFF0
C030
ENDCHAR
STARTCHAR uni51F9
ENCODING 20985
SWIDTH 1000 0
DWIDTH 14 0
BBX 12 13 1 -2
BITMAP
F9F0
F9F0
C930
C930
C930
CF30
CF30
C030
C030
C030
FFF0
FFF0
C030
ENDCHAR
STARTCHAR uni51FA
ENCODING 20986
SWIDTH 1000 0
DWIDTH 14 0
BBX 12 14 1 -2
BITMAP
0600
6660
6660
6660
6660
7FE0
7FE0
C630
C630
C630
C630
FFF0
FFF0
0030
ENDCHAR
STARTCHAR uni51FB
ENCODING 20987
SWIDTH 1000 0
DWIDTH 14 0
BBX 12 14 1 -2
BITMAP
0600
0600
7FE0
7FE0
0600
FFF0
FFF0
0600
6660
6660
6660
7FE0
7FE0
0060
ENDCHAR
STARTCHAR uni51FC
ENCODING 20988
SWIDTH 1000 0
DWIDTH 14 0
BBX 12 14 1 -2
BITMAP
0600
C630
C630
FEF0
CFB0
DF30
DFB0
F6F0
F6F0
EE30
CE30
FFF0
FFF0
0030
ENDCHAR
STARTCHAR uni51FD
ENCODING 20989
SWIDTH 1000 0
DWIDTH 14 0
BBX 12 14 1 -2
BITMAP
3F80
3FC0
0180
C730
E6F0
F6F0
D7B0
CFB0
FFF0
F6F0
CE30
C030
FFF0
FFF0
ENDCHAR
STARTCHAR uni51FF
ENCODING 20991
SWIDTH 1000 0
DWIDTH 14 0
BBX 14 14 0 -2
BITMAP
0480
3490
14B0
FFFC
FFFC
0CC0
6498
6FD8
6318
6FD8
6318
6018
7FF8
0018
ENDCHAR
STARTCHAR uni5200
ENCODING 20992
SWIDTH 1000 0
DWIDTH 14 0
BBX 13 13 0 -2
BITMAP
7FF8
7FF8
0618
0618
0618
0618
0C18
0C18
0C10
1810
3830
F0F0
60E0
ENDCHAR
STARTCHAR uni5201
ENCODING 20993
SWIDTH 1000 0
DWIDTH 14 0
BBX 12 13 1 -2
BITMAP
FFF0
FFF0
0030
0030
0230
0730
1E20
3820
F060
C060
0060
03E0
03C0
ENDCHAR
STARTCHAR uni5202
ENCODING 20994
SWIDTH 1000 0
DWIDTH 14 0
BBX 6 14 7 -2
BITMAP
0C
0C
CC
CC
CC
CC
CC
CC
CC
CC
0C
0C
38
30
ENDCHAR
STARTCHAR uni5203
ENCODING 20995
SWIDTH 1000 0
DWIDTH 14 0
BBX 12 13 1 -2
BITMAP
FFE0
FFE0
0620
4620
6420
6C20
CC20
CC60
1860
3860
7060
E3E0
C1C0
ENDCHAR
STARTCHAR uni5206
ENCODING 20998
SWIDTH 1000 0
DWIDTH 14 0
BBX 14 14 0 -2
BITMAP
0840
0CC0
1860
3830
3038
FFF8
1FE8
0620
0620
0C20
0C60
1860
71E0
21C0
ENDCHAR
STARTCHAR uni5207
ENCODING 20999
SWIDTH 1000 0
DWIDTH 14 0
BBX 13 13 0 -2
BITMAP
33F8
33F8
3488
FC98
F098
3098
3198
3598
3D98
7B18
2318
0E78
0470
ENDCHAR
STARTCHAR uni5208
ENCODING 21000
SWIDTH 1000 0
DWIDTH 14 0
BBX 13 14 0 -2
BITMAP
0218
0218
4618
66D8
34D8
3CD8
1CD8
0CD8
1CD8
16D8
3618
6218
6078
0070
ENDCHAR
STARTCHAR uni520A
ENCODING 21002
SWIDTH 1000 0
DWIDTH 14 0
BBX 13 14 0 -2
BITMAP
0018
7E18
7ED8
18D8
18D8
18D8
FED8
FED8
18D8
18D8
1818
1818
1878
1870
ENDCHAR
STARTCHAR uni520D
ENCODING 21005
SWIDTH 1000 0
DWIDTH 14 0
BBX 13 14 0 -2
BITMAP
0600
0C00
0FF0
1FF0
3060
FFF8
7FF8
0018
1FF8
1FF8
0018
3FF8
3FF8
0018
ENDCHAR
STARTCHAR uni520E
ENCODING 21006
SWIDTH 1000 0
DWIDTH 14 0
BBX 13 14 0 -2
BITMAP
3018
3018
3F78
7F78
7578
D578
5578
2D78
2B78
4B78
5B18
1318
3E38
0438
ENDCHAR
STARTCHAR uni5211
ENCODING 21009
SWIDTH 1000 0
DWIDTH 14 0
BBX 13 14 0 -2
BITMAP
0018
7F18
7F58
3658
3658
3658
7F58
7F58
3658
2658
2618
6618
6678
4638
ENDCHAR
STARTCHAR uni5212
ENCODING 21010
SWIDTH 1000 0
DWIDTH 14 0
BBX 13 14 0 -2
BITMAP
3418
3618
3258
3358
FF58
F058
1258
1658
1C58
1C58
1918
3D18
6F78
4638
ENDCHAR
STARTCHAR uni5216
ENCODING 21014
SWIDTH 1000 0
DWIDTH 14 0
BBX 13 14 0 -2
BITMAP
3E18
3ED8
26D8
26D8
3ED8
26D8
26D8
26D8
3ED8
66D8
6618
6618
4E78
4E38
ENDCHAR
STARTCHAR uni5217
ENCODING 21015
SWIDTH 1000 0
DWIDTH 14 0
BBX 13 14 0 -2
BITMAP
0018
7F58
7F58
3058
3F58
3F58
6258
D658
7E58
0C58
0C18
1818
7038
6038
ENDCHAR
STARTCHAR uni5218
ENCODING 21016
SWIDTH 1000 0
DWIDTH 14 0
BBX 13 14 0 -2
BITMAP
1818
1818
7FD8
7FD8
06D8
64D8
3CD8
1CD8
1CD8
1CD8
1E18
3618
6078
4078
ENDCHAR
STARTCHAR uni5219
ENCODING 21017
SWIDTH 1000 0
DWIDTH 14 0
BBX 13 14 0 -2
BITMAP
0018
7F58
6358
7B58
7B58
7B58
7B58
7B58
7B58
7B58
1C58
3618
7378
4070
ENDCHAR
STARTCHAR uni521A
ENCODING 21018
SWIDTH 1000 0
DWIDTH 14 0
BBX 12 14 1 -2
BITMAP
0010
FED0
C2D0
EAD0
EAD0
FAD0
DAD0
DAD0
DAD0
FAD0
EA10
E210
CE30
C070
ENDCHAR
STARTCHAR uni521B
ENCODING 21019
SWIDTH 1000 0
DWIDTH 14 0
BBX 13 14 0 -2
BITMAP
0C18
1C18
1E58
3658
6358
6158
3E58
3258
3258
3E58
3118
3118
3F78
0078
ENDCHAR
STARTCHAR uni521D
ENCODING 21021
SWIDTH 1000 0
DWIDTH 14 0
BBX 13 14 0 -2
BITMAP
3000
13F8
13F8
7C98
0898
1898
3698
7D98
FD98
7598
3118
3318
3670
3270
ENDCHAR
STARTCHAR uni5220
ENCODING 21024
SWIDTH 1000 0
DWIDTH 14 0
BBX 13 14 0 -2
BITMAP
0008
7F88
7FA8
7FA8
7FA8
7FA8
7FA8
7FA8
7FA8
7FA8
7FA8
5D88
5D88
7DB8
ENDCHAR
STARTCHAR uni5224
ENCODING 21028
SWIDTH 1000 0
DWIDTH 14 0
BBX 12 14 1 -2
BITMAP
1030
D630
D7B0
5DB0
FFB0
FFB0
11B0
11B0
FFB0
FFB0
3030
6030
E0F0
40E0
ENDCHAR
STARTCHAR uni5228
ENCODING 21032
SWIDTH 1000 0
DWIDTH 14 0
BBX 13 14 0 -2
BITMAP
1018
3018
3F58
6158
FD58
6F58
6F58
6F58
7F58
6758
6018
6118
3F78
0038
ENDCHAR
STARTCHAR uni5229
ENCODING 21033
SWIDTH 1000 0
DWIDTH 14 0
BBX 13 14 0 -2
BITMAP
0418
7E18
78D8
18D8
7ED8
7ED8
18D8
3CD8
3ED8
7AD8
D818
5818
1878
1870
ENDCHAR
STARTCHAR uni522B
ENCODING 21035
SWIDTH 1000 0
DWIDTH 14 0
BBX 13 14 0 -2
BITMAP
0018
7E18
66D8
66D8
66D8
7ED8
10D8
7ED8
7ED8
12D8
3218
3618
6E78
4E30
ENDCHAR
STARTCHAR uni522D
ENCODING 21037
SWIDTH 1000 0
DWIDTH 14 0
BBX 13 14 0 -2
BITMAP
0018
7E58
7E58
0C58
1C58
7758
6358
0058
7F58
1858
1858
1B18
7F78
6038
ENDCHAR
STARTCHAR uni522E
ENCODING 21038
SWIDTH 1000 0
DWIDTH 14 0
BBX 13 14 0 -2
BITMAP
0618
7E18
78D8
18D8
FFD8
FFD8
18D8
18D8
7ED8
7ED8
6218
7E18
7E78
6070
ENDCHAR
STARTCHAR uni5230
ENCODING 21040
SWIDTH 1000 0
DWIDTH 14 0
BBX 12 14 1 -2
BITMAP
0030
FEB0
28B0
6CB0
FEB0
FEB0
10B0
10B0
FEB0
10B0
1230
7E30
F070
0040
ENDCHAR
STARTCHAR uni5233
ENCODING 21043
SWIDTH 1000 0
DWIDTH 14 0
BBX 13 14 0 -2
BITMAP
0818
0818
7F58
3658
6358
7D58
0058
7F58
3058
3F58
0318
0318
0218
1E38
ENDCHAR
STARTCHAR uni5236
ENCODING 21046
SWIDTH 1000 0
DWIDTH 14 0
BBX 13 14 0 -2
BITMAP
2818
6878
7F78
7F78
4878
7F78
7F78
0878
7F78
6978
6918
6918
6B38
0838
ENDCHAR
STARTCHAR uni5237
ENCODING 21047
SWIDTH 1000 0
DWIDTH 14 0
BBX 13 14 0 -2
BITMAP
0018
7F58
7F58
6358
7F58
6458
6458
7F58
7558
7558
5518
5718
C438
4438
ENDCHAR
STARTCHAR uni5238
ENCODING 21048
SWIDTH 1000 0
DWIDTH 14 0
BBX 14 14 0 -2
BITMAP
0320
1B60
0B60
3FF0
0600
7FF8
7FF8
3870
7FFC
5FE8
0C60
0C60
39E0
31C0
ENDCHAR
STARTCHAR uni5239
ENCODING 21049
SWIDTH 1000 0
DWIDTH 14 0
BBX 13 14 0 -2
BITMAP
0218
6618
3E58
1E58
7758
6858
0858
7F58
0858
2A58
6B18
4B18
4878
1838
ENDCHAR
STARTCHAR uni523A
ENCODING 21050
SWIDTH 1000 0
DWIDTH 14 0
BBX 13 14 0 -2
BITMAP
0818
08D8
7FD8
08D8
08D8
7FD8
4BD8
5BD8
18D8
3ED8
2F18
6A18
4878
0838
ENDCHAR
STARTCHAR uni523B
ENCODING 21051
SWIDTH 1000 0
DWIDTH 14 0
BBX 12 14 1 -2
BITMAP
3030
18F0
FEF0
FEF0
64F0
CCF0
FCF0
1BF0
36F0
ECF0
DC30
3E30
E3F0
C270
ENDCHAR
STARTCHAR uni523D
ENCODING 21053
SWIDTH 1000 0
DWIDTH 14 0
BBX 13 14 0 -2
BITMAP
0818
1C18
3678
7378
61F8
3E78
0078
7F78
7F78
3678
3218
2718
7F38
4138
ENDCHAR
STARTCHAR uni523F
ENCODING 21055
SWIDTH 1000 0
DWIDTH 14 0
BBX 13 14 0 -2
BITMAP
0818
6B18
6B58
6B58
7F58
1858
3058
3F58
6358
5658
1E18
1C18
7878
6038
ENDCHAR
STARTCHAR uni5240
ENCODING 21056
SWIDTH 1000 0
DWIDTH 14 0
BBX 12 14 1 -2
BITMAP
1010
9610
9690
FE90
0090
FE90
FE90
0690
FE90
FE90
8010
9E10
FEB0
8070
ENDCHAR
STARTCHAR uni5241
ENCODING 21057
SWIDTH 1000 0
DWIDTH 14 0
BBX 13 14 0 -2
BITMAP
0018
3E78
3678
3678
6678
6378
0878
7F78
7F78
1E78
3E18
6B18
4838
0838
ENDCHAR
STARTCHAR uni5242
ENCODING 21058
SWIDTH 1000 0
DWIDTH 14 0
BBX 13 14 0 -2
BITMAP
1808
0C08
7FE8
2268
3E68
0E68
7F68
6168
3268
3268
3208
3208
6258
4238
ENDCHAR
STARTCHAR uni5243
ENCODING 21059
SWIDTH 1000 0
DWIDTH 14 0
BBX 13 14 0 -2
BITMAP
2318
3218
3658
7F58
0958
7F58
4858
4858
7F58
1958
3918
6B18
4B38
0838
ENDCHAR
STARTCHAR uni524A
ENCODING 21066
SWIDTH 1000 0
DWIDTH 14 0
BBX 12 14 1 -2
BITMAP
3030
B630
F5B0
B5B0
FDB0
FDB0
C5B0
FDB0
C5B0
FDB0
C430
C430
DCF0
D0E0
ENDCHAR
STARTCHAR uni524C
ENCODING 21068
SWIDTH 1000 0
DWIDTH 14 0
BBX 13 14 0 -2
BITMAP
0818
0818
7F58
0858
7F58
4B58
4B58
7F58
1858
3C58
6E18
EB18
4878
0838
ENDCHAR
STARTCHAR uni524D
ENCODING 21069
SWIDTH 1000 0
DWIDTH 14 0
BBX 12 14 1 -2
BITMAP
3040
30C0
1080
FFF0
0000
FDB0
CDB0
FDB0
CDB0
CDB0
FDB0
CC30
CCF0
DCE0
ENDCHAR
STARTCHAR uni5250
ENCODING 21072
SWIDTH 1000 0
DWIDTH 14 0
BBX 12 14 1 -2
BITMAP
0030
7E30
46F0
7EF0
18F0
18F0
FFF0
FFF0
DBF0
FFF0
FF30
E330
C370
C670
ENDCHAR
STARTCHAR uni5251
ENCODING 21073
SWIDTH 1000 0
DWIDTH 14 0
BBX 13 14 0 -2
BITMAP
0C08
1C08
1E68
3368
61E8
7E68
0068
6968
6B68
2E68
2208
0708
7F18
6038
ENDCHAR
STARTCHAR uni5254
ENCODING 21076
SWIDTH 1000 0
DWIDTH 14 0
BBX 13 14 0 -2
BITMAP
0018
7F18
6358
7F58
6358
7F58
3058
7F58
D558
5558
2D18
6B18
5B38
1638
ENDCHAR
STARTCHAR uni5256
ENCODING 21078
SWIDTH 1000 0
DWIDTH 14 0
BBX 12 14 1 -2
BITMAP
3030
1030
FEB0
FEB0
64B0
6CB0
FEB0
FEB0
00B0
FEB0
C630
C630
FE70
C670
ENDCHAR
STARTCHAR uni525C
ENCODING 21084
SWIDTH 1000 0
DWIDTH 14 0
BBX 13 14 0 -2
BITMAP
0C18
0C18
7FF8
41F8
2078
7F78
7D78
5D78
F578
B778
3418
3798
6F38
4038
ENDCHAR
STARTCHAR uni525E
ENCODING 21086
SWIDTH 1000 0
DWIDTH 14 0
BBX 13 14 0 -2
BITMAP
0818
0818
7F58
1C58
7758
4258
FF58
0258
7A58
4A58
7A18
4218
0238
0E38
ENDCHAR
STARTCHAR uni5261
ENCODING 21089
SWIDTH 1000 0
DWIDTH 14 0
BBX 13 14 0 -2
BITMAP
0818
2B18
6B58
5A58
1E58
7758
6A58
0858
6B58
6A58
5C18
3618
7338
4038
ENDCHAR
STARTCHAR uni5265
ENCODING 21093
SWIDTH 1000 0
DWIDTH 14 0
BBX 13 14 0 -2
BITMAP
0018
7E18
0258
3E58
0258
7F58
0858
6B58
2A58
1E58
7F18
E918
0838
3838
ENDCHAR
STARTCHAR uni5267
ENCODING 21095
SWIDTH 1000 0
DWIDTH 14 0
BBX 13 14 0 -2
BITMAP
0008
7F08
6168
6168
7F68
6468
7FE8
6468
6468
7F68
5108
D108
5F38
1138
ENDCHAR
STARTCHAR uni5269
ENCODING 21097
SWIDTH 1000 0
DWIDTH 14 0
BBX 13 14 0 -2
BITMAP
0718
7F18
0C78
7FF8
0C78
2E78
6FF8
2E78
6FF8
1C78
3F18
3F98
6C38
0C38
ENDCHAR
STARTCHAR uni526A
ENCODING 21098
SWIDTH 1000 0
DWIDTH 14 0
BBX 12 14 1 -2
BITMAP
30C0
FFF0
0000
7D20
4D20
7D20
4D20
7C20
4CE0
FFE0
0C20
1C60
7860
E1E0
ENDCHAR
STARTCHAR uni526F
ENCODING 21103
SWIDTH 1000 0
DWIDTH 14 0
BBX 12 14 1 -2
BITMAP
0030
FE30
00B0
FEB0
C6B0
FEB0
00B0
00B0
FEB0
92B0
FE30
9230
FEF0
8270
ENDCHAR
STARTCHAR uni5272
ENCODING 21106
SWIDTH 1000 0
DWIDTH 14 0
BBX 12 14 1 -2
BITMAP
1010
FF10
83D0
93D0
7ED0
10D0
7CD0
10D0
FED0
10D0
7ED0
4610
7E70
4670
ENDCHAR
STARTCHAR uni527D
ENCODING 21117
SWIDTH 1000 0
DWIDTH 14 0
BBX 13 14 0 -2
BITMAP
0018
7F18
1478
7F78
5578
7F78
0078
7F78
0078
7F78
0818
6B18
4938
5838
ENDCHAR
STARTCHAR uni527F
ENCODING 21119
SWIDTH 1000 0
DWIDTH 14 0
BBX 13 14 0 -2
BITMAP
2F18
7A18
7B58
2D58
7F58
6B58
7F58
6B58
7F58
0858
7F18
3E18
EB38
4838
ENDCHAR
STARTCHAR uni5281
ENCODING 21121
SWIDTH 1000 0
DWIDTH 14 0
BBX 13 14 0 -2
BITMAP
3418
3678
7F78
6478
7F78
2478
3F78
2478
2478
3F78
2118
7F98
4AB8
4838
ENDCHAR
STARTCHAR uni5282
ENCODING 21122
SWIDTH 1000 0
DWIDTH 14 0
BBX 13 14 0 -2
BITMAP
0008
7F88
5528
5528
5FE8
5EA8
4FA8
6FA8
6D28
5D28
4988
5B88
52C8
5238
ENDCHAR
STARTCHAR uni5288
ENCODING 21128
SWIDTH 1000 0
DWIDTH 14 0
BBX 13 14 0 -2
BITMAP
0060
7DF8
6490
7C90
61F8
7E60
77F8
7E60
0060
7FF8
0610
0E10
7C30
70F0
ENDCHAR
STARTCHAR uni5290
ENCODING 21136
SWIDTH 1000 0
DWIDTH 14 0
BBX 13 14 0 -2
BITMAP
3208
7F88
3C68
7FE8
6468
FF68
2468
3F68
3FE8
0068
7F08
3708
1E08
7338
ENDCHAR
STARTCHAR uni5293
ENCODING 21139
SWIDTH 1000 0
DWIDTH 14 0
BBX 13 14 0 -2
BITMAP
1818
3F18
3F58
2358
3F58
3F58
7F58
7F58
4958
7F58
FF18
3618
6678
6638
ENDCHAR
STARTCHAR uni529B
ENCODING 21147
SWIDTH 1000 0
DWIDTH 14 0
BBX 12 14 1 -2
BITMAP
0C00
0C00
0C00
FFF0
FFF0
0C30
0C30
0C30
1820
1820
3820
7060
E1E0
41C0
ENDCHAR
STARTCHAR uni529D
ENCODING 21149
SWIDTH 1000 0
DWIDTH 14 0
BBX 13 14 0 -2
BITMAP
00C0
7CC0
7CC0
0FF8
CFF8
68D8
38D8
1898
1998
3D98
6598
E318
4670
0060
ENDCHAR
STARTCHAR uni529E
ENCODING 21150
SWIDTH 1000 0
DWIDTH 14 0
BBX 14 14 0 -2
BITMAP
0600
0600
7FE0
7FE0
0660
3670
2478
6C78
6C68
4C6C
1840
38C0
73C0
6380
ENDCHAR
STARTCHAR uni529F
ENCODING 21151
SWIDTH 1000 0
DWIDTH 14 0
BBX 13 14 0 -2
BITMAP
00C0
7CC0
7CC0
33F8
33F8
30D8
3098
3098
3D98
FD98
7318
0318
0E70
0460
ENDCHAR
STARTCHAR uni52A0
ENCODING 21152
SWIDTH 1000 0
DWIDTH 14 0
BBX 13 14 0 -2
BITMAP
3000
3000
30F8
7EF8
7E98
3698
3698
3698
3698
2698
2698
66F8
DEF8
4C98
ENDCHAR
STARTCHAR uni52A1
ENCODING 21153
SWIDTH 1000 0
DWIDTH 14 0
BBX 13 14 1 -2
BITMAP
0C00
1800
3FE0
F0E0
5D80
0F00
FFF0
8600
0400
7FE0
0C20
1860
7060
E3C0
ENDCHAR
STARTCHAR uni52A2
ENCODING 21154
SWIDTH 1000 0
DWIDTH 14 0
BBX 13 14 0 -2
BITMAP
0040
FE40
FE40
31F8
31F8
3E48
3E48
36C8
36C8
26D8
66D8
6798
C7B8
5D20
ENDCHAR
STARTCHAR uni52A3
ENCODING 21155
SWIDTH 1000 0
DWIDTH 14 0
BBX 13 14 0 -2
BITMAP
0300
1B70
3338
73F8
23C0
0F80
7E00
0300
3FF8
0610
0610
1C30
78F0
60C0
ENDCHAR
STARTCHAR uni52A8
ENCODING 21160
SWIDTH 1000 0
DWIDTH 14 0
BBX 12 14 1 -2
BITMAP
0080
FC80
0080
03F0
03F0
FC90
6190
6990
4D90
4DB0
FD30
C330
07F0
02E0
ENDCHAR
STARTCHAR uni52A9
ENCODING 21161
SWIDTH 1000 0
DWIDTH 14 0
BBX 13 14 0 -2
BITMAP
00C0
7CC0
64C0
65F8
7DF8
64D8
64D8
7CD8
64D8
6698
7F98
FD98
4378
0270
ENDCHAR
STARTCHAR uni52AA
ENCODING 21162
SWIDTH 1000 0
DWIDTH 14 0
BBX 14 14 0 -2
BITMAP
1800
11F8
7E98
2690
74F0
1C60
3EF0
7198
0200
3FF0
0630
0C30
3C30
70E0
ENDCHAR
STARTCHAR uni52AB
ENCODING 21163
SWIDTH 1000 0
DWIDTH 14 0
BBX 12 14 1 -2
BITMAP
3080
3080
FC80
FFF0
33F0
3090
FC90
FCB0
69B0
6DB0
DDB0
FF30
83F0
0260
ENDCHAR
STARTCHAR uni52AC
ENCODING 21164
SWIDTH 1000 0
DWIDTH 14 0
BBX 13 14 0 -2
BITMAP
3040
3040
3E40
7EF8
42F8
7A48
6A48
6A48
6A48
7AD8
62D8
0698
07D8
1D30
ENDCHAR
STARTCHAR uni52AD
ENCODING 21165
SWIDTH 1000 0
DWIDTH 14 0
BBX 13 14 0 -2
BITMAP
0040
7E40
7E40
37F8
27F8
6648
4CC8
00C8
7EC8
66D8
6698
6798
7F78
6170
ENDCHAR
STARTCHAR uni52B1
ENCODING 21169
SWIDTH 1000 0
DWIDTH 14 0
BBX 13 14 0 -2
BITMAP
0060
7F60
7F60
60F8
7FF8
6868
6848
6E48
6A48
7AC8
7AD8
5A98
7FD8
6030
ENDCHAR
STARTCHAR uni52B2
ENCODING 21170
SWIDTH 1000 0
DWIDTH 14 0
BBX 13 14 0 -2
BITMAP
0040
7E40
7C40
0DF8
1DF8
7648
6248
0048
7ED8
18D8
18D8
7F98
73B8
0120
ENDCHAR
STARTCHAR uni52B3
ENCODING 21171
SWIDTH 1000 0
DWIDTH 14 0
BBX 13 14 0 -2
BITMAP
0840
7FF8
7FF8
0840
0000
7FF8
6618
3FF0
3FF0
0630
0C30
1C30
79F0
60C0
ENDCHAR
STARTCHAR uni52BE
ENCODING 21182
SWIDTH 1000 0
DWIDTH 14 0
BBX 13 14 0 -2
BITMAP
1860
1860
7E60
70F8
36F8
6448
7C48
1B48
3648
6CD8
5ED8
3E98
61D8
4130
ENDCHAR
STARTCHAR uni52BF
ENCODING 21183
SWIDTH 1000 0
DWIDTH 14 0
BBX 13 14 1 -2
BITMAP
2100
2100
FFE0
2160
FF60
E3F8
27B0
E400
0C00
FFE0
0C60
1860
F060
C1C0
ENDCHAR
STARTCHAR uni52C3
ENCODING 21187
SWIDTH 1000 0
DWIDTH 14 0
BBX 12 14 1 -2
BITMAP
30C0
30C0
FCC0
31F0
FFF0
8690
7C90
1890
30B0
FFB0
F1B0
3130
73B0
4260
ENDCHAR
STARTCHAR uni52C7
ENCODING 21191
SWIDTH 1000 0
DWIDTH 14 0
BBX 11 13 1 -2
BITMAP
7FE0
1F00
7FE0
6660
7FE0
6660
7FE0
6660
0600
FFE0
0C20
7860
E1E0
ENDCHAR
STARTCHAR uni52C9
ENCODING 21193
SWIDTH 1000 0
DWIDTH 14 0
BBX 13 14 0 -2
BITMAP
1060
3E60
6460
6DF8
7FF8
6B48
6B48
7FC8
1CC8
1CD8
1DB8
3D28
6418
47F8
ENDCHAR
STARTCHAR uni52CB
ENCODING 21195
SWIDTH 1000 0
DWIDTH 14 0
BBX 13 14 0 -2
BITMAP
0040
7E40
6640
7FF8
01F8
7E48
6258
7A58
7A58
7AD8
7AD8
34D8
77F8
40B0
ENDCHAR
STARTCHAR uni52D0
ENCODING 21200
SWIDTH 1000 0
DWIDTH 14 0
BBX 13 14 0 -2
BITMAP
0060
7E60
0C60
0878
7EF8
0848
3848
0048
7E58
5A58
5AD8
5BD8
FFD8
00B0
ENDCHAR
STARTCHAR uni52D2
ENCODING 21202
SWIDTH 1000 0
DWIDTH 14 0
BBX 13 14 0 -2
BITMAP
2440
7E40
2440
25F8
3DF8
1848
7E48
5A48
7ED8
18D8
FE98
1998
1BD8
1930
ENDCHAR
STARTCHAR uni52D6
ENCODING 21206
SWIDTH 1000 0
DWIDTH 14 0
BBX 12 14 1 -2
BITMAP
00C0
FEC0
86C0
FFF0
87F0
FE90
0090
FC90
C490
FCB0
FDB0
C5B0
FF30
C560
ENDCHAR
STARTCHAR uni52D8
ENCODING 21208
SWIDTH 1000 0
DWIDTH 14 0
BBX 13 14 0 -2
BITMAP
2660
2660
7F60
26F8
3EF8
2648
3E48
2648
FF48
6ED8
7AD8
7498
7FD8
0030
ENDCHAR
STARTCHAR uni52DF
ENCODING 21215
SWIDTH 1000 0
DWIDTH 14 0
BBX 14 14 0 -2
BITMAP
08C0
7FF8
08C0
3FF0
3030
3FF0
3FF0
0C00
7FF8
3A70
7FF8
0668
1C60
38C0
ENDCHAR
STARTCHAR uni52E4
ENCODING 21220
SWIDTH 1000 0
DWIDTH 14 0
BBX 13 14 0 -2
BITMAP
2440
7F40
2440
3DF8
1FF8
7E48
7E48
1848
7E48
18C8
7EC8
1898
FF98
0130
ENDCHAR
STARTCHAR uni52F0
ENCODING 21232
SWIDTH 1000 0
DWIDTH 14 0
BBX 14 14 0 -2
BITMAP
1800
10F8
7EA8
16F8
36A8
6CA8
40F8
4420
7E20
5778
5F48
5B58
5B54
FE70
ENDCHAR
STARTCHAR uni52F9
ENCODING 21241
SWIDTH 1000 0
DWIDTH 14 0
BBX 13 14 0 -2
BITMAP
0C00
1800
1FF8
3FF8
3018
6018
6018
0018
0018
0018
0018
0010
00F0
00F0
ENDCHAR
STARTCHAR uni52FA
ENCODING 21242
SWIDTH 1000 0
DWIDTH 14 0
BBX 13 14 0 -2
BITMAP
0C00
1800
1FF8
3FF8
3018
6018
6C18
0C18
0618
0318
0218
0010
00F0
00F0
ENDCHAR
STARTCHAR uni52FE
ENCODING 21246
SWIDTH 1000 0
DWIDTH 14 0
BBX 13 14 0 -2
BITMAP
0C00
1800
1FF8
3FF8
3418
6E18
4D98
1998
18D8
3FD8
3E58
0010
01F0
01E0
ENDCHAR
STARTCHAR uni52FF
ENCODING 21247
SWIDTH 1000 0
DWIDTH 14 0
BBX 13 14 0 -2
BITMAP
1800
1800
1FF8
3FF8
36D8
66D8
ECD8
0C98
1998
1998
3318
6318
06F0
0470
ENDCHAR
STARTCHAR uni5300
ENCODING 21248
SWIDTH 1000 0
DWIDTH 14 0
BBX 13 14 0 -2
BITMAP
0C00
1800
1FF8
3FF8
3018
6818
6E18
0618
0218
0390
1F10
3C30
01F0
01E0
ENDCHAR
STARTCHAR uni5305
ENCODING 21253
SWIDTH 1000 0
DWIDTH 14 0
BBX 14 14 0 -2
BITMAP
0C00
1800
1FF0
3FF0
7010
7F90
1190
1190
1FB0
1FF0
1060
1008
1FF8
07F0
ENDCHAR
STARTCHAR uni5306
ENCODING 21254
SWIDTH 1000 0
DWIDTH 14 0
BBX 13 14 0 -2
BITMAP
1800
1800
1FF8
3FF8
76D8
64D8
5C98
0F98
1B98
19D8
33D8
6710
06F0
04F0
ENDCHAR
STARTCHAR uni5308
ENCODING 21256
SWIDTH 1000 0
DWIDTH 14 0
BBX 13 14 0 -2
BITMAP
0800
1800
1FF8
3FF8
6018
7B58
7E58
3658
3F58
3D58
3FD8
3FD8
0078
0070
ENDCHAR
STARTCHAR uni530D
ENCODING 21261
SWIDTH 1000 0
DWIDTH 14 0
BBX 13 14 0 -2
BITMAP
1800
1000
3FF8
67D8
7FD8
4618
3FD8
36D8
3FD8
36D8
3FD8
36D8
36D8
0030
ENDCHAR
STARTCHAR uni530F
ENCODING 21263
SWIDTH 1000 0
DWIDTH 14 0
BBX 14 14 0 -2
BITMAP
18C0
1080
7FF8
3D88
6508
7FE8
01A8
7FA8
21E8
3DB8
0580
058C
0DF8
3C00
ENDCHAR
STARTCHAR uni5310
ENCODING 21264
SWIDTH 1000 0
DWIDTH 14 0
BBX 13 14 0 -2
BITMAP
1800
1800
3FF8
6018
FFD8
5FD8
10D8
1FD8
3FD8
3658
3FD8
3658
3FD0
3070
ENDCHAR
STARTCHAR uni5315
ENCODING 21269
SWIDTH 1000 0
DWIDTH 14 0
BBX 11 13 2 -1
BITMAP
C000
C000
C0C0
C1C0
CF80
FE00
F000
C000
C060
C060
C060
7FE0
7FC0
ENDCHAR
STARTCHAR uni5316
ENCODING 21270
SWIDTH 1000 0
DWIDTH 14 0
BBX 14 14 0 -2
BITMAP
0D80
1980
1998
3198
71B0
71F0
51E0
11C0
1780
1F88
1188
1188
11F8
10F0
ENDCHAR
STARTCHAR uni5317
ENCODING 21271
SWIDTH 1000 0
DWIDTH 14 0
BBX 14 14 0 -2
BITMAP
0C80
0C80
0C80
7C98
7CF0
0CE0
0C80
0C80
0C80
3C88
FC8C
6C8C
0CF8
0C70
ENDCHAR
STARTCHAR uni5319
ENCODING 21273
SWIDTH 1000 0
DWIDTH 14 0
BBX 14 14 0 -2
BITMAP
7EC0
62C0
7EC8
62D8
7EF0
00C0
7FC0
08C0
68CC
6FC8
68F8
7830
DFF8
4000
ENDCHAR
STARTCHAR uni531A
ENCODING 21274
SWIDTH 1000 0
DWIDTH 14 0
BBX 12 12 1 -1
BITMAP
FFF0
FFF0
C000
C000
C000
C000
C000
C000
C000
C000
FFF0
FFF0
ENDCHAR
STARTCHAR uni531D
ENCODING 21277
SWIDTH 1000 0
DWIDTH 14 0
BBX 12 13 1 -2
BITMAP
FFF0
FFF0
C300
C300
DFE0
DB20
DB20
DB20
DBE0
C300
C000
FFF0
FFF0
ENDCHAR
STARTCHAR uni5320
ENCODING 21280
SWIDTH 1000 0
DWIDTH 14 0
BBX 12 14 1 -2
BITMAP
FFF0
FFF0
C000
C7E0
DFE0
D800
DFF0
D880
D880
D880
F080
D080
FFF0
FFF0
ENDCHAR
STARTCHAR uni5321
ENCODING 21281
SWIDTH 1000 0
DWIDTH 14 0
BBX 12 13 1 -2
BITMAP
FFF0
FFF0
C000
DFE0
C300
C300
DFE0
C300
C300
DFE0
C000
FFF0
FFF0
ENDCHAR
STARTCHAR uni5323
ENCODING 21283
SWIDTH 1000 0
DWIDTH 14 0
BBX 12 14 1 -2
BITMAP
FFF0
FFF0
C000
DFE0
D320
D320
DFE0
D320
DFE0
D320
C300
C300
FFF0
FFF0
ENDCHAR
STARTCHAR uni5326
ENCODING 21286
SWIDTH 1000 0
DWIDTH 14 0
BBX 13 12 1 -1
BITMAP
FFF0
D080
D880
FEE0
DDA0
FEA0
CCA0
DFA0
FD30
CF30
C000
FFF8
ENDCHAR
STARTCHAR uni532A
ENCODING 21290
SWIDTH 1000 0
DWIDTH 14 0
BBX 12 14 1 -2
BITMAP
FFF0
FFF0
C780
C780
DFF0
C780
DFE0
C780
C780
FFF0
C780
C780
FFF0
FFF0
ENDCHAR
STARTCHAR uni532E
ENCODING 21294
SWIDTH 1000 0
DWIDTH 14 0
BBX 12 12 1 -1
BITMAP
FFF0
DFE0
DB60
DFE0
C300
FFF0
DFE0
DB60
DB60
DFE0
F820
FFF0
ENDCHAR
STARTCHAR uni5339
ENCODING 21305
SWIDTH 1000 0
DWIDTH 14 0
BBX 12 12 1 -1
BITMAP
FFF0
FFF0
C980
C980
C980
C980
D990
D9F0
F0F0
C000
FFF0
FFF0
ENDCHAR
STARTCHAR uni533A
ENCODING 21306
SWIDTH 1000 0
DWIDTH 14 0
BBX 12 13 1 -2
BITMAP
FFF0
FFF0
C040
D8C0
CD80
C780
C380
CFC0
DCE0
D860
C000
FFF0
FFF0
ENDCHAR
STARTCHAR uni533B
ENCODING 21307
SWIDTH 1000 0
DWIDTH 14 0
BBX 12 13 1 -2
BITMAP
FFF0
FFF0
C800
DFE0
D300
C300
FFF0
C380
C7C0
DC60
D820
FFF0
FFF0
ENDCHAR
STARTCHAR uni533E
ENCODING 21310
SWIDTH 1000 0
DWIDTH 14 0
BBX 12 12 1 -1
BITMAP
FFF0
C300
DFE0
D020
DFE0
D000
DFF0
DAB0
FFF0
EAF0
C820
FFF0
ENDCHAR
STARTCHAR uni533F
ENCODING 21311
SWIDTH 1000 0
DWIDTH 14 0
BBX 12 13 1 -2
BITMAP
FFF0
FFF0
C4C0
DFE0
C6C0
FFF0
CC00
DFE0
FC60
CFE0
C000
FFF0
FFF0
ENDCHAR
STARTCHAR uni5341
ENCODING 21313
SWIDTH 1000 0
DWIDTH 14 0
BBX 12 14 1 -2
BITMAP
0600
0600
0600
0600
0600
FFF0
FFF0
0600
0600
0600
0600
0600
0600
0600
ENDCHAR
STARTCHAR uni5343
ENCODING 21315
SWIDTH 1000 0
DWIDTH 14 0
BBX 12 14 1 -2
BITMAP
0040
1FE0
7F00
0600
0600
0600
FFF0
FFF0
0600
0600
0600
0600
0600
0600
ENDCHAR
STARTCHAR uni5345
ENCODING 21317
SWIDTH 1000 0
DWIDTH 14 0
BBX 14 14 0 -2
BITMAP
1030
1330
1330
1330
1330
FFFC
FFFC
3330
3330
3330
3330
7330
6330
4030
ENDCHAR
STARTCHAR uni5347
ENCODING 21319
SWIDTH 1000 0
DWIDTH 14 0
BBX 13 14 0 -2
BITMAP
0260
0F60
7C60
6860
0860
0860
7FF8
7FF8
1860
1860
1860
3060
7060
4060
ENDCHAR
STARTCHAR uni5348
ENCODING 21320
SWIDTH 1000 0
DWIDTH 14 0
BBX 12 14 1 -2
BITMAP
3000
3000
7FE0
7FE0
C600
C600
0600
FFF0
FFF0
0600
0600
0600
0600
0600
ENDCHAR
STARTCHAR uni5349
ENCODING 21321
SWIDTH 1000 0
DWIDTH 14 0
BBX 13 14 0 -2
BITMAP
0300
0300
7FF8
7FF8
0300
1B60
1860
7FF8
7FF8
1860
1860
3060
7060
4060
ENDCHAR
STARTCHAR uni534A
ENCODING 21322
SWIDTH 1000 0
DWIDTH 14 0
BBX 12 14 1 -2
BITMAP
0640
6660
2660
36C0
0600
7FF0
7FF0
0600
FFF0
FFF0
0600
0600
0600
0600
ENDCHAR
STARTCHAR uni534E
ENCODING 21326
SWIDTH 1000 0
DWIDTH 14 0
BBX 13 14 0 -2
BITMAP
0D80
1990
39F8
7BE0
7F80
1988
19F8
1800
0300
7FF8
7FF8
0300
0300
0300
ENDCHAR
STARTCHAR uni534F
ENCODING 21327
SWIDTH 1000 0
DWIDTH 14 0
BBX 13 14 1 -2
BITMAP
6300
6300
6300
FFE0
FFE0
6B70
6B70
6B70
7A78
6678
6660
6C40
79C0
6980
ENDCHAR
STARTCHAR uni5351
ENCODING 21329
SWIDTH 1000 0
DWIDTH 14 0
BBX 12 14 1 -2
BITMAP
0600
0400
7FE0
6660
7FE0
6660
6660
7FE0
1D00
7900
FFF0
FFF0
0100
0100
ENDCHAR
STARTCHAR uni5352
ENCODING 21330
SWIDTH 1000 0
DWIDTH 14 0
BBX 12 14 1 -2
BITMAP
0600
0600
FFF0
FFF0
30C0
3180
7BE0
CF30
0600
FFF0
FFF0
0600
0600
0600
ENDCHAR
STARTCHAR uni5353
ENCODING 21331
SWIDTH 1000 0
DWIDTH 14 0
BBX 12 14 1 -2
BITMAP
0600
07F0
0600
0600
7FE0
6060
7FE0
6060
7FE0
0600
FFF0
FFF0
0600
0600
ENDCHAR
STARTCHAR uni5355
ENCODING 21333
SWIDTH 1000 0
DWIDTH 14 0
BBX 12 14 1 -2
BITMAP
10C0
10C0
1980
7FE0
6660
7FE0
6660
6660
7FE0
0600
FFF0
FFF0
0600
0600
ENDCHAR
STARTCHAR uni5356
ENCODING 21334
SWIDTH 1000 0
DWIDTH 14 0
BBX 12 14 1 -2
BITMAP
0600
0600
7FE0
0600
FFF0
2030
3B60
6A00
3200
FFF0
0600
1DC0
F8F0
E030
ENDCHAR
STARTCHAR uni5357
ENCODING 21335
SWIDTH 1000 0
DWIDTH 14 0
BBX 12 14 1 -2
BITMAP
0600
FFF0
FFF0
0600
FFF0
FFF0
C9B0
C930
DFB0
C630
DFB0
C630
C630
C6E0
ENDCHAR
STARTCHAR uni535A
ENCODING 21338
SWIDTH 1000 0
DWIDTH 14 0
BBX 14 14 0 -2
BITMAP
30F8
37F8
30C0
37F8
FED8
FFF8
36D8
37F8
30D0
3FFC
3230
3330
3130
3060
ENDCHAR
STARTCHAR uni535C
ENCODING 21340
SWIDTH 1000 0
DWIDTH 14 0
BBX 8 13 5 -2
BITMAP
C0
C0
C0
C0
E0
F8
DE
C7
C2
C0
C0
C0
C0
ENDCHAR
STARTCHAR uni535E
ENCODING 21342
SWIDTH 1000 0
DWIDTH 14 0
BBX 12 14 1 -2
BITMAP
0400
0600
0600
FFF0
FFF0
0600
0700
07C0
06E0
0660
0600
0600
0600
0600
ENDCHAR
STARTCHAR uni535F
ENCODING 21343
SWIDTH 1000 0
DWIDTH 14 0
BBX 13 14 1 -2
BITMAP
0300
FB00
FB00
DB00
DB80
DBC0
DB70
DB30
FB10
FB00
C300
0300
0300
0300
ENDCHAR
STARTCHAR uni5360
ENCODING 21344
SWIDTH 1000 0
DWIDTH 14 0
BBX 11 14 2 -2
BITMAP
0C00
0C00
0FE0
0FE0
0C00
0C00
0C00
FFC0
FFC0
C0C0
C0C0
FFC0
FFC0
C0C0
ENDCHAR
STARTCHAR uni5361
ENCODING 21345
SWIDTH 1000 0
DWIDTH 14 0
BBX 12 14 1 -2
BITMAP
0600
0600
07E0
07E0
0600
FFF0
FFF0
0600
0700
07C0
06F0
0620
0600
0600
ENDCHAR
STARTCHAR uni5362
ENCODING 21346
SWIDTH 1000 0
DWIDTH 14 0
BBX 13 14 0 -2
BITMAP
0300
0300
03F8
0300
3FF0
3030
3030
3030
3FF0
3030
3000
6000
6000
4000
ENDCHAR
STARTCHAR uni5363
ENCODING 21347
SWIDTH 1000 0
DWIDTH 14 0
BBX 12 14 1 -2
BITMAP
0600
07F0
07F0
0600
FFF0
C030
C030
FF30
C330
FF30
C030
C030
FFF0
C030
ENDCHAR
STARTCHAR uni5364
ENCODING 21348
SWIDTH 1000 0
DWIDTH 14 0
BBX 12 14 1 -2
BITMAP
0600
07F0
07F0
0600
FFF0
C130
D9B0
DF30
C730
CFB0
F9B0
D030
FFF0
C030
ENDCHAR
STARTCHAR uni5366
ENCODING 21350
SWIDTH 1000 0
DWIDTH 14 0
BBX 14 14 0 -2
BITMAP
1840
7E40
7E40
1840
7F60
7F70
0058
1858
7E48
7E40
1840
1F40
7F40
6040
ENDCHAR
STARTCHAR uni5367
ENCODING 21351
SWIDTH 1000 0
DWIDTH 14 0
BBX 13 14 1 -2
BITMAP
FE80
FE80
D880
D880
FC80
FCE0
C4E0
C4B0
FC90
FC80
D880
D880
FE80
FE80
ENDCHAR
STARTCHAR uni5369
ENCODING 21353
SWIDTH 1000 0
DWIDTH 14 0
BBX 8 13 3 -2
BITMAP
FF
C3
C3
C3
C3
C3
C3
C3
C3
CF
CC
C0
C0
ENDCHAR
STARTCHAR uni536B
ENCODING 21355
SWIDTH 1000 0
DWIDTH 14 0
BBX 12 13 1 -2
BITMAP
FFE0
FFE0
0C20
0C20
0C20
0C20
0DE0
0CE0
0C00
0C00
0C00
FFF0
FFF0
ENDCHAR
STARTCHAR uni536E
ENCODING 21358
SWIDTH 1000 0
DWIDTH 14 0
BBX 13 14 0 -2
BITMAP
00F0
3FF8
2000
3FF8
3FF8
2000
2FF0
2FF0
2C20
6C20
6CE0
6C08
67F8
43F0
ENDCHAR
STARTCHAR uni536F
ENCODING 21359
SWIDTH 1000 0
DWIDTH 14 0
BBX 12 14 1 -2
BITMAP
0800
3DF0
E1F0
CD30
CD30
CD30
CD30
CD30
D930
F930
D970
3960
7100
6100
ENDCHAR
STARTCHAR uni5370
ENCODING 21360
SWIDTH 1000 0
DWIDTH 14 0
BBX 12 14 1 -2
BITMAP
0800
7BF0
E3F0
C330
C330
FB30
FB30
C330
C330
DB30
FB70
E360
0300
0300
ENDCHAR
STARTCHAR uni5371
ENCODING 21361
SWIDTH 1000 0
DWIDTH 14 0
BBX 14 14 0 -2
BITMAP
0C00
1FC0
18C0
3FF8
7FF8
7000
37F0
3620
3620
3620
26E0
6608
67F8
47F8
ENDCHAR
STARTCHAR uni5373
ENCODING 21363
SWIDTH 1000 0
DWIDTH 14 0
BBX 12 13 1 -2
BITMAP
FDF0
FDF0
C5B0
FDB0
C5B0
C5B0
FDB0
C1B0
D9B0
CDF0
FDE0
F780
8180
ENDCHAR
STARTCHAR uni5374
ENCODING 21364
SWIDTH 1000 0
DWIDTH 14 0
BBX 12 14 1 -2
BITMAP
3000
31F0
FDF0
FDB0
31B0
FDB0
FDB0
31B0
6DB0
6DB0
5DF0
FFA0
C580
0180
ENDCHAR
STARTCHAR uni5375
ENCODING 21365
SWIDTH 1000 0
DWIDTH 14 0
BBX 12 14 1 -2
BITMAP
0800
FDF0
E1F0
CD30
ED30
FDF0
DD70
CD70
DD30
F930
D970
3160
7100
C100
ENDCHAR
STARTCHAR uni5377
ENCODING 21367
SWIDTH 1000 0
DWIDTH 14 0
BBX 14 14 0 -2
BITMAP
1320
1B60
3FF0
0600
0600
7FF8
1CC0
3870
7FD8
58C0
19C0
1810
1C30
0FE0
ENDCHAR
STARTCHAR uni5378
ENCODING 21368
SWIDTH 1000 0
DWIDTH 14 0
BBX 13 14 0 -2
BITMAP
3000
20F8
7EF8
48D8
08D8
7FD8
08D8
68D8
6ED8
68D8
68F8
7EF0
78C0
00C0
ENDCHAR
STARTCHAR uni537A
ENCODING 21370
SWIDTH 1000 0
DWIDTH 14 0
BBX 14 14 0 -2
BITMAP
1FE0
01D0
7F18
0FA0
1BF0
7738
4000
3FF0
0000
3FE0
3020
33E8
3018
1FF8
ENDCHAR
STARTCHAR uni537F
ENCODING 21375
SWIDTH 1000 0
DWIDTH 14 0
BBX 13 14 0 -2
BITMAP
0800
77F8
64E8
5CE8
5FE8
5CE8
5FE8
5C68
7568
75E8
17F8
36E0
60E0
4060
ENDCHAR
STARTCHAR uni5382
ENCODING 21378
SWIDTH 1000 0
DWIDTH 14 0
BBX 13 13 0 -2
BITMAP
3FF8
3FF8
3000
3000
3000
3000
3000
3000
2000
6000
6000
6000
4000
ENDCHAR
STARTCHAR uni5384
ENCODING 21380
SWIDTH 1000 0
DWIDTH 14 0
BBX 14 14 0 -2
BITMAP
3FF8
3FF8
3000
37F0
37F0
3430
3430
3430
24F0
24C0
6408
640C
67F8
43F0
ENDCHAR
STARTCHAR uni5385
ENCODING 21381
SWIDTH 1000 0
DWIDTH 14 0
BBX 13 13 0 -2
BITMAP
3FF8
3FF8
2000
2FF8
2FF8
20C0
20C0
20C0
60C0
60C0
60C0
43C0
4380
ENDCHAR
STARTCHAR uni5386
ENCODING 21382
SWIDTH 1000 0
DWIDTH 14 0
BBX 13 14 0 -2
BITMAP
7FF8
7FF8
6000
6100
6100
6FF8
6FF8
6318
6318
6318
6610
6E10
5CF0
48E0
ENDCHAR
STARTCHAR uni5389
ENCODING 21385
SWIDTH 1000 0
DWIDTH 14 0
BBX 13 13 0 -2
BITMAP
3FF8
3FF8
2000
2FF8
2FF8
2300
2300
23F0
6610
6630
6C30
5CF0
48E0
ENDCHAR
STARTCHAR uni538B
ENCODING 21387
SWIDTH 1000 0
DWIDTH 14 0
BBX 13 13 0 -2
BITMAP
7FF8
7FF8
6180
6180
6FF8
6FF8
6180
61B0
61B0
6190
6180
5FF8
5FF8
ENDCHAR
STARTCHAR uni538C
ENCODING 21388
SWIDTH 1000 0
DWIDTH 14 0
BBX 14 13 0 -2
BITMAP
3FF8
3FF8
20A0
20B0
2190
2FF8
2FF8
21C0
6340
6360
6630
5C18
4808
ENDCHAR
STARTCHAR uni538D
ENCODING 21389
SWIDTH 1000 0
DWIDTH 14 0
BBX 13 13 0 -2
BITMAP
3FF8
3FF8
2300
2FF8
2FF8
26C0
2CC0
2FF0
60C0
7FF8
7FF8
40C0
40C0
ENDCHAR
STARTCHAR uni5395
ENCODING 21397
SWIDTH 1000 0
DWIDTH 14 0
BBX 13 13 0 -2
BITMAP
7FF8
6000
6F88
69E8
6FE8
6FE8
6FE8
6FE8
6FE8
6FE8
4708
4D88
58B8
ENDCHAR
STARTCHAR uni5398
ENCODING 21400
SWIDTH 1000 0
DWIDTH 14 0
BBX 13 14 0 -2
BITMAP
3FF8
3FF8
2000
2FF0
2D90
2FF0
2D90
2D90
6FF0
6180
6FF8
6180
5FF8
0000
ENDCHAR
STARTCHAR uni539A
ENCODING 21402
SWIDTH 1000 0
DWIDTH 14 0
BBX 13 14 0 -2
BITMAP
3FF8
3FF8
2000
2FF0
2FF0
2C30
2FF0
2000
6FF0
60E0
7FF8
6180
4180
4380
ENDCHAR
STARTCHAR uni539D
ENCODING 21405
SWIDTH 1000 0
DWIDTH 14 0
BBX 13 14 0 -2
BITMAP
3FF8
3FF8
2260
2FF8
2260
2260
3FF8
2000
67F0
6430
67F0
6430
47F0
4430
ENDCHAR
STARTCHAR uni539F
ENCODING 21407
SWIDTH 1000 0
DWIDTH 14 0
BBX 13 14 0 -2
BITMAP
3FF8
3FF8
2180
2180
2FF0
2C10
2FF0
2C10
6FF0
6180
65B0
6DB0
5998
4380
ENDCHAR
STARTCHAR uni53A2
ENCODING 21410
SWIDTH 1000 0
DWIDTH 14 0
BBX 13 13 0 -2
BITMAP
7FF8
6000
64F8
6488
7F88
64F8
6E88
6F88
7DF8
7488
5488
C4F8
4488
ENDCHAR
STARTCHAR uni53A3
ENCODING 21411
SWIDTH 1000 0
DWIDTH 14 0
BBX 14 13 0 -2
BITMAP
7FF8
61A0
61B0
7FF8
6640
6E78
7FF8
6990
6FF0
6990
6FF0
4180
4180
ENDCHAR
STARTCHAR uni53A5
ENCODING 21413
SWIDTH 1000 0
DWIDTH 14 0
BBX 14 13 0 -2
BITMAP
7FF8
6960
6B40
6278
7F48
64C8
75A8
7520
7F30
6570
4C58
4CD8
5888
ENDCHAR
STARTCHAR uni53A6
ENCODING 21414
SWIDTH 1000 0
DWIDTH 14 0
BBX 14 13 0 -2
BITMAP
3FF8
2000
2FF8
2FF0
2C30
2FF0
2FF0
6C30
63C0
67E0
6FE0
47E0
5E78
ENDCHAR
STARTCHAR uni53A8
ENCODING 21416
SWIDTH 1000 0
DWIDTH 14 0
BBX 13 13 0 -2
BITMAP
7FF8
6000
7F90
6010
6F78
6918
6950
6F50
6970
6B50
4E10
5FD0
5830
ENDCHAR
STARTCHAR uni53A9
ENCODING 21417
SWIDTH 1000 0
DWIDTH 14 0
BBX 14 13 0 -2
BITMAP
7FF8
6000
7FF8
7B10
7FF0
7BB0
7FF8
7820
7A30
7B70
7FF0
58FC
C1B8
ENDCHAR
STARTCHAR uni53AE
ENCODING 21422
SWIDTH 1000 0
DWIDTH 14 0
BBX 14 13 0 -2
BITMAP
7FF8
6000
6B78
7F70
6B40
6F40
6B7C
6F58
6B58
7F58
4AD8
5B98
5098
ENDCHAR
STARTCHAR uni53B6
ENCODING 21430
SWIDTH 1000 0
DWIDTH 14 0
BBX 12 12 1 -1
BITMAP
0600
0E00
0C00
0C00
1800
1840
3040
3060
6060
FFF0
FFB0
0030
ENDCHAR
STARTCHAR uni53BB
ENCODING 21435
SWIDTH 1000 0
DWIDTH 14 0
BBX 12 14 1 -2
BITMAP
0600
0600
7FE0
7FE0
0600
0600
FFF0
FFF0
1880
18C0
30E0
7FE0
7FF0
0020
ENDCHAR
STARTCHAR uni53BF
ENCODING 21439
SWIDTH 1000 0
DWIDTH 14 0
BBX 12 13 1 -2
BITMAP
3FE0
2060
3FE0
2060
2060
3FE0
2060
FFF0
FFF0
30C0
71E0
7FF0
0020
ENDCHAR
STARTCHAR uni53C1
ENCODING 21441
SWIDTH 1000 0
DWIDTH 14 0
BBX 14 13 0 -1
BITMAP
0600
1CE0
3FF0
3E10
0600
7FF8
1860
3870
FFF8
4000
1FE0
0000
7FF8
ENDCHAR
STARTCHAR uni53C2
ENCODING 21442
SWIDTH 1000 0
DWIDTH 14 0
BBX 14 14 0 -2
BITMAP
0600
1CE0
3FF0
3E10
0600
7FF8
0CC0
1B60
7E38
61D8
1F20
08E0
3F80
1C00
ENDCHAR
STARTCHAR uni53C8
ENCODING 21448
SWIDTH 1000 0
DWIDTH 14 0
BBX 14 13 0 -2
BITMAP
7FF0
7FF0
1030
1820
1860
0C40
0CC0
0780
0300
0FC0
3CF0
7878
4018
ENDCHAR
STARTCHAR uni53C9
ENCODING 21449
SWIDTH 1000 0
DWIDTH 14 0
BBX 14 13 0 -2
BITMAP
7FF0
7FF0
3230
1730
1BE0
1860
0CC0
0780
0780
0780
1CF0
7878
6008
ENDCHAR
STARTCHAR uni53CA
ENCODING 21450
SWIDTH 1000 0
DWIDTH 14 0
BBX 14 13 0 -2
BITMAP
7FC0
7FC0
18C0
18F0
1DF8
1C10
1E30
1B70
3360
31C0
63E0
6F78
4418
ENDCHAR
STARTCHAR uni53CB
ENCODING 21451
SWIDTH 1000 0
DWIDTH 14 0
BBX 13 14 0 -2
BITMAP
0C00
0C00
7FF8
7FF8
0C00
0FE0
0FF0
1C60
1E60
33C0
31C0
63E0
6E78
0C18
ENDCHAR
STARTCHAR uni53CC
ENCODING 21452
SWIDTH 1000 0
DWIDTH 14 0
BBX 13 13 0 -2
BITMAP
7DF8
7DF8
0598
6D98
6D90
3CB0
18F0
1CE0
1C60
36E0
75F0
E398
4208
ENDCHAR
STARTCHAR uni53CD
ENCODING 21453
SWIDTH 1000 0
DWIDTH 14 0
BBX 12 14 1 -2
BITMAP
0060
3FE0
7F00
6000
7FE0
7FE0
6860
6C60
6CC0
6780
4380
CFC0
FCF0
9020
ENDCHAR
STARTCHAR uni53D1
ENCODING 21457
SWIDTH 1000 0
DWIDTH 14 0
BBX 14 14 0 -2
BITMAP
1320
1330
3330
3FF8
3FF8
0600
07F0
0FF0
1E60
1B60
71C0
E3E0
5F7C
0C18
ENDCHAR
STARTCHAR uni53D4
ENCODING 21460
SWIDTH 1000 0
DWIDTH 14 0
BBX 14 14 0 -2
BITMAP
1000
11F8
1FF8
1E98
1098
7ED0
7ED0
1A70
7A70
5A60
5B70
58F0
1998
3908
ENDCHAR
STARTCHAR uni53D6
ENCODING 21462
SWIDTH 1000 0
DWIDTH 14 0
BBX 13 13 1 -2
BITMAP
FFF0
CBF0
C930
F930
C9B0
C9A0
F8E0
C8E0
C8C0
FCE0
F9E0
0B38
0A10
ENDCHAR
STARTCHAR uni53D7
ENCODING 21463
SWIDTH 1000 0
DWIDTH 14 0
BBX 12 14 1 -2
BITMAP
01E0
FFE0
2660
2660
24C0
FFF0
8030
BFF0
3FC0
1980
0F00
1F80
F9F0
C030
ENDCHAR
STARTCHAR uni53D8
ENCODING 21464
SWIDTH 1000 0
DWIDTH 14 0
BBX 12 14 1 -2
BITMAP
0600
0600
FFF0
1940
79E0
D930
5900
0000
7FE0
30C0
1F80
0F00
FFF0
E070
ENDCHAR
STARTCHAR uni53D9
ENCODING 21465
SWIDTH 1000 0
DWIDTH 14 0
BBX 14 14 0 -2
BITMAP
0800
19F8
3FF8
6398
7E98
1898
18D0
7EF0
1870
7A60
7A70
5AF0
19D8
3908
ENDCHAR
STARTCHAR uni53DB
ENCODING 21467
SWIDTH 1000 0
DWIDTH 14 0
BBX 13 14 1 -2
BITMAP
3070
BFF0
FB00
FB00
FBF0
FB90
33B0
23B0
FEE0
FEE0
6660
66E0
CDB8
4510
ENDCHAR
STARTCHAR uni53DF
ENCODING 21471
SWIDTH 1000 0
DWIDTH 14 0
BBX 14 14 0 -2
BITMAP
0B00
3FF0
2310
2310
3B70
2310
3FF0
0300
3FF0
1860
0CC0
0780
7FF8
7038
ENDCHAR
STARTCHAR uni53E0
ENCODING 21472
SWIDTH 1000 0
DWIDTH 14 0
BBX 12 14 1 -2
BITMAP
3FC0
1D80
0F80
3CC0
FFF0
7BE0
FFF0
FFF0
FFF0
30C0
3FC0
3FC0
30C0
FFF0
ENDCHAR
STARTCHAR uni53E3
ENCODING 21475
SWIDTH 1000 0
DWIDTH 14 0
BBX 12 13 1 -2
BITMAP
FFF0
FFF0
C030
C030
C030
C030
C030
C030
C030
C030
FFF0
FFF0
C030
ENDCHAR
STARTCHAR uni53E4
ENCODING 21476
SWIDTH 1000 0
DWIDTH 14 0
BBX 12 14 1 -2
BITMAP
0600
0600
FFF0
FFF0
0600
0600
0600
7FE0
7FE0
6060
6060
7FE0
7FE0
6060
ENDCHAR
STARTCHAR uni53E5
ENCODING 21477
SWIDTH 1000 0
DWIDTH 14 0
BBX 13 14 0 -2
BITMAP
0800
1800
1FF8
3FF8
3018
6018
7F98
1998
1998
1998
1F98
1810
00F0
00F0
ENDCHAR
STARTCHAR uni53E6
ENCODING 21478
SWIDTH 1000 0
DWIDTH 14 0
BBX 12 14 1 -2
BITMAP
7FE0
7FE0
6060
6060
7FE0
7FE0
0600
0400
FFE0
0C20
1C20
3860
F1E0
C1E0
ENDCHAR
STARTCHAR uni53E8
ENCODING 21480
SWIDTH 1000 0
DWIDTH 14 0
BBX 12 13 1 -2
BITMAP
F7F0
F7F0
D130
D130
D130
D330
D330
F330
F230
C630
0E30
1CE0
08C0
ENDCHAR
STARTCHAR uni53E9
ENCODING 21481
SWIDTH 1000 0
DWIDTH 14 0
BBX 12 13 1 -2
BITMAP
FBF0
FBF0
DB30
DB30
DB30
DB30
DB30
FB30
FB30
C3F0
0360
0300
0300
ENDCHAR
STARTCHAR uni53EA
ENCODING 21482
SWIDTH 1000 0
DWIDTH 14 0
BBX 12 13 1 -2
BITMAP
7FE0
7FE0
6060
6060
6060
7FE0
7FE0
0000
1080
38C0
7060
E030
4020
ENDCHAR
STARTCHAR uni53EB
ENCODING 21483
SWIDTH 1000 0
DWIDTH 14 0
BBX 12 14 1 -2
BITMAP
0030
F830
FB30
DB30
DB30
DB30
DB30
DB30
DB30
FBF0
FFB0
C030
0030
0030
ENDCHAR
STARTCHAR uni53EC
ENCODING 21484
SWIDTH 1000 0
DWIDTH 14 0
BBX 12 13 0 -2
BITMAP
7FF0
7FF0
0630
0C30
1C30
F8E0
6000
3FF0
3FF0
3030
3030
3FF0
3FF0
ENDCHAR
STARTCHAR uni53ED
ENCODING 21485
SWIDTH 1000 0
DWIDTH 14 0
BBX 13 13 1 -2
BITMAP
F340
F340
9240
9240
9260
9260
9660
9660
F620
F630
8C30
0C30
0810
ENDCHAR
STARTCHAR uni53EE
ENCODING 21486
SWIDTH 1000 0
DWIDTH 14 0
BBX 13 13 1 -2
BITMAP
FFF8
FFF8
D8C0
D8C0
D8C0
D8C0
D8C0
F8C0
F8C0
C0C0
00C0
03C0
0380
ENDCHAR
STARTCHAR uni53EF
ENCODING 21487
SWIDTH 1000 0
DWIDTH 14 0
BBX 12 13 1 -2
BITMAP
FFF0
FFF0
0060
7E60
7E60
6660
6660
7E60
7E60
6060
0060
03E0
01C0
ENDCHAR
STARTCHAR uni53F0
ENCODING 21488
SWIDTH 1000 0
DWIDTH 14 0
BBX 12 14 1 -2
BITMAP
0C00
1880
39C0
30E0
FFE0
7F30
0000
7FE0
7FE0
6060
6060
7FE0
7FE0
6060
ENDCHAR
STARTCHAR uni53F1
ENCODING 21489
SWIDTH 1000 0
DWIDTH 14 0
BBX 13 14 1 -2
BITMAP
0100
F100
F100
D130
D170
D1C0
D380
DF00
F500
F110
C118
C110
01F0
00E0
ENDCHAR
STARTCHAR uni53F2
ENCODING 21490
SWIDTH 1000 0
DWIDTH 14 0
BBX 14 14 0 -2
BITMAP
0300
0300
3FF8
3FF8
2318
2318
3FF8
3FF8
3300
1B00
1E00
0F00
7BF8
6038
ENDCHAR
STARTCHAR uni53F3
ENCODING 21491
SWIDTH 1000 0
DWIDTH 14 0
BBX 13 14 0 -2
BITMAP
0600
0600
7FF8
7FF8
0C00
0C00
1800
1FF0
3FF0
6830
4830
0FF0
0FF0
0830
ENDCHAR
STARTCHAR uni53F5
ENCODING 21493
SWIDTH 1000 0
DWIDTH 14 0
BBX 12 13 1 -2
BITMAP
FFF0
FFF0
C000
CFC0
CC40
CC40
CC40
CC40
CFC0
C000
C000
FFF0
FFF0
ENDCHAR
STARTCHAR uni53F6
ENCODING 21494
SWIDTH 1000 0
DWIDTH 14 0
BBX 13 14 1 -2
BITMAP
0080
F880
F880
D880
D880
DFF8
DFF8
D880
F880
F880
C080
0080
0080
0080
ENDCHAR
STARTCHAR uni53F7
ENCODING 21495
SWIDTH 1000 0
DWIDTH 14 0
BBX 12 13 1 -2
BITMAP
7FE0
6060
6060
7FE0
0000
FFF0
FFF0
3000
3FE0
7FC0
00C0
04C0
0780
ENDCHAR
STARTCHAR uni53F8
ENCODING 21496
SWIDTH 1000 0
DWIDTH 14 0
BBX 12 13 1 -2
BITMAP
FFF0
FFF0
0030
FFB0
0030
0030
7F30
6330
6330
7F30
6030
60F0
00E0
ENDCHAR
STARTCHAR uni53F9
ENCODING 21497
SWIDTH 1000 0
DWIDTH 14 0
BBX 13 13 1 -2
BITMAP
0FE0
FFF0
F430
9620
9660
9260
9340
93C0
F180
F3C0
87E0
0E70
0830
ENDCHAR
STARTCHAR uni53FB
ENCODING 21499
SWIDTH 1000 0
DWIDTH 14 0
BBX 12 14 1 -2
BITMAP
0100
F100
F100
97F0
97F0
9130
9130
9330
9330
F330
F230
8630
0C60
0CE0
ENDCHAR
STARTCHAR uni53FC
ENCODING 21500
SWIDTH 1000 0
DWIDTH 14 0
BBX 12 13 1 -2
BITMAP
F7F0
F7F0
D030
D0B0
D0F0
D1B0
D330
F730
F630
C430
C060
01E0
00C0
ENDCHAR
STARTCHAR uni53FD
ENCODING 21501
SWIDTH 1000 0
DWIDTH 14 0
BBX 13 13 1 -2
BITMAP
F7E0
F7E0
D660
D660
D660
D660
D660
F660
F670
C678
0C78
1C70
0830
ENDCHAR
STARTCHAR uni5401
ENCODING 21505
SWIDTH 1000 0
DWIDTH 14 0
BBX 13 13 1 -2
BITMAP
F7F0
F7F0
D080
D080
D7F8
D7F8
D080
F080
F080
C080
0080
0380
0380
ENDCHAR
STARTCHAR uni5403
ENCODING 21507
SWIDTH 1000 0
DWIDTH 14 0
BBX 13 14 1 -2
BITMAP
0300
F300
F7F0
97F0
9C00
97E0
93E0
90C0
F180
F300
8618
0418
07F0
03E0
ENDCHAR
STARTCHAR uni5404
ENCODING 21508
SWIDTH 1000 0
DWIDTH 14 0
BBX 14 14 0 -2
BITMAP
0600
0C00
1FF0
3860
6EC0
0780
0FF0
FCF8
7FE0
1FE0
1020
1020
1FE0
1020
ENDCHAR
STARTCHAR uni5406
ENCODING 21510
SWIDTH 1000 0
DWIDTH 14 0
BBX 13 14 1 -2
BITMAP
0180
F180
F180
9320
9230
97E0
97E0
90C0
F180
F320
8730
0FF0
0790
0010
ENDCHAR
STARTCHAR uni5408
ENCODING 21512
SWIDTH 1000 0
DWIDTH 14 0
BBX 14 14 0 -2
BITMAP
0100
0300
0780
0CE0
3870
7FF8
4FE8
0000
1FF0
1030
1030
1030
1FF0
1FF0
ENDCHAR
STARTCHAR uni5409
ENCODING 21513
SWIDTH 1000 0
DWIDTH 14 0
BBX 12 14 1 -2
BITMAP
0600
0600
FFF0
FFF0
0600
7FE0
7FE0
0000
7FE0
7FE0
6060
6060
7FE0
7FE0
ENDCHAR
STARTCHAR uni540A
ENCODING 21514
SWIDTH 1000 0
DWIDTH 14 0
BBX 12 14 1 -2
BITMAP
7FE0
7FE0
6060
6060
7FE0
7FE0
0600
FFF0
FFF0
C630
C630
C6F0
C6E0
0600
ENDCHAR
STARTCHAR uni540C
ENCODING 21516
SWIDTH 1000 0
DWIDTH 14 0
BBX 12 13 1 -2
BITMAP
FFF0
FFF0
C030
FFB0
C030
DFB0
D9B0
D9B0
D9B0
DFB0
D830
C0F0
C070
ENDCHAR
STARTCHAR uni540D
ENCODING 21517
SWIDTH 1000 0
DWIDTH 14 0
BBX 12 14 0 -2
BITMAP
0600
0FE0
1FF0
7060
68E0
0DC0
0780
0FF0
FFF0
7830
1830
1830
1FF0
1FF0
ENDCHAR
STARTCHAR uni540E
ENCODING 21518
SWIDTH 1000 0
DWIDTH 14 0
BBX 14 14 0 -2
BITMAP
0070
3FF8
3C00
3000
3FFC
3FFC
3000
3FF8
3FF8
2C18
6C18
6FF8
EFF8
4C18
ENDCHAR
STARTCHAR uni540F
ENCODING 21519
SWIDTH 1000 0
DWIDTH 14 0
BBX 13 14 1 -2
BITMAP
0600
FFF0
FFF0
0600
7FE0
4620
4620
7FE0
2600
6600
3C00
1C00
FFF8
C1F0
ENDCHAR
STARTCHAR uni5410
ENCODING 21520
SWIDTH 1000 0
DWIDTH 14 0
BBX 13 14 1 -2
BITMAP
0180
F180
F180
9180
97F0
97F0
9180
9180
F180
F180
8180
8180
0FF8
0FF8
ENDCHAR
STARTCHAR uni5411
ENCODING 21521
SWIDTH 1000 0
DWIDTH 14 0
BBX 12 14 1 -2
BITMAP
0600
0C00
FFF0
FFF0
C030
C030
DFB0
D9B0
D9B0
D9B0
DFB0
D830
C0F0
C0E0
ENDCHAR
STARTCHAR uni5412
ENCODING 21522
SWIDTH 1000 0
DWIDTH 14 0
BBX 13 14 1 -2
BITMAP
0060
F7F0
F780
9180
9180
9190
9FF0
9F80
9180
F180
F198
8198
01F0
00E0
ENDCHAR
STARTCHAR uni5413
ENCODING 21523
SWIDTH 1000 0
DWIDTH 14 0
BBX 12 13 1 -2
BITMAP
FFF0
FFF0
9180
9180
91E0
91F0
91B0
F180
F180
8180
8180
0180
0180
ENDCHAR
STARTCHAR uni5415
ENCODING 21525
SWIDTH 1000 0
DWIDTH 14 0
BBX 10 13 2 -2
BITMAP
7FC0
7FC0
40C0
7FC0
7FC0
0000
FFC0
FFC0
8040
8040
8040
FFC0
FFC0
ENDCHAR
STARTCHAR uni5416
ENCODING 21526
SWIDTH 1000 0
DWIDTH 14 0
BBX 13 14 1 -2
BITMAP
0410
F630
F630
9360
9140
90C0
90C0
90C0
F0C0
F0C0
80C0
00C0
00C0
00C0
ENDCHAR
STARTCHAR uni5417
ENCODING 21527
SWIDTH 1000 0
DWIDTH 14 0
BBX 12 13 1 -2
BITMAP
F7E0
F7E0
9660
9660
9660
97F0
9010
F030
F030
87F0
8030
0030
00E0
ENDCHAR
STARTCHAR uni541B
ENCODING 21531
SWIDTH 1000 0
DWIDTH 14 0
BBX 13 13 0 -2
BITMAP
3FF0
0630
7FF8
0630
0430
3FF0
0C00
1800
3FF0
E830
4830
0FF0
0830
ENDCHAR
STARTCHAR uni541D
ENCODING 21533
SWIDTH 1000 0
DWIDTH 14 0
BBX 14 14 0 -2
BITMAP
0300
0300
7FF8
1860
0DC0
0780
3FE0
7878
4000
3FF0
3030
3030
3FF0
3FF0
ENDCHAR
STARTCHAR uni541E
ENCODING 21534
SWIDTH 1000 0
DWIDTH 14 0
BBX 14 13 0 -2
BITMAP
3FF8
3FF8
0600
7FF8
7FF8
1CE0
1870
7FF8
7FF8
1020
1020
1FE0
1FE0
ENDCHAR
STARTCHAR uni541F
ENCODING 21535
SWIDTH 1000 0
DWIDTH 14 0
BBX 13 14 1 -2
BITMAP
0080
F180
F3C0
B760
BFB0
BD90
B080
B7F0
F7E0
F060
8040
00C0
0080
0180
ENDCHAR
STARTCHAR uni5420
ENCODING 21536
SWIDTH 1000 0
DWIDTH 14 0
BBX 13 14 1 -2
BITMAP
0180
F9E0
F9B0
D990
DFF0
DFF0
D980
D980
F9C0
FBC0
C360
C660
1C38
0810
ENDCHAR
STARTCHAR uni5421
ENCODING 21537
SWIDTH 1000 0
DWIDTH 14 0
BBX 13 14 1 -2
BITMAP
04C0
F4C0
F4C0
94C0
94F0
97F0
97E0
94C0
F4C0
F4C0
85D8
07D0
0EF0
0060
ENDCHAR
STARTCHAR uni5423
ENCODING 21539
SWIDTH 1000 0
DWIDTH 14 0
BBX 13 14 1 -2
BITMAP
0000
0180
F0C0
F040
B300
B730
B710
BF10
BF18
FF18
FF30
8330
0330
01E0
ENDCHAR
STARTCHAR uni5426
ENCODING 21542
SWIDTH 1000 0
DWIDTH 14 0
BBX 14 13 0 -2
BITMAP
7FF8
7FF8
0700
0FE0
3B38
7318
0300
3FF0
3030
3030
3030
3FF0
3030
ENDCHAR
STARTCHAR uni5427
ENCODING 21543
SWIDTH 1000 0
DWIDTH 14 0
BBX 13 13 1 -2
BITMAP
F7F0
F7F0
96B0
96B0
96B0
97F0
97F0
9630
F600
F610
8618
07F0
01E0
ENDCHAR
STARTCHAR uni5428
ENCODING 21544
SWIDTH 1000 0
DWIDTH 14 0
BBX 13 14 1 -2
BITMAP
0180
F180
FFF0
BFF0
B5B0
B5B0
B5B0
B5B0
F7F0
F7F0
81B0
8190
01F8
00F0
ENDCHAR
STARTCHAR uni5429
ENCODING 21545
SWIDTH 1000 0
DWIDTH 14 0
BBX 13 14 1 -2
BITMAP
0040
F360
F360
9260
9630
9E38
97F0
97E0
F320
F320
8320
8620
0E60
0CE0
ENDCHAR
STARTCHAR uni542B
ENCODING 21547
SWIDTH 1000 0
DWIDTH 14 0
BBX 14 14 0 -2
BITMAP
0300
0700
0FC0
3EF0
7338
4108
1FE0
00C0
01C0
3FF0
3030
3030
3FF0
3030
ENDCHAR
STARTCHAR uni542C
ENCODING 21548
SWIDTH 1000 0
DWIDTH 14 0
BBX 12 14 1 -2
BITMAP
0020
F1F0
F380
D200
D200
D3F0
D3F0
D260
F660
F660
C660
0660
0C60
0460
ENDCHAR
ENDFONT
